<svg version="1.1" id="Layer_1" xmlns="http://www.w3.org/2000/svg" xmlns:xlink="http://www.w3.org/1999/xlink" x="0px" y="0px"
	 width="100%" viewBox="0 0 1772 1181" enable-background="new 0 0 1772 1181" xml:space="preserve">
<path fill="#493628" opacity="1.000000" stroke="none" 
	d="
M1236.000000,1182.000000 
	C824.000061,1182.000000 412.500153,1182.000000 1.000166,1182.000000 
	C1.000110,788.333496 1.000110,394.666962 1.000055,1.000324 
	C591.666443,1.000216 1182.332886,1.000216 1772.999512,1.000108 
	C1772.999634,394.666351 1772.999634,788.332703 1772.999756,1181.999512 
	C1594.166626,1182.000000 1415.333374,1182.000000 1236.000000,1182.000000 
M1068.957031,446.019318 
	C1070.058838,443.434601 1071.139771,440.840759 1072.265869,438.266663 
	C1080.413574,419.642212 1088.620483,401.043518 1096.710205,382.393951 
	C1104.796021,363.753021 1112.788330,345.071442 1120.782959,326.391174 
	C1128.582886,308.166260 1136.045410,289.788300 1144.297974,271.771606 
	C1146.510864,266.940735 1144.807739,264.600739 1141.605713,262.343323 
	C1140.154053,261.319885 1137.906494,261.076904 1136.018555,261.072510 
	C1104.689453,260.999329 1073.359131,261.151794 1042.031982,260.897034 
	C1036.504883,260.852081 1033.245728,263.932220 1031.433350,267.747864 
	C1026.194214,278.777679 1021.795776,290.206268 1017.048157,301.470245 
	C1008.517029,321.710693 999.979492,341.948486 991.430481,362.181366 
	C983.650330,380.594666 975.839783,398.995117 968.063782,417.410156 
	C959.519409,437.644775 951.013184,457.895447 942.464539,478.128296 
	C934.684448,496.542145 926.841125,514.929382 919.078247,533.350464 
	C910.612244,553.439941 902.233093,573.566101 893.767639,593.655823 
	C884.852234,614.813232 875.892639,635.951965 866.922485,657.086243 
	C864.644226,662.454102 862.253235,667.774170 859.344116,674.417786 
	C857.756836,671.148743 856.769714,669.323303 855.962585,667.421509 
	C847.183899,646.737000 838.449341,626.033752 829.670593,605.349365 
	C821.798035,586.800171 813.843811,568.285645 806.000977,549.723999 
	C796.550537,527.357483 787.195190,504.950745 777.769836,482.573578 
	C769.179626,462.178986 760.566406,441.794037 751.934631,421.417023 
	C744.073914,402.860138 736.159546,384.325958 728.296692,365.769989 
	C720.499207,347.368530 712.722473,328.958282 704.963074,310.540771 
	C699.255371,296.993164 693.766235,283.349854 687.823120,269.906830 
	C685.297241,264.193237 681.277405,260.746521 673.983093,260.854370 
	C646.326111,261.263184 618.659424,261.018677 590.996399,261.019226 
	C586.663635,261.019287 582.327026,260.909851 577.999207,261.056580 
	C573.583130,261.206299 569.684937,265.724701 571.063049,268.934296 
	C579.471741,288.517426 587.895142,308.094269 596.337280,327.662994 
	C604.845093,347.384003 613.417664,367.077118 621.893921,386.811615 
	C631.740356,409.736023 641.479980,432.706299 651.327515,455.630219 
	C659.804871,475.364227 668.407166,495.044525 676.883911,514.778809 
	C686.533691,537.243774 696.070435,559.757202 705.721680,582.221558 
	C714.396729,602.414001 723.199707,622.551392 731.874329,642.744019 
	C741.590210,665.360352 751.194763,688.024536 760.905212,710.643188 
	C768.531982,728.408203 776.281555,746.120422 783.912659,763.883545 
	C793.563232,786.347168 803.167053,808.830994 812.756531,831.320801 
	C820.272400,848.947388 827.719299,866.603271 835.228943,884.232422 
	C839.503479,894.266907 843.665955,904.355652 848.241821,914.252197 
	C850.013916,918.084778 852.310486,922.056946 857.594177,921.971252 
	C862.821533,921.886414 864.677551,917.765198 866.902100,914.110535 
	C867.245728,913.546021 867.495728,912.921326 867.757690,912.310974 
	C873.686035,898.497986 879.585022,884.672363 885.541016,870.871277 
	C893.268188,852.966187 901.077393,835.096497 908.782654,817.181946 
	C917.660034,796.542236 926.402527,775.844360 935.315369,755.220032 
	C943.379395,736.559875 951.669189,717.997192 959.723083,699.332642 
	C969.606506,676.428528 979.283508,653.435364 989.170166,630.532715 
	C998.274475,609.442139 1007.585632,588.440979 1016.719238,567.362976 
	C1027.032104,543.563354 1037.253174,519.723999 1047.505493,495.898224 
	C1054.557861,479.509399 1061.595337,463.114288 1068.957031,446.019318 
M516.889160,768.569336 
	C525.961670,753.591614 535.913086,739.065674 543.899902,723.529724 
	C555.769165,700.441833 563.989624,675.872314 569.715881,650.478882 
	C574.747375,628.166260 577.478760,605.542969 577.747131,582.771851 
	C577.937622,566.601746 576.245483,550.386597 574.945129,534.227661 
	C573.445984,515.597900 568.837097,497.563629 563.276245,479.779053 
	C556.242981,457.285187 546.825684,435.859772 534.834534,415.521912 
	C523.543945,396.372223 510.661621,378.374512 495.450562,362.246460 
	C484.648834,350.793579 472.806854,340.291504 461.099121,329.730927 
	C445.549805,315.705261 427.854309,304.699707 409.457397,294.877533 
	C392.212280,285.670349 374.080109,278.600067 355.331604,272.937469 
	C330.831085,265.537659 305.732300,261.434998 280.318115,261.217743 
	C211.999252,260.633606 143.672073,261.017761 75.348198,261.020020 
	C66.895309,261.020294 64.022408,263.877991 64.022415,272.253601 
	C64.022552,478.058441 64.022606,683.863281 64.022392,889.668091 
	C64.022385,898.100586 66.875854,901.016418 75.269867,900.973938 
	C139.046371,900.651367 202.824463,900.479248 266.597931,899.846069 
	C281.119629,899.701904 295.756195,898.836914 310.110016,896.734314 
	C336.949768,892.802612 362.887085,885.108459 387.672302,874.017883 
	C417.932892,860.477356 445.665649,842.793762 470.002502,820.257568 
	C486.916809,804.594604 502.998444,788.020935 516.889160,768.569336 
M1579.130493,318.601624 
	C1566.129517,310.432526 1553.705322,301.079437 1539.981201,294.395081 
	C1522.970093,286.109802 1505.107666,279.386444 1487.203857,273.165955 
	C1463.193359,264.823730 1438.009644,261.447357 1412.767578,261.225708 
	C1344.115234,260.622864 1275.454102,261.017700 1206.796509,261.019745 
	C1199.148804,261.019989 1196.022461,264.151215 1196.022461,271.803497 
	C1196.021362,477.943024 1196.021240,684.082581 1196.022461,890.222107 
	C1196.022461,897.866882 1199.146484,901.013794 1206.822021,900.975037 
	C1270.765869,900.652222 1334.710327,900.395935 1398.652954,899.897522 
	C1409.389893,899.813904 1420.131348,898.824097 1430.848145,897.969055 
	C1452.490601,896.242432 1473.365234,890.804810 1493.872925,884.011169 
	C1512.607178,877.804932 1530.425049,869.454712 1547.617920,859.736877 
	C1567.418335,848.544983 1585.962769,835.490540 1602.331299,819.807373 
	C1615.961548,806.747742 1628.582275,792.570923 1640.984619,778.309998 
	C1655.265625,761.889099 1666.300171,743.163025 1675.929077,723.743103 
	C1687.541382,700.323242 1696.073486,675.726196 1701.796875,650.165894 
	C1706.719482,628.181580 1708.987427,605.880920 1709.865356,583.442444 
	C1710.208008,574.684265 1709.634033,565.851318 1708.908325,557.099609 
	C1707.900879,544.947388 1706.717041,532.787537 1704.971191,520.723267 
	C1700.876709,492.429840 1691.825806,465.572784 1679.771973,439.773071 
	C1666.600464,411.581543 1649.316040,385.948364 1628.300049,363.052612 
	C1613.498413,346.927216 1597.668335,331.746918 1579.130493,318.601624 
z"/>
<path fill="#E6DECC" opacity="1.000000" stroke="none" 
	d="
M1068.798218,446.370667 
	C1061.595337,463.114288 1054.557861,479.509399 1047.505493,495.898224 
	C1037.253174,519.723999 1027.032104,543.563354 1016.719238,567.362976 
	C1007.585632,588.440979 998.274475,609.442139 989.170166,630.532715 
	C979.283508,653.435364 969.606506,676.428528 959.723083,699.332642 
	C951.669189,717.997192 943.379395,736.559875 935.315369,755.220032 
	C926.402527,775.844360 917.660034,796.542236 908.782654,817.181946 
	C901.077393,835.096497 893.268188,852.966187 885.541016,870.871277 
	C879.585022,884.672363 873.686035,898.497986 867.757690,912.310974 
	C867.495728,912.921326 867.245728,913.546021 866.902100,914.110535 
	C864.677551,917.765198 862.821533,921.886414 857.594177,921.971252 
	C852.310486,922.056946 850.013916,918.084778 848.241821,914.252197 
	C843.665955,904.355652 839.503479,894.266907 835.228943,884.232422 
	C827.719299,866.603271 820.272400,848.947388 812.756531,831.320801 
	C803.167053,808.830994 793.563232,786.347168 783.912659,763.883545 
	C776.281555,746.120422 768.531982,728.408203 760.905212,710.643188 
	C751.194763,688.024536 741.590210,665.360352 731.874329,642.744019 
	C723.199707,622.551392 714.396729,602.414001 705.721680,582.221558 
	C696.070435,559.757202 686.533691,537.243774 676.883911,514.778809 
	C668.407166,495.044525 659.804871,475.364227 651.327515,455.630219 
	C641.479980,432.706299 631.740356,409.736023 621.893921,386.811615 
	C613.417664,367.077118 604.845093,347.384003 596.337280,327.662994 
	C587.895142,308.094269 579.471741,288.517426 571.063049,268.934296 
	C569.684937,265.724701 573.583130,261.206299 577.999207,261.056580 
	C582.327026,260.909851 586.663635,261.019287 590.996399,261.019226 
	C618.659424,261.018677 646.326111,261.263184 673.983093,260.854370 
	C681.277405,260.746521 685.297241,264.193237 687.823120,269.906830 
	C693.766235,283.349854 699.255371,296.993164 704.963074,310.540771 
	C712.722473,328.958282 720.499207,347.368530 728.296692,365.769989 
	C736.159546,384.325958 744.073914,402.860138 751.934631,421.417023 
	C760.566406,441.794037 769.179626,462.178986 777.769836,482.573578 
	C787.195190,504.950745 796.550537,527.357483 806.000977,549.723999 
	C813.843811,568.285645 821.798035,586.800171 829.670593,605.349365 
	C838.449341,626.033752 847.183899,646.737000 855.962585,667.421509 
	C856.769714,669.323303 857.756836,671.148743 859.344116,674.417786 
	C862.253235,667.774170 864.644226,662.454102 866.922485,657.086243 
	C875.892639,635.951965 884.852234,614.813232 893.767639,593.655823 
	C902.233093,573.566101 910.612244,553.439941 919.078247,533.350464 
	C926.841125,514.929382 934.684448,496.542145 942.464539,478.128296 
	C951.013184,457.895447 959.519409,437.644775 968.063782,417.410156 
	C975.839783,398.995117 983.650330,380.594666 991.430481,362.181366 
	C999.979492,341.948486 1008.517029,321.710693 1017.048157,301.470245 
	C1021.795776,290.206268 1026.194214,278.777679 1031.433350,267.747864 
	C1033.245728,263.932220 1036.504883,260.852081 1042.031982,260.897034 
	C1073.359131,261.151794 1104.689453,260.999329 1136.018555,261.072510 
	C1137.906494,261.076904 1140.154053,261.319885 1141.605713,262.343323 
	C1144.807739,264.600739 1146.510864,266.940735 1144.297974,271.771606 
	C1136.045410,289.788300 1128.582886,308.166260 1120.782959,326.391174 
	C1112.788330,345.071442 1104.796021,363.753021 1096.710205,382.393951 
	C1088.620483,401.043518 1080.413574,419.642212 1072.265869,438.266663 
	C1071.139771,440.840759 1070.058838,443.434601 1068.798218,446.370667 
M877.008606,656.131714 
	C871.551453,667.825195 868.701233,680.843628 859.089966,692.052551 
	C856.041260,687.228638 853.004761,683.479004 851.104004,679.222168 
	C844.976135,665.498108 839.264893,651.587891 833.396240,637.748108 
	C824.622375,617.057129 815.824951,596.376160 807.086182,575.670349 
	C797.644043,553.297974 788.269348,530.897217 778.843750,508.517822 
	C770.250854,488.115479 761.637146,467.721863 753.017883,447.330597 
	C745.234558,428.916779 737.434448,410.510040 729.636047,392.102570 
	C721.772888,373.542450 713.886414,354.992218 706.039978,336.425079 
	C696.848328,314.674561 687.688721,292.910461 678.583862,271.315094 
	C646.594666,271.315094 614.983398,271.315094 582.069519,271.315094 
	C673.845459,485.017548 765.292480,697.954224 856.739563,910.890869 
	C857.275391,910.832336 857.811279,910.773804 858.347168,910.715332 
	C950.330383,697.812073 1042.313721,484.908783 1134.518921,271.491791 
	C1132.328369,271.254272 1131.045410,270.994812 1129.762085,270.993713 
	C1101.096680,270.969086 1072.431030,271.023163 1043.766113,270.902618 
	C1040.478027,270.888794 1039.129761,272.313599 1037.982300,275.094482 
	C1032.120850,289.300507 1026.082031,303.433258 1020.120300,317.597992 
	C1012.366638,336.020081 1004.653381,354.459320 996.874390,372.870728 
	C988.321411,393.114136 979.690552,413.324615 971.135986,433.567352 
	C963.355591,451.978271 955.655945,470.423248 947.877441,488.834930 
	C939.324829,509.078827 930.715332,529.298645 922.144836,549.534973 
	C914.413086,567.790894 906.721008,586.063660 898.973389,604.312744 
	C891.741821,621.346558 884.460205,638.359070 877.008606,656.131714 
z"/>
<path fill="#E6DECC" opacity="1.000000" stroke="none" 
	d="
M516.633911,768.824890 
	C502.998444,788.020935 486.916809,804.594604 470.002502,820.257568 
	C445.665649,842.793762 417.932892,860.477356 387.672302,874.017883 
	C362.887085,885.108459 336.949768,892.802612 310.110016,896.734314 
	C295.756195,898.836914 281.119629,899.701904 266.597931,899.846069 
	C202.824463,900.479248 139.046371,900.651367 75.269867,900.973938 
	C66.875854,901.016418 64.022385,898.100586 64.022392,889.668091 
	C64.022606,683.863281 64.022552,478.058441 64.022415,272.253601 
	C64.022408,263.877991 66.895309,261.020294 75.348198,261.020020 
	C143.672073,261.017761 211.999252,260.633606 280.318115,261.217743 
	C305.732300,261.434998 330.831085,265.537659 355.331604,272.937469 
	C374.080109,278.600067 392.212280,285.670349 409.457397,294.877533 
	C427.854309,304.699707 445.549805,315.705261 461.099121,329.730927 
	C472.806854,340.291504 484.648834,350.793579 495.450562,362.246460 
	C510.661621,378.374512 523.543945,396.372223 534.834534,415.521912 
	C546.825684,435.859772 556.242981,457.285187 563.276245,479.779053 
	C568.837097,497.563629 573.445984,515.597900 574.945129,534.227661 
	C576.245483,550.386597 577.937622,566.601746 577.747131,582.771851 
	C577.478760,605.542969 574.747375,628.166260 569.715881,650.478882 
	C563.989624,675.872314 555.769165,700.441833 543.899902,723.529724 
	C535.913086,739.065674 525.961670,753.591614 516.633911,768.824890 
M88.497391,270.969086 
	C86.497536,270.969299 84.497276,270.943695 82.497887,270.974182 
	C72.797043,271.121979 73.991219,269.788971 73.988960,279.482330 
	C73.959465,406.122894 73.969284,532.763428 73.969398,659.403992 
	C73.969467,734.555176 74.008003,809.706421 73.877121,884.857361 
	C73.869095,889.464294 74.810349,891.176025 79.839600,891.135803 
	C141.944641,890.638062 204.052170,890.450562 266.157196,889.950867 
	C277.229645,889.861877 288.307465,888.892517 299.358459,888.020813 
	C320.504822,886.352966 340.928162,881.070923 360.967255,874.476135 
	C380.174683,868.155090 398.456299,859.610046 416.045471,849.570679 
	C436.528046,837.879761 455.575500,824.193298 472.492157,807.816528 
	C481.988434,798.623169 490.562988,788.432800 499.123352,778.327820 
	C513.195190,761.716980 524.402710,743.143921 534.035889,723.720276 
	C545.646973,700.308594 554.249329,675.742310 559.933777,650.182312 
	C564.825195,628.188049 567.558594,605.871887 567.800049,583.423340 
	C567.977600,566.916931 566.310303,550.367676 564.999146,533.874512 
	C563.531128,515.407776 558.993713,497.513184 553.468933,479.893402 
	C546.371094,457.256714 536.891235,435.670227 524.758301,415.226532 
	C512.986145,395.390656 499.579865,376.762817 483.547058,360.221466 
	C474.811584,351.208954 465.184875,342.988159 455.459717,335.021149 
	C430.154327,314.290527 401.755341,298.932709 371.023712,287.861542 
	C338.532928,276.156616 304.912628,271.005707 270.460907,270.981232 
	C210.140030,270.938416 149.819122,270.968933 88.497391,270.969086 
z"/>
<path fill="#E6DECC" opacity="1.000000" stroke="none" 
	d="
M1579.440430,318.781921 
	C1597.668335,331.746918 1613.498413,346.927216 1628.300049,363.052612 
	C1649.316040,385.948364 1666.600464,411.581543 1679.771973,439.773071 
	C1691.825806,465.572784 1700.876709,492.429840 1704.971191,520.723267 
	C1706.717041,532.787537 1707.900879,544.947388 1708.908325,557.099609 
	C1709.634033,565.851318 1710.208008,574.684265 1709.865356,583.442444 
	C1708.987427,605.880920 1706.719482,628.181580 1701.796875,650.165894 
	C1696.073486,675.726196 1687.541382,700.323242 1675.929077,723.743103 
	C1666.300171,743.163025 1655.265625,761.889099 1640.984619,778.309998 
	C1628.582275,792.570923 1615.961548,806.747742 1602.331299,819.807373 
	C1585.962769,835.490540 1567.418335,848.544983 1547.617920,859.736877 
	C1530.425049,869.454712 1512.607178,877.804932 1493.872925,884.011169 
	C1473.365234,890.804810 1452.490601,896.242432 1430.848145,897.969055 
	C1420.131348,898.824097 1409.389893,899.813904 1398.652954,899.897522 
	C1334.710327,900.395935 1270.765869,900.652222 1206.822021,900.975037 
	C1199.146484,901.013794 1196.022461,897.866882 1196.022461,890.222107 
	C1196.021240,684.082581 1196.021362,477.943024 1196.022461,271.803497 
	C1196.022461,264.151215 1199.148804,261.019989 1206.796509,261.019745 
	C1275.454102,261.017700 1344.115234,260.622864 1412.767578,261.225708 
	C1438.009644,261.447357 1463.193359,264.823730 1487.203857,273.165955 
	C1505.107666,279.386444 1522.970093,286.109802 1539.981201,294.395081 
	C1553.705322,301.079437 1566.129517,310.432526 1579.440430,318.781921 
M1444.933838,886.223145 
	C1461.064087,882.280518 1477.410400,879.046936 1493.269287,874.213806 
	C1512.613647,868.318542 1530.767578,859.402222 1548.366089,849.374268 
	C1568.425903,837.943665 1587.056396,824.518005 1603.689819,808.593750 
	C1613.594971,799.111084 1622.530884,788.556885 1631.381470,778.045532 
	C1645.397583,761.399353 1656.618164,742.827515 1666.200928,723.372864 
	C1677.600586,700.229858 1686.110352,675.993652 1691.781250,650.758240 
	C1696.686523,628.929199 1699.444336,606.792358 1699.781860,584.527832 
	C1700.039551,567.527100 1699.123047,550.340698 1696.758667,533.513672 
	C1694.226929,515.495789 1690.260620,497.556946 1685.338379,480.027863 
	C1678.930542,457.208679 1668.950073,435.749329 1656.800659,415.311005 
	C1644.842773,395.195190 1631.163330,376.388519 1614.938232,359.545380 
	C1608.170776,352.520081 1600.627319,346.227966 1593.291504,339.767242 
	C1576.439941,324.926147 1557.822021,312.524445 1537.580933,303.016663 
	C1521.344238,295.389893 1504.472290,288.950928 1487.498901,283.096252 
	C1463.458862,274.804047 1438.279785,271.411530 1413.031128,271.178101 
	C1346.379883,270.561981 1279.718994,270.968597 1213.062012,270.970856 
	C1205.982178,270.971100 1205.971313,270.979797 1205.971191,277.915588 
	C1205.969116,479.886383 1205.969238,681.857178 1205.970703,883.827942 
	C1205.970825,891.022888 1205.979126,891.061401 1213.305420,891.024597 
	C1277.581787,890.701721 1341.859863,890.540588 1406.132812,889.879700 
	C1418.795898,889.749512 1431.438843,887.675537 1444.933838,886.223145 
z"/>
<path fill="#4A3729" opacity="1.000000" stroke="none" 
	d="
M877.104614,655.756348 
	C884.460205,638.359070 891.741821,621.346558 898.973389,604.312744 
	C906.721008,586.063660 914.413086,567.790894 922.144836,549.534973 
	C930.715332,529.298645 939.324829,509.078827 947.877441,488.834930 
	C955.655945,470.423248 963.355591,451.978271 971.135986,433.567352 
	C979.690552,413.324615 988.321411,393.114136 996.874390,372.870728 
	C1004.653381,354.459320 1012.366638,336.020081 1020.120300,317.597992 
	C1026.082031,303.433258 1032.120850,289.300507 1037.982300,275.094482 
	C1039.129761,272.313599 1040.478027,270.888794 1043.766113,270.902618 
	C1072.431030,271.023163 1101.096680,270.969086 1129.762085,270.993713 
	C1131.045410,270.994812 1132.328369,271.254272 1134.518921,271.491791 
	C1042.313721,484.908783 950.330383,697.812073 858.347168,910.715332 
	C857.811279,910.773804 857.275391,910.832336 856.739563,910.890869 
	C765.292480,697.954224 673.845459,485.017548 582.069519,271.315094 
	C614.983398,271.315094 646.594666,271.315094 678.583862,271.315094 
	C687.688721,292.910461 696.848328,314.674561 706.039978,336.425079 
	C713.886414,354.992218 721.772888,373.542450 729.636047,392.102570 
	C737.434448,410.510040 745.234558,428.916779 753.017883,447.330597 
	C761.637146,467.721863 770.250854,488.115479 778.843750,508.517822 
	C788.269348,530.897217 797.644043,553.297974 807.086182,575.670349 
	C815.824951,596.376160 824.622375,617.057129 833.396240,637.748108 
	C839.264893,651.587891 844.976135,665.498108 851.104004,679.222168 
	C853.004761,683.479004 856.041260,687.228638 859.089966,692.052551 
	C868.701233,680.843628 871.551453,667.825195 877.104614,655.756348 
z"/>
<path fill="#4A3729" opacity="1.000000" stroke="none" 
	d="
M88.997803,270.968903 
	C149.819122,270.968933 210.140030,270.938416 270.460907,270.981232 
	C304.912628,271.005707 338.532928,276.156616 371.023712,287.861542 
	C401.755341,298.932709 430.154327,314.290527 455.459717,335.021149 
	C465.184875,342.988159 474.811584,351.208954 483.547058,360.221466 
	C499.579865,376.762817 512.986145,395.390656 524.758301,415.226532 
	C536.891235,435.670227 546.371094,457.256714 553.468933,479.893402 
	C558.993713,497.513184 563.531128,515.407776 564.999146,533.874512 
	C566.310303,550.367676 567.977600,566.916931 567.800049,583.423340 
	C567.558594,605.871887 564.825195,628.188049 559.933777,650.182312 
	C554.249329,675.742310 545.646973,700.308594 534.035889,723.720276 
	C524.402710,743.143921 513.195190,761.716980 499.123352,778.327820 
	C490.562988,788.432800 481.988434,798.623169 472.492157,807.816528 
	C455.575500,824.193298 436.528046,837.879761 416.045471,849.570679 
	C398.456299,859.610046 380.174683,868.155090 360.967255,874.476135 
	C340.928162,881.070923 320.504822,886.352966 299.358459,888.020813 
	C288.307465,888.892517 277.229645,889.861877 266.157196,889.950867 
	C204.052170,890.450562 141.944641,890.638062 79.839600,891.135803 
	C74.810349,891.176025 73.869095,889.464294 73.877121,884.857361 
	C74.008003,809.706421 73.969467,734.555176 73.969398,659.403992 
	C73.969284,532.763428 73.959465,406.122894 73.988960,279.482330 
	C73.991219,269.788971 72.797043,271.121979 82.497887,270.974182 
	C84.497276,270.943695 86.497536,270.969299 88.997803,270.968903 
M329.290192,359.803925 
	C304.253357,350.506134 278.144348,346.832886 251.670853,346.201935 
	C225.025711,345.566864 198.353622,346.060181 171.693344,346.062866 
	C164.257568,346.063599 161.061340,349.180878 161.061188,356.462372 
	C161.057968,505.926544 161.057495,655.390747 161.061447,804.854919 
	C161.061615,811.568054 164.381699,814.932129 171.011993,814.934509 
	C197.505646,814.944031 224.004593,815.250793 250.490646,814.802124 
	C263.178955,814.587097 275.927185,813.536438 288.498016,811.785645 
	C307.197998,809.181152 325.144897,803.513672 342.362946,795.733521 
	C372.462860,782.132690 397.757965,762.251282 419.276459,737.258362 
	C434.656128,719.395447 446.824066,699.652954 455.912201,677.976318 
	C467.119415,651.245300 473.163696,623.222839 474.741272,594.414368 
	C475.773010,575.574036 475.149170,556.668762 472.058960,537.879028 
	C468.287598,514.947754 462.201385,492.792328 452.227448,471.789825 
	C444.604553,455.738068 435.177948,440.866577 423.777618,427.121490 
	C413.137421,414.292908 401.464661,402.621216 388.424011,392.363525 
	C370.741821,378.454834 351.240662,367.677551 329.290192,359.803925 
z"/>
<path fill="#4A3729" opacity="1.000000" stroke="none" 
	d="
M1444.512451,886.360535 
	C1431.438843,887.675537 1418.795898,889.749512 1406.132812,889.879700 
	C1341.859863,890.540588 1277.581787,890.701721 1213.305420,891.024597 
	C1205.979126,891.061401 1205.970825,891.022888 1205.970703,883.827942 
	C1205.969238,681.857178 1205.969116,479.886383 1205.971191,277.915588 
	C1205.971313,270.979797 1205.982178,270.971100 1213.062012,270.970856 
	C1279.718994,270.968597 1346.379883,270.561981 1413.031128,271.178101 
	C1438.279785,271.411530 1463.458862,274.804047 1487.498901,283.096252 
	C1504.472290,288.950928 1521.344238,295.389893 1537.580933,303.016663 
	C1557.822021,312.524445 1576.439941,324.926147 1593.291504,339.767242 
	C1600.627319,346.227966 1608.170776,352.520081 1614.938232,359.545380 
	C1631.163330,376.388519 1644.842773,395.195190 1656.800659,415.311005 
	C1668.950073,435.749329 1678.930542,457.208679 1685.338379,480.027863 
	C1690.260620,497.556946 1694.226929,515.495789 1696.758667,533.513672 
	C1699.123047,550.340698 1700.039551,567.527100 1699.781860,584.527832 
	C1699.444336,606.792358 1696.686523,628.929199 1691.781250,650.758240 
	C1686.110352,675.993652 1677.600586,700.229858 1666.200928,723.372864 
	C1656.618164,742.827515 1645.397583,761.399353 1631.381470,778.045532 
	C1622.530884,788.556885 1613.594971,799.111084 1603.689819,808.593750 
	C1587.056396,824.518005 1568.425903,837.943665 1548.366089,849.374268 
	C1530.767578,859.402222 1512.613647,868.318542 1493.269287,874.213806 
	C1477.410400,879.046936 1461.064087,882.280518 1444.512451,886.360535 
M1398.124512,814.934204 
	C1399.907593,814.607849 1401.678101,814.120850 1403.475708,813.979797 
	C1423.149292,812.436035 1442.114014,807.941040 1460.651978,801.166748 
	C1496.527466,788.056885 1526.133789,766.295349 1551.010376,737.542786 
	C1566.546875,719.585449 1578.794067,699.712280 1587.953491,677.886292 
	C1599.170044,651.158142 1605.128906,623.128784 1606.785156,594.329163 
	C1608.118530,571.147400 1606.729858,547.968994 1601.900635,525.146912 
	C1596.492310,499.587738 1587.764160,475.244751 1574.168335,452.842804 
	C1560.657593,430.581085 1543.619507,411.387512 1523.423340,394.890472 
	C1504.101196,379.107300 1482.640381,367.328766 1459.191650,359.029999 
	C1434.034424,350.126495 1407.918823,346.632080 1381.421021,346.157043 
	C1355.603760,345.694244 1329.771606,346.054718 1303.946045,346.055908 
	C1296.127441,346.056244 1293.051636,349.052765 1293.051514,356.701202 
	C1293.049072,505.989929 1293.048706,655.278625 1293.051636,804.567383 
	C1293.051758,811.797058 1296.292847,814.942749 1303.714355,814.943115 
	C1334.871704,814.944885 1366.029053,814.942078 1398.124512,814.934204 
z"/>
<path fill="#EAE3D0" opacity="1.000000" stroke="none" 
	d="
M329.656708,359.944580 
	C351.240662,367.677551 370.741821,378.454834 388.424011,392.363525 
	C401.464661,402.621216 413.137421,414.292908 423.777618,427.121490 
	C435.177948,440.866577 444.604553,455.738068 452.227448,471.789825 
	C462.201385,492.792328 468.287598,514.947754 472.058960,537.879028 
	C475.149170,556.668762 475.773010,575.574036 474.741272,594.414368 
	C473.163696,623.222839 467.119415,651.245300 455.912201,677.976318 
	C446.824066,699.652954 434.656128,719.395447 419.276459,737.258362 
	C397.757965,762.251282 372.462860,782.132690 342.362946,795.733521 
	C325.144897,803.513672 307.197998,809.181152 288.498016,811.785645 
	C275.927185,813.536438 263.178955,814.587097 250.490646,814.802124 
	C224.004593,815.250793 197.505646,814.944031 171.011993,814.934509 
	C164.381699,814.932129 161.061615,811.568054 161.061447,804.854919 
	C161.057495,655.390747 161.057968,505.926544 161.061188,356.462372 
	C161.061340,349.180878 164.257568,346.063599 171.693344,346.062866 
	C198.353622,346.060181 225.025711,345.566864 251.670853,346.201935 
	C278.144348,346.832886 304.253357,350.506134 329.656708,359.944580 
M170.936752,735.498779 
	C170.937347,756.660767 171.076065,777.824280 170.832474,798.983459 
	C170.777878,803.725159 171.982910,805.211609 176.895355,805.169983 
	C204.720215,804.934387 232.549545,805.212036 260.374054,804.956421 
	C268.611572,804.880798 276.945465,804.248901 285.048523,802.816284 
	C303.396057,799.572388 321.346558,794.937805 338.590149,787.467102 
	C360.851868,777.822266 381.070007,765.144714 398.758636,748.665894 
	C413.761353,734.689331 425.525024,718.029785 435.444489,700.149597 
	C453.552673,667.508850 462.679718,632.143250 464.785828,595.147949 
	C465.714355,578.838013 464.205627,562.329834 462.988281,545.972351 
	C461.487854,525.810425 456.348511,506.368134 449.069244,487.527466 
	C437.966888,458.791626 422.637115,432.626587 399.356140,412.097107 
	C388.014496,402.095917 375.745392,392.784790 362.756165,385.084229 
	C329.158081,365.165985 292.004578,357.065247 253.314194,356.064453 
	C227.837173,355.405426 202.327957,356.076233 176.836380,355.824371 
	C171.843445,355.775085 170.823730,357.424988 170.842026,362.074127 
	C171.007797,404.230286 170.937881,446.387421 170.937057,488.544250 
	C170.936844,499.381958 170.937241,499.380920 181.810364,501.399261 
	C182.134735,501.459473 182.439514,501.620270 182.762772,501.692108 
	C204.123413,506.437683 222.038620,516.724670 236.094162,533.790161 
	C252.737991,553.998230 260.398163,576.727173 256.736176,602.871704 
	C252.327637,634.346008 235.179642,656.940979 207.850983,672.294189 
	C197.761337,677.962585 186.769623,680.924133 175.374832,682.376770 
	C171.711716,682.843750 170.849182,684.609497 170.879623,688.010132 
	C171.018372,703.505249 170.938004,719.002319 170.936752,735.498779 
M212.557724,571.915588 
	C213.901993,577.503784 216.052765,583.034912 216.452408,588.689880 
	C218.284515,614.614807 197.595001,637.242126 175.276779,640.769226 
	C173.634277,641.028748 171.154755,643.508972 171.094223,645.037231 
	C170.712067,654.683533 170.778275,664.356384 171.074265,674.008850 
	C171.108704,675.132080 173.496979,677.133667 174.735626,677.089539 
	C178.317856,676.961914 181.912033,676.172791 185.427551,675.333618 
	C206.729523,670.248169 224.931610,659.851196 237.070312,641.376587 
	C251.704605,619.103943 256.643494,594.547363 249.262222,568.455322 
	C243.425354,547.822693 232.334900,530.834290 213.564804,519.285461 
	C201.643570,511.950562 188.788391,507.882202 175.136597,505.763702 
	C172.099274,505.292358 170.845505,506.533325 170.867615,509.577942 
	C170.935349,518.905823 170.702850,528.242126 171.071960,537.555847 
	C171.137177,539.201355 173.326843,541.890320 174.887466,542.176270 
	C192.458328,545.396118 204.104294,555.998047 212.557724,571.915588 
z"/>
<path fill="#EAE2CF" opacity="1.000000" stroke="none" 
	d="
M1397.655518,814.937561 
	C1366.029053,814.942078 1334.871704,814.944885 1303.714355,814.943115 
	C1296.292847,814.942749 1293.051758,811.797058 1293.051636,804.567383 
	C1293.048706,655.278625 1293.049072,505.989929 1293.051514,356.701202 
	C1293.051636,349.052765 1296.127441,346.056244 1303.946045,346.055908 
	C1329.771606,346.054718 1355.603760,345.694244 1381.421021,346.157043 
	C1407.918823,346.632080 1434.034424,350.126495 1459.191650,359.029999 
	C1482.640381,367.328766 1504.101196,379.107300 1523.423340,394.890472 
	C1543.619507,411.387512 1560.657593,430.581085 1574.168335,452.842804 
	C1587.764160,475.244751 1596.492310,499.587738 1601.900635,525.146912 
	C1606.729858,547.968994 1608.118530,571.147400 1606.785156,594.329163 
	C1605.128906,623.128784 1599.170044,651.158142 1587.953491,677.886292 
	C1578.794067,699.712280 1566.546875,719.585449 1551.010376,737.542786 
	C1526.133789,766.295349 1496.527466,788.056885 1460.651978,801.166748 
	C1442.114014,807.941040 1423.149292,812.436035 1403.475708,813.979797 
	C1401.678101,814.120850 1399.907593,814.607849 1397.655518,814.937561 
M1545.618774,426.967987 
	C1540.774902,421.817993 1536.463135,415.995453 1530.978027,411.656097 
	C1519.083862,402.246521 1507.212891,392.543793 1494.218506,384.839935 
	C1461.057983,365.180389 1424.369507,357.178345 1386.211182,356.090393 
	C1360.068115,355.345032 1333.886108,356.010986 1307.722534,355.880127 
	C1304.023193,355.861633 1302.872925,356.993134 1302.881714,360.709778 
	C1302.988403,405.538940 1302.966797,450.368500 1302.914551,495.197845 
	C1302.910889,498.285553 1303.422241,500.287903 1307.156372,500.400024 
	C1310.093506,500.488220 1313.035889,501.164856 1315.930176,501.791077 
	C1337.353638,506.426300 1355.194824,516.867615 1369.234497,533.930542 
	C1387.765503,556.452148 1394.883179,581.879639 1388.560547,610.394592 
	C1382.917603,635.843994 1368.323486,655.251465 1346.253052,669.173401 
	C1334.534546,676.565430 1321.763062,680.753967 1308.159058,682.380920 
	C1303.742188,682.909058 1302.857178,684.740112 1302.871338,688.767578 
	C1303.000977,725.597290 1303.021118,762.427979 1302.851440,799.257324 
	C1302.830566,803.799561 1304.050171,805.185242 1308.688354,805.149719 
	C1336.017700,804.940186 1363.351196,805.212402 1390.679565,804.951477 
	C1399.419434,804.868042 1408.262573,804.312561 1416.859131,802.822998 
	C1435.217773,799.641846 1453.211670,795.092773 1470.406372,787.494080 
	C1497.554932,775.496643 1521.864624,759.762756 1541.494629,737.161560 
	C1556.953003,719.363525 1569.069946,699.574524 1578.102661,677.871155 
	C1589.960693,649.379272 1596.087524,619.605347 1596.945068,588.814331 
	C1597.254028,577.713989 1596.728271,566.556885 1595.951050,555.470032 
	C1595.307007,546.282227 1594.132324,537.087402 1592.489136,528.023193 
	C1589.154541,509.627655 1583.737305,491.792725 1575.870239,474.814880 
	C1567.983521,457.795044 1558.627686,441.630219 1545.618774,426.967987 
M1379.514404,560.230408 
	C1372.891846,543.176697 1362.609131,529.195312 1346.759033,519.405029 
	C1334.711182,511.963440 1321.689941,507.828033 1307.853760,505.749207 
	C1304.625610,505.264160 1302.793823,506.145844 1302.858032,509.904785 
	C1303.003052,518.397583 1303.108765,526.901794 1302.813477,535.386902 
	C1302.653809,539.973816 1304.325562,541.752014 1308.854614,542.501831 
	C1331.325195,546.221863 1349.364380,568.081848 1349.677612,590.906860 
	C1350.017578,615.669128 1329.734619,637.682312 1308.063599,640.665283 
	C1305.353394,641.038330 1302.845947,641.743591 1302.880249,645.417969 
	C1302.967163,654.745300 1302.962646,664.074402 1302.876099,673.401733 
	C1302.847290,676.504761 1304.279663,677.653809 1307.173706,677.304688 
	C1309.793091,676.988708 1312.449341,676.791443 1315.008911,676.196472 
	C1334.195435,671.736145 1351.428223,663.843384 1364.502686,648.388367 
	C1377.219482,633.356079 1383.835938,615.901489 1385.317261,596.477234 
	C1386.247192,584.283691 1384.089722,572.421631 1379.514404,560.230408 
z"/>
<path fill="#4A3729" opacity="1.000000" stroke="none" 
	d="
M170.936584,734.998779 
	C170.938004,719.002319 171.018372,703.505249 170.879623,688.010132 
	C170.849182,684.609497 171.711716,682.843750 175.374832,682.376770 
	C186.769623,680.924133 197.761337,677.962585 207.850983,672.294189 
	C235.179642,656.940979 252.327637,634.346008 256.736176,602.871704 
	C260.398163,576.727173 252.737991,553.998230 236.094162,533.790161 
	C222.038620,516.724670 204.123413,506.437683 182.762772,501.692108 
	C182.439514,501.620270 182.134735,501.459473 181.810364,501.399261 
	C170.937241,499.380920 170.936844,499.381958 170.937057,488.544250 
	C170.937881,446.387421 171.007797,404.230286 170.842026,362.074127 
	C170.823730,357.424988 171.843445,355.775085 176.836380,355.824371 
	C202.327957,356.076233 227.837173,355.405426 253.314194,356.064453 
	C292.004578,357.065247 329.158081,365.165985 362.756165,385.084229 
	C375.745392,392.784790 388.014496,402.095917 399.356140,412.097107 
	C422.637115,432.626587 437.966888,458.791626 449.069244,487.527466 
	C456.348511,506.368134 461.487854,525.810425 462.988281,545.972351 
	C464.205627,562.329834 465.714355,578.838013 464.785828,595.147949 
	C462.679718,632.143250 453.552673,667.508850 435.444489,700.149597 
	C425.525024,718.029785 413.761353,734.689331 398.758636,748.665894 
	C381.070007,765.144714 360.851868,777.822266 338.590149,787.467102 
	C321.346558,794.937805 303.396057,799.572388 285.048523,802.816284 
	C276.945465,804.248901 268.611572,804.880798 260.374054,804.956421 
	C232.549545,805.212036 204.720215,804.934387 176.895355,805.169983 
	C171.982910,805.211609 170.777878,803.725159 170.832474,798.983459 
	C171.076065,777.824280 170.937347,756.660767 170.936584,734.998779 
z"/>
<path fill="#503D2F" opacity="1.000000" stroke="none" 
	d="
M212.395569,571.572205 
	C204.104294,555.998047 192.458328,545.396118 174.887466,542.176270 
	C173.326843,541.890320 171.137177,539.201355 171.071960,537.555847 
	C170.702850,528.242126 170.935349,518.905823 170.867615,509.577942 
	C170.845505,506.533325 172.099274,505.292358 175.136597,505.763702 
	C188.788391,507.882202 201.643570,511.950562 213.564804,519.285461 
	C232.334900,530.834290 243.425354,547.822693 249.262222,568.455322 
	C256.643494,594.547363 251.704605,619.103943 237.070312,641.376587 
	C224.931610,659.851196 206.729523,670.248169 185.427551,675.333618 
	C181.912033,676.172791 178.317856,676.961914 174.735626,677.089539 
	C173.496979,677.133667 171.108704,675.132080 171.074265,674.008850 
	C170.778275,664.356384 170.712067,654.683533 171.094223,645.037231 
	C171.154755,643.508972 173.634277,641.028748 175.276779,640.769226 
	C197.595001,637.242126 218.284515,614.614807 216.452408,588.689880 
	C216.052765,583.034912 213.901993,577.503784 212.395569,571.572205 
z"/>
<path fill="#4A3729" opacity="1.000000" stroke="none" 
	d="
M1545.854248,427.236298 
	C1558.627686,441.630219 1567.983521,457.795044 1575.870239,474.814880 
	C1583.737305,491.792725 1589.154541,509.627655 1592.489136,528.023193 
	C1594.132324,537.087402 1595.307007,546.282227 1595.951050,555.470032 
	C1596.728271,566.556885 1597.254028,577.713989 1596.945068,588.814331 
	C1596.087524,619.605347 1589.960693,649.379272 1578.102661,677.871155 
	C1569.069946,699.574524 1556.953003,719.363525 1541.494629,737.161560 
	C1521.864624,759.762756 1497.554932,775.496643 1470.406372,787.494080 
	C1453.211670,795.092773 1435.217773,799.641846 1416.859131,802.822998 
	C1408.262573,804.312561 1399.419434,804.868042 1390.679565,804.951477 
	C1363.351196,805.212402 1336.017700,804.940186 1308.688354,805.149719 
	C1304.050171,805.185242 1302.830566,803.799561 1302.851440,799.257324 
	C1303.021118,762.427979 1303.000977,725.597290 1302.871338,688.767578 
	C1302.857178,684.740112 1303.742188,682.909058 1308.159058,682.380920 
	C1321.763062,680.753967 1334.534546,676.565430 1346.253052,669.173401 
	C1368.323486,655.251465 1382.917603,635.843994 1388.560547,610.394592 
	C1394.883179,581.879639 1387.765503,556.452148 1369.234497,533.930542 
	C1355.194824,516.867615 1337.353638,506.426300 1315.930176,501.791077 
	C1313.035889,501.164856 1310.093506,500.488220 1307.156372,500.400024 
	C1303.422241,500.287903 1302.910889,498.285553 1302.914551,495.197845 
	C1302.966797,450.368500 1302.988403,405.538940 1302.881714,360.709778 
	C1302.872925,356.993134 1304.023193,355.861633 1307.722534,355.880127 
	C1333.886108,356.010986 1360.068115,355.345032 1386.211182,356.090393 
	C1424.369507,357.178345 1461.057983,365.180389 1494.218506,384.839935 
	C1507.212891,392.543793 1519.083862,402.246521 1530.978027,411.656097 
	C1536.463135,415.995453 1540.774902,421.817993 1545.854248,427.236298 
z"/>
<path fill="#4E3C2E" opacity="1.000000" stroke="none" 
	d="
M1379.669189,560.594055 
	C1384.089722,572.421631 1386.247192,584.283691 1385.317261,596.477234 
	C1383.835938,615.901489 1377.219482,633.356079 1364.502686,648.388367 
	C1351.428223,663.843384 1334.195435,671.736145 1315.008911,676.196472 
	C1312.449341,676.791443 1309.793091,676.988708 1307.173706,677.304688 
	C1304.279663,677.653809 1302.847290,676.504761 1302.876099,673.401733 
	C1302.962646,664.074402 1302.967163,654.745300 1302.880249,645.417969 
	C1302.845947,641.743591 1305.353394,641.038330 1308.063599,640.665283 
	C1329.734619,637.682312 1350.017578,615.669128 1349.677612,590.906860 
	C1349.364380,568.081848 1331.325195,546.221863 1308.854614,542.501831 
	C1304.325562,541.752014 1302.653809,539.973816 1302.813477,535.386902 
	C1303.108765,526.901794 1303.003052,518.397583 1302.858032,509.904785 
	C1302.793823,506.145844 1304.625610,505.264160 1307.853760,505.749207 
	C1321.689941,507.828033 1334.711182,511.963440 1346.759033,519.405029 
	C1362.609131,529.195312 1372.891846,543.176697 1379.669189,560.594055 
z"/>
</svg>