<svg version="1.1" id="Layer_1" xmlns="http://www.w3.org/2000/svg" xmlns:xlink="http://www.w3.org/1999/xlink" x="0px" y="0px"
	 width="100%" viewBox="0 0 1772 1181" enable-background="new 0 0 1772 1181" xml:space="preserve">
<path fill="#493628" opacity="1.000000" stroke="none" 
	d="
M1226.000000,1182.000000 
	C817.333435,1182.000000 409.166809,1182.000000 1.000164,1182.000000 
	C1.000110,788.333496 1.000110,394.666962 1.000055,1.000323 
	C591.666443,1.000215 1182.332886,1.000215 1772.999512,1.000108 
	C1772.999634,394.666351 1772.999634,788.332703 1772.999756,1181.999512 
	C1590.833374,1182.000000 1408.666626,1182.000000 1226.000000,1182.000000 
M1045.743042,491.574158 
	C1051.255127,478.959320 1056.809570,466.362793 1062.270996,453.726105 
	C1076.961792,419.734619 1091.601807,385.721161 1106.283569,351.725739 
	C1117.977783,324.647980 1129.708740,297.586151 1141.410767,270.511749 
	C1143.382080,265.950714 1142.461914,264.408112 1137.562256,264.402740 
	C1105.229492,264.367340 1072.896851,264.411896 1040.564209,264.342712 
	C1037.252563,264.335632 1035.531372,265.682495 1034.308838,268.719666 
	C1030.456177,278.290680 1026.365112,287.766144 1022.323120,297.260223 
	C1013.724609,317.457245 1005.038818,337.617371 996.500610,357.839783 
	C987.074036,380.165894 977.834900,402.571167 968.400269,424.893799 
	C957.877930,449.789886 947.175659,474.609863 936.646301,499.502960 
	C925.226929,526.500427 913.921448,553.546021 902.557739,580.567017 
	C890.050659,610.307068 877.551025,640.050232 865.001160,669.772156 
	C863.323547,673.745239 861.370422,677.601868 859.057983,682.555542 
	C853.659912,670.115601 848.703125,658.955872 843.958557,647.706665 
	C831.867859,619.040222 819.929077,590.309631 807.821899,561.650269 
	C796.282349,534.334717 784.545166,507.102753 773.006531,479.786865 
	C758.795959,446.145782 744.726868,412.444946 730.545654,378.791473 
	C722.976501,360.829193 715.264099,342.927307 707.681763,324.970551 
	C699.908997,306.562836 692.209656,288.124084 684.493408,269.692566 
	C682.930481,265.959259 680.525146,264.259186 676.134644,264.284424 
	C643.969666,264.469391 611.803101,264.383331 579.637085,264.386322 
	C578.471191,264.386444 576.886230,263.959961 576.235779,264.548828 
	C575.212341,265.475342 573.935242,267.440399 574.296997,268.369598 
	C577.208130,275.848236 580.439941,283.203796 583.646240,290.565430 
	C591.498840,308.594788 599.465576,326.574768 607.245789,344.635193 
	C615.929565,364.792847 624.409546,385.038177 633.069458,405.206177 
	C639.729553,420.716675 646.581726,436.144653 653.255981,451.649139 
	C660.962402,469.551544 668.579346,487.492554 676.212769,505.426331 
	C682.628113,520.498474 688.979126,535.598022 695.417297,550.660339 
	C702.887878,568.137878 710.398193,585.598572 717.936890,603.046875 
	C724.696045,618.690918 731.571350,634.284851 738.297607,649.942932 
	C746.896973,669.961548 755.347473,690.044189 763.957153,710.058289 
	C771.663208,727.971741 779.556458,745.804626 787.259583,763.719238 
	C794.894958,781.476257 802.389465,799.293823 809.958069,817.079529 
	C816.435486,832.301025 822.916687,847.520935 829.420837,862.731079 
	C836.830200,880.058289 844.345825,897.340698 851.635315,914.718079 
	C853.430908,918.998657 856.875122,919.587219 860.095398,918.247864 
	C862.087463,917.419373 863.463928,914.379883 864.477234,912.054260 
	C869.054871,901.547852 873.299133,890.896484 877.860535,880.382751 
	C884.972229,863.990540 892.326172,847.703308 899.424805,831.305542 
	C907.363770,812.966553 915.080566,794.531494 922.991516,776.180237 
	C929.739563,760.526489 936.695984,744.962524 943.432129,729.303711 
	C951.264648,711.096436 958.867493,692.790222 966.736023,674.598694 
	C974.869934,655.793640 983.305786,637.119202 991.422852,618.307068 
	C1001.287537,595.444885 1010.898132,572.473022 1020.729126,549.596069 
	C1028.945923,530.475342 1037.321777,511.422974 1045.743042,491.574158 
M436.400116,314.158234 
	C427.533661,308.841400 418.864716,303.155060 409.758423,298.286835 
	C392.336548,288.973022 374.031189,281.806946 355.079468,276.075378 
	C330.958435,268.780457 306.251953,264.697906 281.257599,264.467865 
	C212.432831,263.834412 143.598419,264.248962 74.767830,264.250977 
	C67.259895,264.251221 67.253098,264.257202 67.253052,271.815948 
	C67.251831,477.974396 67.251801,684.132874 67.253166,890.291321 
	C67.253212,897.743958 67.260857,897.782471 74.875046,897.743958 
	C138.650497,897.421509 202.427368,897.241516 266.200012,896.625122 
	C279.870483,896.492920 293.554352,895.054688 307.180725,893.700989 
	C326.543488,891.777405 345.447723,887.053223 363.500793,880.173950 
	C381.409790,873.349609 398.828949,864.997681 415.841583,856.124390 
	C437.077576,845.048279 456.146515,830.569946 473.221619,813.800781 
	C484.659241,802.568237 495.336792,790.510193 505.779846,778.328857 
	C519.964355,761.783264 531.084412,743.106995 540.736267,723.659607 
	C552.370239,700.218567 560.949219,675.609802 566.661499,650.031250 
	C571.596069,627.935242 574.303833,605.503784 574.526611,582.942688 
	C574.687744,566.622925 573.023376,550.262024 571.707642,533.956970 
	C570.209534,515.391357 565.603882,497.421204 560.052246,479.697449 
	C553.003418,457.193878 543.584900,435.751068 531.547180,415.432007 
	C519.507263,395.109192 505.641663,376.176819 489.287384,359.144531 
	C482.280426,351.847107 475.020721,344.716217 467.281799,338.217010 
	C457.482056,329.987183 447.077087,322.477936 436.400116,314.158234 
M1527.466675,291.106415 
	C1513.936279,286.121613 1500.513306,280.817566 1486.851685,276.222748 
	C1463.117798,268.240356 1438.401611,264.714752 1413.582764,264.478363 
	C1344.593140,263.821167 1275.593262,264.249329 1206.597412,264.251678 
	C1199.319092,264.251923 1199.246948,264.322845 1199.246826,271.487335 
	C1199.245239,477.808319 1199.245361,684.129333 1199.246704,890.450317 
	C1199.246826,897.680786 1199.311890,897.779602 1206.535034,897.743347 
	C1270.476318,897.422363 1334.418213,897.169556 1398.358276,896.672058 
	C1409.249390,896.587341 1420.144043,895.585632 1431.016357,894.741150 
	C1451.425659,893.155823 1471.114136,888.059143 1490.532104,881.879639 
	C1510.654297,875.476135 1529.714355,866.647156 1548.065918,856.219055 
	C1568.755005,844.462646 1588.002563,830.671814 1604.972290,814.040588 
	C1616.539917,802.703674 1627.351807,790.538696 1637.883423,778.215637 
	C1652.037720,761.653625 1663.154541,742.980042 1672.794434,723.521179 
	C1684.339111,700.217468 1692.845459,675.768494 1698.580444,650.365356 
	C1703.456421,628.767639 1706.171387,606.833496 1706.502808,584.790344 
	C1706.758179,567.811829 1705.778320,550.660950 1703.485962,533.840454 
	C1701.126465,516.527771 1697.319458,499.297180 1692.625732,482.454346 
	C1688.899536,469.083832 1683.675781,455.971191 1677.672485,443.435852 
	C1670.458496,428.372437 1662.459717,413.560059 1653.401978,399.542816 
	C1645.765869,387.725342 1636.283447,377.074646 1627.342773,366.132721 
	C1614.709717,350.671936 1599.787842,337.537048 1584.075928,325.353943 
	C1566.756470,311.924438 1547.932861,300.845581 1527.466675,291.106415 
z"/>
<path fill="#E3DAC9" opacity="1.000000" stroke="none" 
	d="
M1045.685059,491.957214 
	C1037.321777,511.422974 1028.945923,530.475342 1020.729126,549.596069 
	C1010.898132,572.473022 1001.287537,595.444885 991.422852,618.307068 
	C983.305786,637.119202 974.869934,655.793640 966.736023,674.598694 
	C958.867493,692.790222 951.264648,711.096436 943.432129,729.303711 
	C936.695984,744.962524 929.739563,760.526489 922.991516,776.180237 
	C915.080566,794.531494 907.363770,812.966553 899.424805,831.305542 
	C892.326172,847.703308 884.972229,863.990540 877.860535,880.382751 
	C873.299133,890.896484 869.054871,901.547852 864.477234,912.054260 
	C863.463928,914.379883 862.087463,917.419373 860.095398,918.247864 
	C856.875122,919.587219 853.430908,918.998657 851.635315,914.718079 
	C844.345825,897.340698 836.830200,880.058289 829.420837,862.731079 
	C822.916687,847.520935 816.435486,832.301025 809.958069,817.079529 
	C802.389465,799.293823 794.894958,781.476257 787.259583,763.719238 
	C779.556458,745.804626 771.663208,727.971741 763.957153,710.058289 
	C755.347473,690.044189 746.896973,669.961548 738.297607,649.942932 
	C731.571350,634.284851 724.696045,618.690918 717.936890,603.046875 
	C710.398193,585.598572 702.887878,568.137878 695.417297,550.660339 
	C688.979126,535.598022 682.628113,520.498474 676.212769,505.426331 
	C668.579346,487.492554 660.962402,469.551544 653.255981,451.649139 
	C646.581726,436.144653 639.729553,420.716675 633.069458,405.206177 
	C624.409546,385.038177 615.929565,364.792847 607.245789,344.635193 
	C599.465576,326.574768 591.498840,308.594788 583.646240,290.565430 
	C580.439941,283.203796 577.208130,275.848236 574.296997,268.369598 
	C573.935242,267.440399 575.212341,265.475342 576.235779,264.548828 
	C576.886230,263.959961 578.471191,264.386444 579.637085,264.386322 
	C611.803101,264.383331 643.969666,264.469391 676.134644,264.284424 
	C680.525146,264.259186 682.930481,265.959259 684.493408,269.692566 
	C692.209656,288.124084 699.908997,306.562836 707.681763,324.970551 
	C715.264099,342.927307 722.976501,360.829193 730.545654,378.791473 
	C744.726868,412.444946 758.795959,446.145782 773.006531,479.786865 
	C784.545166,507.102753 796.282349,534.334717 807.821899,561.650269 
	C819.929077,590.309631 831.867859,619.040222 843.958557,647.706665 
	C848.703125,658.955872 853.659912,670.115601 859.057983,682.555542 
	C861.370422,677.601868 863.323547,673.745239 865.001160,669.772156 
	C877.551025,640.050232 890.050659,610.307068 902.557739,580.567017 
	C913.921448,553.546021 925.226929,526.500427 936.646301,499.502960 
	C947.175659,474.609863 957.877930,449.789886 968.400269,424.893799 
	C977.834900,402.571167 987.074036,380.165894 996.500610,357.839783 
	C1005.038818,337.617371 1013.724609,317.457245 1022.323120,297.260223 
	C1026.365112,287.766144 1030.456177,278.290680 1034.308838,268.719666 
	C1035.531372,265.682495 1037.252563,264.335632 1040.564209,264.342712 
	C1072.896851,264.411896 1105.229492,264.367340 1137.562256,264.402740 
	C1142.461914,264.408112 1143.382080,265.950714 1141.410767,270.511749 
	C1129.708740,297.586151 1117.977783,324.647980 1106.283569,351.725739 
	C1091.601807,385.721161 1076.961792,419.734619 1062.270996,453.726105 
	C1056.809570,466.362793 1051.255127,478.959320 1045.685059,491.957214 
M634.738770,402.427734 
	C641.868103,418.635803 649.118103,434.792053 656.101624,451.062683 
	C670.575073,484.783447 684.872925,518.579468 699.307434,552.317017 
	C711.553467,580.939514 723.880127,609.527466 736.189392,638.122925 
	C749.795654,669.731506 763.453979,701.317810 777.032227,732.938416 
	C791.835754,767.412476 806.581970,801.911072 821.336853,836.405884 
	C832.163452,861.716980 842.931091,887.053467 853.868713,912.316406 
	C854.439026,913.633728 856.390564,915.192810 857.638000,915.142029 
	C858.895813,915.090820 860.603333,913.404968 861.211426,912.034790 
	C867.327148,898.254150 873.253479,884.389587 879.239868,870.551575 
	C886.918701,852.801025 894.636169,835.067078 902.278076,817.300598 
	C912.443665,793.667175 922.504456,769.988586 932.700439,746.368225 
	C941.469055,726.054565 950.393250,705.808105 959.195312,685.508850 
	C968.581665,663.862183 977.900635,642.186340 987.257874,620.527100 
	C994.928040,602.772766 1002.635010,585.034180 1010.282776,567.270264 
	C1019.484253,545.897339 1028.609863,524.491760 1037.826904,503.125671 
	C1043.604370,489.733093 1049.533691,476.406128 1055.315918,463.015686 
	C1063.241089,444.663086 1071.058716,426.264099 1078.983032,407.911133 
	C1086.713623,390.006714 1094.557373,372.151123 1102.284180,354.245117 
	C1111.504150,332.879059 1120.658081,311.484558 1129.829346,290.097595 
	C1132.957397,282.803070 1136.051636,275.494049 1139.197388,268.106964 
	C1138.204712,267.842957 1137.885132,267.683685 1137.565308,267.683380 
	C1105.401489,267.651886 1073.237549,267.592926 1041.074463,267.741516 
	C1039.630493,267.748169 1037.468994,269.326843 1036.867432,270.707336 
	C1030.453979,285.425873 1024.321777,300.266541 1018.048157,315.046448 
	C1003.773621,348.675720 989.424011,382.273102 975.178284,415.914551 
	C961.000854,449.394928 946.903259,482.909088 932.790405,516.416687 
	C925.605164,533.476318 918.497009,550.568359 911.291809,567.619446 
	C903.768250,585.424133 896.129639,603.180237 888.616272,620.989136 
	C881.869141,636.981934 875.271973,653.038025 868.509277,669.024109 
	C865.867188,675.269409 862.954529,681.400208 859.551147,688.944092 
	C857.333191,685.038086 855.683350,682.597656 854.498962,679.949158 
	C852.095520,674.574402 849.978455,669.072327 847.682068,663.648682 
	C839.951904,645.391785 832.159363,627.161316 824.458191,608.892212 
	C816.696899,590.480530 809.068481,572.012695 801.286255,553.609863 
	C792.736023,533.390991 784.043945,513.232239 775.474243,493.021515 
	C767.547668,474.327667 759.701050,455.599915 751.819580,436.886993 
	C743.998169,418.316620 736.176392,399.746429 728.356079,381.175629 
	C720.918884,363.514557 713.506958,345.842773 706.040894,328.193909 
	C698.189636,309.634216 690.161499,291.147736 682.514954,272.504425 
	C681.009766,268.834686 679.236694,267.508545 675.285156,267.527740 
	C644.454651,267.677765 613.623169,267.607086 582.791931,267.621460 
	C581.197021,267.622192 579.602173,267.776703 577.295715,267.896637 
	C596.583191,312.901703 615.602783,357.281738 634.738770,402.427734 
z"/>
<path fill="#CCC2B1" opacity="1.000000" stroke="none" 
	d="
M436.666626,314.408081 
	C447.077087,322.477936 457.482056,329.987183 467.281799,338.217010 
	C475.020721,344.716217 482.280426,351.847107 489.287384,359.144531 
	C505.641663,376.176819 519.507263,395.109192 531.547180,415.432007 
	C543.584900,435.751068 553.003418,457.193878 560.052246,479.697449 
	C565.603882,497.421204 570.209534,515.391357 571.707642,533.956970 
	C573.023376,550.262024 574.687744,566.622925 574.526611,582.942688 
	C574.303833,605.503784 571.596069,627.935242 566.661499,650.031250 
	C560.949219,675.609802 552.370239,700.218567 540.736267,723.659607 
	C531.084412,743.106995 519.964355,761.783264 505.779846,778.328857 
	C495.336792,790.510193 484.659241,802.568237 473.221619,813.800781 
	C456.146515,830.569946 437.077576,845.048279 415.841583,856.124390 
	C398.828949,864.997681 381.409790,873.349609 363.500793,880.173950 
	C345.447723,887.053223 326.543488,891.777405 307.180725,893.700989 
	C293.554352,895.054688 279.870483,896.492920 266.200012,896.625122 
	C202.427368,897.241516 138.650497,897.421509 74.875046,897.743958 
	C67.260857,897.782471 67.253212,897.743958 67.253166,890.291321 
	C67.251801,684.132874 67.251831,477.974396 67.253052,271.815948 
	C67.253098,264.257202 67.259895,264.251221 74.767830,264.250977 
	C143.598419,264.248962 212.432831,263.834412 281.257599,264.467865 
	C306.251953,264.697906 330.958435,268.780457 355.079468,276.075378 
	C374.031189,281.806946 392.336548,288.973022 409.758423,298.286835 
	C418.864716,303.155060 427.533661,308.841400 436.666626,314.408081 
M459.604767,334.848480 
	C458.172333,333.748932 456.802399,332.554382 455.297760,331.564575 
	C440.098633,321.565979 425.275360,310.913635 409.555023,301.811920 
	C392.466614,291.918030 373.867889,285.262970 354.906586,279.529968 
	C330.934631,272.281982 306.385040,268.219330 281.561768,267.978882 
	C213.239670,267.317017 144.906952,267.751007 76.578430,267.751465 
	C74.805664,267.751495 73.032898,267.751465 71.196243,267.751465 
	C71.196243,476.929535 71.196243,685.443359 71.196243,894.010559 
	C72.458046,894.109680 73.281792,894.234558 74.104881,894.230408 
	C137.878601,893.911011 201.652939,893.667908 265.425293,893.171265 
	C276.649994,893.083862 287.879303,892.098816 299.083801,891.234558 
	C319.499786,889.659668 339.200378,884.561035 358.619049,878.373352 
	C378.738068,871.962463 397.807709,863.147522 416.159607,852.696960 
	C436.403351,841.168945 455.251862,827.676331 471.969604,811.525696 
	C482.774567,801.087280 492.674164,789.654846 502.426086,778.196899 
	C516.548279,761.604126 527.699036,742.964539 537.339233,723.505371 
	C548.888306,700.192993 557.407898,675.732056 563.111328,650.320374 
	C568.032715,628.393494 570.765747,606.120422 571.016785,583.726624 
	C571.203430,567.075500 570.268433,550.261353 567.990784,533.774353 
	C565.598572,516.457886 561.790649,499.232666 557.196716,482.349823 
	C550.788452,458.799286 540.650574,436.688599 528.208801,415.631287 
	C516.449036,395.728394 502.968170,377.105621 486.996979,360.429108 
	C478.534882,351.593323 469.105194,343.684235 459.604767,334.848480 
z"/>
<path fill="#CCC2B1" opacity="1.000000" stroke="none" 
	d="
M1527.832764,291.213135 
	C1547.932861,300.845581 1566.756470,311.924438 1584.075928,325.353943 
	C1599.787842,337.537048 1614.709717,350.671936 1627.342773,366.132721 
	C1636.283447,377.074646 1645.765869,387.725342 1653.401978,399.542816 
	C1662.459717,413.560059 1670.458496,428.372437 1677.672485,443.435852 
	C1683.675781,455.971191 1688.899536,469.083832 1692.625732,482.454346 
	C1697.319458,499.297180 1701.126465,516.527771 1703.485962,533.840454 
	C1705.778320,550.660950 1706.758179,567.811829 1706.502808,584.790344 
	C1706.171387,606.833496 1703.456421,628.767639 1698.580444,650.365356 
	C1692.845459,675.768494 1684.339111,700.217468 1672.794434,723.521179 
	C1663.154541,742.980042 1652.037720,761.653625 1637.883423,778.215637 
	C1627.351807,790.538696 1616.539917,802.703674 1604.972290,814.040588 
	C1588.002563,830.671814 1568.755005,844.462646 1548.065918,856.219055 
	C1529.714355,866.647156 1510.654297,875.476135 1490.532104,881.879639 
	C1471.114136,888.059143 1451.425659,893.155823 1431.016357,894.741150 
	C1420.144043,895.585632 1409.249390,896.587341 1398.358276,896.672058 
	C1334.418213,897.169556 1270.476318,897.422363 1206.535034,897.743347 
	C1199.311890,897.779602 1199.246826,897.680786 1199.246704,890.450317 
	C1199.245361,684.129333 1199.245239,477.808319 1199.246826,271.487335 
	C1199.246948,264.322845 1199.319092,264.251923 1206.597412,264.251678 
	C1275.593262,264.249329 1344.593140,263.821167 1413.582764,264.478363 
	C1438.401611,264.714752 1463.117798,268.240356 1486.851685,276.222748 
	C1500.513306,280.817566 1513.936279,286.121613 1527.832764,291.213135 
M1640.120483,771.494446 
	C1649.866699,755.541809 1660.487427,740.047668 1669.148071,723.526001 
	C1681.220459,700.495300 1689.343384,675.829590 1695.073853,650.420715 
	C1699.981812,628.659058 1702.707275,606.556213 1703.006592,584.338257 
	C1703.233154,567.523804 1701.516113,550.659851 1700.198853,533.854309 
	C1698.755737,515.443420 1694.214844,497.601379 1688.710449,480.044098 
	C1681.659302,457.553619 1672.320923,436.058350 1660.249023,415.735168 
	C1647.756470,394.703949 1633.461548,375.066986 1616.278198,357.656311 
	C1608.965210,350.246643 1601.040283,343.428009 1593.235596,336.519165 
	C1576.898804,322.057495 1558.847412,309.911194 1539.204712,300.645752 
	C1522.330933,292.686310 1504.778809,286.010071 1487.149170,279.845947 
	C1463.523438,271.585297 1438.721191,268.223297 1413.896606,267.982544 
	C1345.408081,267.318237 1276.908813,267.750885 1208.413818,267.762573 
	C1206.650146,267.762878 1204.886475,267.911560 1203.078613,267.993011 
	C1203.078613,476.928467 1203.078613,685.324036 1203.078613,894.247559 
	C1205.513794,894.247559 1207.641968,894.257263 1209.770264,894.246277 
	C1274.043579,893.914795 1338.317627,893.654846 1402.589722,893.166748 
	C1411.981079,893.095459 1421.367188,891.975525 1430.750488,891.269104 
	C1451.183105,889.730774 1470.891846,884.650146 1490.312988,878.503052 
	C1510.434448,872.134460 1529.529785,863.330872 1547.876831,852.877869 
	C1568.843872,840.932129 1588.432861,827.020874 1605.493164,809.995117 
	C1617.522095,797.990540 1628.317017,784.749634 1640.120483,771.494446 
z"/>
<path fill="#4B382A" opacity="1.000000" stroke="none" 
	d="
M634.680542,402.044739 
	C615.602783,357.281738 596.583191,312.901703 577.295715,267.896637 
	C579.602173,267.776703 581.197021,267.622192 582.791931,267.621460 
	C613.623169,267.607086 644.454651,267.677765 675.285156,267.527740 
	C679.236694,267.508545 681.009766,268.834686 682.514954,272.504425 
	C690.161499,291.147736 698.189636,309.634216 706.040894,328.193909 
	C713.506958,345.842773 720.918884,363.514557 728.356079,381.175629 
	C736.176392,399.746429 743.998169,418.316620 751.819580,436.886993 
	C759.701050,455.599915 767.547668,474.327667 775.474243,493.021515 
	C784.043945,513.232239 792.736023,533.390991 801.286255,553.609863 
	C809.068481,572.012695 816.696899,590.480530 824.458191,608.892212 
	C832.159363,627.161316 839.951904,645.391785 847.682068,663.648682 
	C849.978455,669.072327 852.095520,674.574402 854.498962,679.949158 
	C855.683350,682.597656 857.333191,685.038086 859.551147,688.944092 
	C862.954529,681.400208 865.867188,675.269409 868.509277,669.024109 
	C875.271973,653.038025 881.869141,636.981934 888.616272,620.989136 
	C896.129639,603.180237 903.768250,585.424133 911.291809,567.619446 
	C918.497009,550.568359 925.605164,533.476318 932.790405,516.416687 
	C946.903259,482.909088 961.000854,449.394928 975.178284,415.914551 
	C989.424011,382.273102 1003.773621,348.675720 1018.048157,315.046448 
	C1024.321777,300.266541 1030.453979,285.425873 1036.867432,270.707336 
	C1037.468994,269.326843 1039.630493,267.748169 1041.074463,267.741516 
	C1073.237549,267.592926 1105.401489,267.651886 1137.565308,267.683380 
	C1137.885132,267.683685 1138.204712,267.842957 1139.197388,268.106964 
	C1136.051636,275.494049 1132.957397,282.803070 1129.829346,290.097595 
	C1120.658081,311.484558 1111.504150,332.879059 1102.284180,354.245117 
	C1094.557373,372.151123 1086.713623,390.006714 1078.983032,407.911133 
	C1071.058716,426.264099 1063.241089,444.663086 1055.315918,463.015686 
	C1049.533691,476.406128 1043.604370,489.733093 1037.826904,503.125671 
	C1028.609863,524.491760 1019.484253,545.897339 1010.282776,567.270264 
	C1002.635010,585.034180 994.928040,602.772766 987.257874,620.527100 
	C977.900635,642.186340 968.581665,663.862183 959.195312,685.508850 
	C950.393250,705.808105 941.469055,726.054565 932.700439,746.368225 
	C922.504456,769.988586 912.443665,793.667175 902.278076,817.300598 
	C894.636169,835.067078 886.918701,852.801025 879.239868,870.551575 
	C873.253479,884.389587 867.327148,898.254150 861.211426,912.034790 
	C860.603333,913.404968 858.895813,915.090820 857.638000,915.142029 
	C856.390564,915.192810 854.439026,913.633728 853.868713,912.316406 
	C842.931091,887.053467 832.163452,861.716980 821.336853,836.405884 
	C806.581970,801.911072 791.835754,767.412476 777.032227,732.938416 
	C763.453979,701.317810 749.795654,669.731506 736.189392,638.122925 
	C723.880127,609.527466 711.553467,580.939514 699.307434,552.317017 
	C684.872925,518.579468 670.575073,484.783447 656.101624,451.062683 
	C649.118103,434.792053 641.868103,418.635803 634.680542,402.044739 
z"/>
<path fill="#493628" opacity="1.000000" stroke="none" 
	d="
M459.858521,335.102661 
	C469.105194,343.684235 478.534882,351.593323 486.996979,360.429108 
	C502.968170,377.105621 516.449036,395.728394 528.208801,415.631287 
	C540.650574,436.688599 550.788452,458.799286 557.196716,482.349823 
	C561.790649,499.232666 565.598572,516.457886 567.990784,533.774353 
	C570.268433,550.261353 571.203430,567.075500 571.016785,583.726624 
	C570.765747,606.120422 568.032715,628.393494 563.111328,650.320374 
	C557.407898,675.732056 548.888306,700.192993 537.339233,723.505371 
	C527.699036,742.964539 516.548279,761.604126 502.426086,778.196899 
	C492.674164,789.654846 482.774567,801.087280 471.969604,811.525696 
	C455.251862,827.676331 436.403351,841.168945 416.159607,852.696960 
	C397.807709,863.147522 378.738068,871.962463 358.619049,878.373352 
	C339.200378,884.561035 319.499786,889.659668 299.083801,891.234558 
	C287.879303,892.098816 276.649994,893.083862 265.425293,893.171265 
	C201.652939,893.667908 137.878601,893.911011 74.104881,894.230408 
	C73.281792,894.234558 72.458046,894.109680 71.196243,894.010559 
	C71.196243,685.443359 71.196243,476.929535 71.196243,267.751465 
	C73.032898,267.751465 74.805664,267.751495 76.578430,267.751465 
	C144.906952,267.751007 213.239670,267.317017 281.561768,267.978882 
	C306.385040,268.219330 330.934631,272.281982 354.906586,279.529968 
	C373.867889,285.262970 392.466614,291.918030 409.555023,301.811920 
	C425.275360,310.913635 440.098633,321.565979 455.297760,331.564575 
	C456.802399,332.554382 458.172333,333.748932 459.858521,335.102661 
M441.740204,458.525299 
	C441.635712,458.210693 441.579407,457.869019 441.419861,457.585358 
	C430.524017,438.214355 416.873230,421.135223 400.411743,406.098114 
	C388.788666,395.480743 376.308319,386.185822 362.743927,378.403595 
	C328.781433,358.918518 291.723999,350.464081 252.934952,349.528687 
	C225.618637,348.869904 198.273636,349.397247 170.941452,349.403137 
	C164.498550,349.404510 164.404755,349.490540 164.404526,355.815918 
	C164.399109,505.476318 164.397903,655.136719 164.399796,804.797119 
	C164.399887,811.517029 164.476913,811.594482 171.062241,811.595886 
	C201.060989,811.602173 231.067871,812.003174 261.054443,811.398926 
	C272.977600,811.158630 285.103638,809.724243 296.691101,806.961853 
	C310.927734,803.567810 324.913055,798.783691 338.620819,793.582581 
	C361.646606,784.846191 381.750885,771.142700 399.593781,754.313843 
	C407.641083,746.723877 415.044617,738.369141 422.112152,729.840881 
	C434.349640,715.074036 443.959808,698.527771 451.403290,680.934875 
	C460.941284,658.391479 467.215942,634.915405 469.787598,610.413269 
	C471.661377,592.560242 472.767700,574.755554 470.521545,556.947571 
	C468.658264,542.174744 466.580231,527.370422 463.429749,512.833069 
	C459.316498,493.853394 451.956055,475.957428 441.740204,458.525299 
z"/>
<path fill="#493628" opacity="1.000000" stroke="none" 
	d="
M1639.891602,771.777588 
	C1628.317017,784.749634 1617.522095,797.990540 1605.493164,809.995117 
	C1588.432861,827.020874 1568.843872,840.932129 1547.876831,852.877869 
	C1529.529785,863.330872 1510.434448,872.134460 1490.312988,878.503052 
	C1470.891846,884.650146 1451.183105,889.730774 1430.750488,891.269104 
	C1421.367188,891.975525 1411.981079,893.095459 1402.589722,893.166748 
	C1338.317627,893.654846 1274.043579,893.914795 1209.770264,894.246277 
	C1207.641968,894.257263 1205.513794,894.247559 1203.078613,894.247559 
	C1203.078613,685.324036 1203.078613,476.928467 1203.078613,267.993011 
	C1204.886475,267.911560 1206.650146,267.762878 1208.413818,267.762573 
	C1276.908813,267.750885 1345.408081,267.318237 1413.896606,267.982544 
	C1438.721191,268.223297 1463.523438,271.585297 1487.149170,279.845947 
	C1504.778809,286.010071 1522.330933,292.686310 1539.204712,300.645752 
	C1558.847412,309.911194 1576.898804,322.057495 1593.235596,336.519165 
	C1601.040283,343.428009 1608.965210,350.246643 1616.278198,357.656311 
	C1633.461548,375.066986 1647.756470,394.703949 1660.249023,415.735168 
	C1672.320923,436.058350 1681.659302,457.553619 1688.710449,480.044098 
	C1694.214844,497.601379 1698.755737,515.443420 1700.198853,533.854309 
	C1701.516113,550.659851 1703.233154,567.523804 1703.006592,584.338257 
	C1702.707275,606.556213 1699.981812,628.659058 1695.073853,650.420715 
	C1689.343384,675.829590 1681.220459,700.495300 1669.148071,723.526001 
	C1660.487427,740.047668 1649.866699,755.541809 1639.891602,771.777588 
M1302.837891,811.753906 
	C1336.938965,811.420410 1371.050659,811.484558 1405.136597,810.580261 
	C1421.410278,810.148560 1437.243896,805.940186 1452.716675,800.844604 
	C1473.604248,793.965637 1493.056396,784.263062 1510.960327,771.388733 
	C1527.860352,759.236267 1542.694580,744.969360 1555.408691,728.571289 
	C1568.562012,711.606567 1578.996338,693.026733 1586.758179,672.972412 
	C1597.053711,646.371948 1602.601074,618.761780 1603.629761,590.323425 
	C1604.042725,578.909302 1603.606323,567.400452 1602.612793,556.017090 
	C1601.586792,544.263062 1599.962769,532.498474 1597.631592,520.933777 
	C1592.390015,494.930328 1582.479614,470.596893 1568.235474,448.284180 
	C1556.132812,429.326141 1541.313965,412.619110 1523.745728,398.287598 
	C1508.436768,385.799072 1491.760254,375.696106 1473.826294,367.779022 
	C1445.948975,355.472443 1416.340332,350.210388 1386.087402,349.407654 
	C1358.114502,348.665405 1330.106201,349.302032 1302.114136,349.187256 
	C1297.871826,349.169891 1296.028076,350.570923 1296.191772,354.966583 
	C1296.421387,361.123077 1296.249878,367.294464 1296.249878,373.459503 
	C1296.249878,517.254578 1296.258179,661.049683 1296.207886,804.844788 
	C1296.206421,808.976868 1296.504028,812.350891 1302.837891,811.753906 
z"/>
<path fill="#E6DECC" opacity="1.000000" stroke="none" 
	d="
M441.978149,458.811859 
	C451.956055,475.957428 459.316498,493.853394 463.429749,512.833069 
	C466.580231,527.370422 468.658264,542.174744 470.521545,556.947571 
	C472.767700,574.755554 471.661377,592.560242 469.787598,610.413269 
	C467.215942,634.915405 460.941284,658.391479 451.403290,680.934875 
	C443.959808,698.527771 434.349640,715.074036 422.112152,729.840881 
	C415.044617,738.369141 407.641083,746.723877 399.593781,754.313843 
	C381.750885,771.142700 361.646606,784.846191 338.620819,793.582581 
	C324.913055,798.783691 310.927734,803.567810 296.691101,806.961853 
	C285.103638,809.724243 272.977600,811.158630 261.054443,811.398926 
	C231.067871,812.003174 201.060989,811.602173 171.062241,811.595886 
	C164.476913,811.594482 164.399887,811.517029 164.399796,804.797119 
	C164.397903,655.136719 164.399109,505.476318 164.404526,355.815918 
	C164.404755,349.490540 164.498550,349.404510 170.941452,349.403137 
	C198.273636,349.397247 225.618637,348.869904 252.934952,349.528687 
	C291.723999,350.464081 328.781433,358.918518 362.743927,378.403595 
	C376.308319,386.185822 388.788666,395.480743 400.411743,406.098114 
	C416.873230,421.135223 430.524017,438.214355 441.419861,457.585358 
	C441.579407,457.869019 441.635712,458.210693 441.978149,458.811859 
M221.500244,352.593842 
	C203.722977,352.593842 185.945709,352.593842 167.885727,352.593842 
	C167.885727,402.390259 167.885727,451.607544 167.885727,500.805450 
	C224.959991,504.865448 253.767761,548.112549 256.465759,585.192444 
	C258.295319,610.337036 250.100388,632.614624 233.349335,651.359619 
	C215.996887,670.777588 193.707718,680.460083 168.016144,681.933655 
	C168.016144,724.336304 168.016144,766.216431 168.016144,808.405945 
	C170.418549,808.405945 172.402649,808.405945 174.386749,808.405945 
	C203.379150,808.405945 232.372772,808.551941 261.363159,808.309937 
	C269.245422,808.244080 277.229950,807.615784 284.972473,806.187866 
	C303.317902,802.804260 321.334930,798.307434 338.586060,790.747375 
	C367.063904,778.267273 391.952271,761.170166 412.433533,737.596619 
	C427.999207,719.680847 440.214294,699.815430 449.403259,678.014709 
	C460.662567,651.302124 466.646057,623.280151 468.210876,594.493103 
	C469.341034,573.702820 468.395355,552.892151 464.567047,532.220642 
	C460.697296,511.325378 454.926117,491.128296 445.825073,471.957367 
	C434.366333,447.820007 419.212952,426.372803 399.324738,408.282776 
	C387.945312,397.932190 375.646027,388.958527 362.360626,381.365051 
	C327.573425,361.481750 289.648193,353.559509 249.992310,352.625671 
	C240.833130,352.410004 231.664520,352.593811 221.500244,352.593842 
M251.293533,611.275940 
	C254.056961,598.374695 254.321014,585.465515 251.384552,572.552917 
	C247.698029,556.341980 240.345459,541.865234 228.748840,530.089600 
	C217.767548,518.938721 204.291306,511.316803 188.922379,507.648315 
	C182.161438,506.034546 175.224243,505.159271 167.959229,503.876678 
	C167.959229,517.674866 167.959229,530.197266 167.959229,542.683777 
	C201.033401,545.672546 214.441162,570.729858 215.018478,589.403687 
	C215.854080,616.432556 199.153030,634.647156 167.989777,640.514954 
	C167.989777,653.026733 167.989777,665.556335 167.989777,678.079651 
	C204.597122,678.106140 241.221054,653.704041 251.293533,611.275940 
z"/>
<path fill="#CCC2B1" opacity="1.000000" stroke="none" 
	d="
M1302.381958,811.753967 
	C1296.504028,812.350891 1296.206421,808.976868 1296.207886,804.844788 
	C1296.258179,661.049683 1296.249878,517.254578 1296.249878,373.459503 
	C1296.249878,367.294464 1296.421387,361.123077 1296.191772,354.966583 
	C1296.028076,350.570923 1297.871826,349.169891 1302.114136,349.187256 
	C1330.106201,349.302032 1358.114502,348.665405 1386.087402,349.407654 
	C1416.340332,350.210388 1445.948975,355.472443 1473.826294,367.779022 
	C1491.760254,375.696106 1508.436768,385.799072 1523.745728,398.287598 
	C1541.313965,412.619110 1556.132812,429.326141 1568.235474,448.284180 
	C1582.479614,470.596893 1592.390015,494.930328 1597.631592,520.933777 
	C1599.962769,532.498474 1601.586792,544.263062 1602.612793,556.017090 
	C1603.606323,567.400452 1604.042725,578.909302 1603.629761,590.323425 
	C1602.601074,618.761780 1597.053711,646.371948 1586.758179,672.972412 
	C1578.996338,693.026733 1568.562012,711.606567 1555.408691,728.571289 
	C1542.694580,744.969360 1527.860352,759.236267 1510.960327,771.388733 
	C1493.056396,784.263062 1473.604248,793.965637 1452.716675,800.844604 
	C1437.243896,805.940186 1421.410278,810.148560 1405.136597,810.580261 
	C1371.050659,811.484558 1336.938965,811.420410 1302.381958,811.753967 
M1299.803833,640.769043 
	C1299.803833,653.179504 1299.803833,665.589905 1299.803833,678.648621 
	C1332.164795,676.302063 1358.335693,664.247314 1374.038330,635.951721 
	C1394.537720,599.012390 1390.230469,563.227661 1362.770630,531.659180 
	C1346.846191,513.351929 1324.831055,505.362732 1299.977539,504.667084 
	C1299.977539,517.955505 1299.977539,530.565002 1300.109497,544.081787 
	C1300.065430,575.995422 1300.021362,607.909119 1299.803833,640.769043 
M1299.752441,409.499939 
	C1299.752441,439.934601 1299.752441,470.369263 1299.752441,500.760345 
	C1354.242065,503.763214 1385.887085,544.065735 1389.634521,584.527649 
	C1391.556763,605.285339 1385.997192,624.742188 1374.209473,641.666992 
	C1356.408936,667.224915 1331.257324,680.647217 1300.123535,682.089050 
	C1300.123535,724.337097 1300.123535,766.073730 1300.123535,808.247681 
	C1302.128052,808.247681 1303.763428,808.261841 1305.398682,808.245544 
	C1338.507446,807.915344 1371.634521,808.134521 1404.718018,807.037476 
	C1423.974121,806.398926 1442.577637,801.268311 1460.696045,794.478394 
	C1493.387817,782.226868 1521.666016,763.737732 1544.630859,737.210449 
	C1560.068359,719.378174 1572.167725,699.589417 1581.286621,677.903320 
	C1592.484985,651.272034 1598.276245,623.342834 1600.056519,594.666748 
	C1600.845215,581.959229 1599.665649,569.121826 1599.237671,556.348145 
	C1598.588867,536.979492 1594.423706,518.189148 1588.557739,499.863220 
	C1577.339233,464.815948 1559.571777,433.549072 1531.583618,409.116455 
	C1520.127563,399.115662 1507.859009,389.685455 1494.802979,381.947906 
	C1461.049805,361.944305 1423.723145,353.829651 1384.855347,352.874786 
	C1358.372803,352.224182 1331.861450,352.745544 1305.362915,352.761047 
	C1303.603394,352.762085 1301.843872,352.917419 1299.752319,353.016754 
	C1299.752319,371.878204 1299.752319,390.189056 1299.752441,409.499939 
z"/>
<path fill="#4A3729" opacity="1.000000" stroke="none" 
	d="
M222.000244,352.593811 
	C231.664520,352.593811 240.833130,352.410004 249.992310,352.625671 
	C289.648193,353.559509 327.573425,361.481750 362.360626,381.365051 
	C375.646027,388.958527 387.945312,397.932190 399.324738,408.282776 
	C419.212952,426.372803 434.366333,447.820007 445.825073,471.957367 
	C454.926117,491.128296 460.697296,511.325378 464.567047,532.220642 
	C468.395355,552.892151 469.341034,573.702820 468.210876,594.493103 
	C466.646057,623.280151 460.662567,651.302124 449.403259,678.014709 
	C440.214294,699.815430 427.999207,719.680847 412.433533,737.596619 
	C391.952271,761.170166 367.063904,778.267273 338.586060,790.747375 
	C321.334930,798.307434 303.317902,802.804260 284.972473,806.187866 
	C277.229950,807.615784 269.245422,808.244080 261.363159,808.309937 
	C232.372772,808.551941 203.379150,808.405945 174.386749,808.405945 
	C172.402649,808.405945 170.418549,808.405945 168.016144,808.405945 
	C168.016144,766.216431 168.016144,724.336304 168.016144,681.933655 
	C193.707718,680.460083 215.996887,670.777588 233.349335,651.359619 
	C250.100388,632.614624 258.295319,610.337036 256.465759,585.192444 
	C253.767761,548.112549 224.959991,504.865448 167.885727,500.805450 
	C167.885727,451.607544 167.885727,402.390259 167.885727,352.593842 
	C185.945709,352.593842 203.722977,352.593842 222.000244,352.593811 
z"/>
<path fill="#4B382A" opacity="1.000000" stroke="none" 
	d="
M251.093307,611.650024 
	C241.221054,653.704041 204.597122,678.106140 167.989777,678.079651 
	C167.989777,665.556335 167.989777,653.026733 167.989777,640.514954 
	C199.153030,634.647156 215.854080,616.432556 215.018478,589.403687 
	C214.441162,570.729858 201.033401,545.672546 167.959229,542.683777 
	C167.959229,530.197266 167.959229,517.674866 167.959229,503.876678 
	C175.224243,505.159271 182.161438,506.034546 188.922379,507.648315 
	C204.291306,511.316803 217.767548,518.938721 228.748840,530.089600 
	C240.345459,541.865234 247.698029,556.341980 251.384552,572.552917 
	C254.321014,585.465515 254.056961,598.374695 251.093307,611.650024 
z"/>
<path fill="#493628" opacity="1.000000" stroke="none" 
	d="
M1299.752441,408.999939 
	C1299.752319,390.189056 1299.752319,371.878204 1299.752319,353.016754 
	C1301.843872,352.917419 1303.603394,352.762085 1305.362915,352.761047 
	C1331.861450,352.745544 1358.372803,352.224182 1384.855347,352.874786 
	C1423.723145,353.829651 1461.049805,361.944305 1494.802979,381.947906 
	C1507.859009,389.685455 1520.127563,399.115662 1531.583618,409.116455 
	C1559.571777,433.549072 1577.339233,464.815948 1588.557739,499.863220 
	C1594.423706,518.189148 1598.588867,536.979492 1599.237671,556.348145 
	C1599.665649,569.121826 1600.845215,581.959229 1600.056519,594.666748 
	C1598.276245,623.342834 1592.484985,651.272034 1581.286621,677.903320 
	C1572.167725,699.589417 1560.068359,719.378174 1544.630859,737.210449 
	C1521.666016,763.737732 1493.387817,782.226868 1460.696045,794.478394 
	C1442.577637,801.268311 1423.974121,806.398926 1404.718018,807.037476 
	C1371.634521,808.134521 1338.507446,807.915344 1305.398682,808.245544 
	C1303.763428,808.261841 1302.128052,808.247681 1300.123535,808.247681 
	C1300.123535,766.073730 1300.123535,724.337097 1300.123535,682.089050 
	C1331.257324,680.647217 1356.408936,667.224915 1374.209473,641.666992 
	C1385.997192,624.742188 1391.556763,605.285339 1389.634521,584.527649 
	C1385.887085,544.065735 1354.242065,503.763214 1299.752441,500.760345 
	C1299.752441,470.369263 1299.752441,439.934601 1299.752441,408.999939 
z"/>
<path fill="#4A3729" opacity="1.000000" stroke="none" 
	d="
M1299.977539,543.174500 
	C1299.977539,530.565002 1299.977539,517.955505 1299.977539,504.667084 
	C1324.831055,505.362732 1346.846191,513.351929 1362.770630,531.659180 
	C1390.230469,563.227661 1394.537720,599.012390 1374.038330,635.951721 
	C1358.335693,664.247314 1332.164795,676.302063 1299.803833,678.648621 
	C1299.803833,665.589905 1299.803833,653.179504 1300.322754,640.366943 
	C1303.643066,639.643555 1306.481567,639.510925 1309.240479,638.971558 
	C1333.428833,634.243103 1350.428589,611.099426 1347.796143,586.580688 
	C1345.144165,561.879028 1323.958496,542.648193 1299.977539,543.174500 
z"/>
<path fill="#F7F0DD" opacity="1.000000" stroke="none" 
	d="
M1300.043457,543.628174 
	C1323.958496,542.648193 1345.144165,561.879028 1347.796143,586.580688 
	C1350.428589,611.099426 1333.428833,634.243103 1309.240479,638.971558 
	C1306.481567,639.510925 1303.643066,639.643555 1300.409424,639.893799 
	C1300.021362,607.909119 1300.065430,575.995422 1300.043457,543.628174 
z"/>
</svg>