<svg version="1.1" id="Layer_1" xmlns="http://www.w3.org/2000/svg" xmlns:xlink="http://www.w3.org/1999/xlink" x="0px" y="0px"
	 width="100%" viewBox="0 0 2362 2362" enable-background="new 0 0 2362 2362" xml:space="preserve">
<path fill="#F8F1DE" opacity="1.000000" stroke="none" 
	d="
M1308.000000,2364.000000 
	C872.000000,2364.000000 437.000000,2364.000000 2.000000,2364.000000 
	C2.000000,1576.666626 2.000000,789.333313 2.000000,2.000000 
	C789.333313,2.000000 1576.666626,2.000000 2364.000000,2.000000 
	C2364.000000,789.333313 2364.000000,1576.666626 2364.000000,2364.000000 
	C2012.333374,2364.000000 1660.666626,2364.000000 1308.000000,2364.000000 
M515.000000,1108.240967 
	C426.026123,1108.411865 337.052246,1108.582275 248.078461,1108.778320 
	C247.816650,1108.778931 247.547546,1109.142578 247.296524,1109.354004 
	C247.043930,1109.566650 246.809616,1109.801025 246.567261,1110.025757 
	C244.424332,1128.955200 245.424576,1258.550415 248.001694,1265.988159 
	C251.401993,1265.988159 255.040268,1265.978516 258.678497,1265.989502 
	C422.971771,1266.483521 587.264709,1267.128174 751.558350,1267.437134 
	C950.535706,1267.811157 1149.513916,1267.786987 1348.491211,1268.156006 
	C1472.789307,1268.386597 1597.086304,1269.143066 1721.384277,1269.444702 
	C1832.371338,1269.714111 1943.359497,1269.649902 2054.346680,1269.882080 
	C2060.001953,1269.893921 2064.919922,1268.814575 2069.036377,1265.043701 
	C2081.053223,1254.035278 2094.302002,1244.033447 2104.671631,1231.632812 
	C2128.741455,1202.848755 2126.458740,1183.902222 2108.842529,1157.347534 
	C2099.015381,1142.534302 2086.425049,1130.232910 2073.612305,1118.008301 
	C2066.057861,1110.800659 2058.294189,1108.030518 2047.831299,1108.035278 
	C1537.554321,1108.270630 1027.277100,1108.241455 515.000000,1108.240967 
M1223.000000,891.887878 
	C898.069275,892.054626 573.138550,892.221191 248.207825,892.408813 
	C247.933945,892.408997 247.640961,892.701172 247.391754,892.900574 
	C247.133301,893.107422 246.917374,893.367493 246.502869,893.785950 
	C246.502869,946.105835 246.502869,998.609497 246.502869,1050.764404 
	C247.697006,1051.420532 248.259506,1052.000488 248.822144,1052.000610 
	C816.384888,1052.164795 1383.947632,1052.290649 1951.510376,1052.401855 
	C1954.163452,1052.402344 1956.817139,1052.203979 1959.468628,1052.061157 
	C1959.740723,1052.046631 1960.086548,1051.834473 1960.240723,1051.607422 
	C1960.414795,1051.350342 1960.411255,1050.972778 1960.649902,1049.921753 
	C1949.022583,1042.760376 1937.185181,1035.462280 1925.340942,1028.175537 
	C1854.984131,984.890869 1784.585938,941.673401 1714.327515,898.229675 
	C1706.965210,893.677124 1699.631470,891.721741 1690.923706,891.733704 
	C1535.616089,891.946472 1380.307983,891.887939 1223.000000,891.887878 
M1702.162842,1486.150024 
	C1705.855469,1484.943481 1709.946533,1484.393311 1713.180664,1482.431030 
	C1757.020508,1455.829712 1800.755371,1429.055176 1844.487915,1402.277222 
	C1881.973022,1379.324585 1919.444946,1356.350708 1956.839478,1333.251099 
	C1959.640381,1331.520874 1963.494019,1330.486816 1964.879028,1325.812256 
	C1960.829102,1325.812256 1957.520142,1325.806274 1954.211182,1325.813354 
	C1676.296265,1326.415771 1398.381348,1327.019165 1120.466431,1327.622437 
	C1091.472412,1327.685425 1062.478516,1327.785889 1033.484497,1327.806274 
	C776.867676,1327.986450 520.250916,1328.152466 263.634125,1328.322388 
	C259.407471,1328.325195 255.180832,1328.322754 251.231384,1328.322754 
	C246.898819,1350.813232 244.427094,1471.643921 247.931747,1481.740601 
	C249.827682,1481.884277 251.807144,1482.145142 253.789307,1482.167969 
	C297.084961,1482.665283 340.380066,1483.435303 383.677002,1483.562988 
	C638.932007,1484.315918 894.187256,1485.020996 1149.442871,1485.536865 
	C1333.073486,1485.907959 1516.704590,1485.959229 1702.162842,1486.150024 
M261.305511,1538.174438 
	C257.761108,1538.342529 254.216736,1538.510620 250.891800,1538.668213 
	C247.165939,1563.495972 244.678268,1684.338623 247.799866,1695.827637 
	C250.797485,1695.827637 254.063766,1695.814453 257.329926,1695.829712 
	C380.950256,1696.408569 504.570190,1697.099976 628.191040,1697.534302 
	C717.511108,1697.848145 806.833008,1697.669312 896.153076,1697.984985 
	C1001.776733,1698.358154 1107.399292,1699.064331 1213.022705,1699.549316 
	C1253.016479,1699.733032 1293.011475,1699.645630 1333.005249,1699.842896 
	C1337.870239,1699.866943 1341.998169,1698.778809 1346.138916,1696.178101 
	C1360.238037,1687.322754 1374.552002,1678.810669 1388.744873,1670.103516 
	C1455.165283,1629.354004 1521.576416,1588.589355 1587.975830,1547.805664 
	C1592.105225,1545.269165 1596.106201,1542.523315 1600.166992,1539.874878 
	C1599.962280,1539.308228 1599.757568,1538.741455 1599.552856,1538.174683 
	C1154.111938,1538.174683 708.670898,1538.174683 261.305511,1538.174438 
M1399.000000,836.114502 
	C1466.785156,836.114502 1534.570312,836.114502 1602.355469,836.114502 
	C1600.235474,832.454712 1597.732910,830.461975 1595.021606,828.812744 
	C1516.476440,781.036438 1437.849854,733.393311 1359.439575,685.396973 
	C1351.409180,680.481445 1343.589600,678.178345 1334.185791,678.182800 
	C977.894287,678.351074 621.602661,678.325134 265.311005,678.325256 
	C262.977936,678.325256 260.638611,678.219971 258.313507,678.356384 
	C255.745377,678.507202 253.190262,678.880066 250.810913,679.136658 
	C247.449478,701.266541 244.810852,824.357788 247.376114,835.065002 
	C247.968719,835.322815 248.561264,835.806396 249.153961,835.806580 
	C631.769287,835.930847 1014.384644,836.022644 1399.000000,836.114502 
M573.000000,1912.189697 
	C705.981018,1912.189575 838.962097,1912.148560 971.942932,1912.299683 
	C979.229370,1912.307983 985.513367,1910.729248 991.739502,1906.981201 
	C1067.627075,1861.296509 1143.603638,1815.759766 1219.544067,1770.162720 
	C1226.843628,1765.780029 1234.055542,1761.251709 1242.048340,1756.335571 
	C1233.554932,1753.831177 261.147247,1751.007324 251.067627,1753.085815 
	C247.962204,1768.153320 244.807022,1900.682373 247.571075,1912.190063 
	C355.201508,1912.190063 463.100739,1912.190063 573.000000,1912.189697 
M295.000000,465.853577 
	C287.001648,465.853577 278.994507,465.619781 271.007355,465.918732 
	C262.850891,466.223938 254.528824,464.556366 246.431519,467.104004 
	C246.431519,519.197083 246.431519,570.725647 246.431519,622.494446 
	C248.152130,622.929138 249.398041,623.519836 250.643921,623.519775 
	C582.890442,623.506409 915.136902,623.452148 1247.383423,623.372131 
	C1247.586548,623.372070 1247.852173,622.998413 1247.975830,622.744385 
	C1248.106812,622.474854 1248.103149,622.139832 1248.252319,621.312378 
	C1247.130859,620.497375 1245.889526,619.422913 1244.496216,618.608887 
	C1227.816406,608.865601 1211.110352,599.167236 1194.418213,589.445068 
	C1127.648438,550.555847 1060.809082,511.784760 994.206177,472.611847 
	C986.090942,467.838837 978.177979,465.715607 968.839111,465.722626 
	C744.892822,465.890839 520.946411,465.853424 295.000000,465.853577 
M535.000000,1971.842773 
	C439.353149,1972.027222 343.706299,1972.211426 248.059540,1972.419800 
	C247.797226,1972.420410 247.522171,1972.760254 247.277710,1972.970459 
	C247.025742,1973.187134 246.803528,1973.438477 246.566193,1973.672485 
	C244.481567,1991.600586 245.423935,2122.190674 247.798660,2129.307861 
	C249.955643,2129.462891 252.246948,2129.750488 254.541031,2129.774658 
	C320.173004,2130.465088 385.804352,2131.248291 451.437775,2131.756836 
	C496.101776,2132.103027 540.768860,2132.049805 585.434387,2132.201172 
	C590.765930,2132.219238 596.204041,2131.782471 601.396484,2132.685303 
	C606.126770,2133.507324 609.872437,2132.306885 613.698303,2130.083984 
	C647.678772,2110.340820 681.672729,2090.620850 715.652283,2070.875977 
	C764.029541,2042.765503 812.404297,2014.650269 860.763306,1986.508301 
	C868.045593,1982.270386 875.237732,1977.877686 882.471619,1973.556763 
	C882.234436,1972.985352 881.997253,1972.413818 881.760071,1971.842407 
	C766.840027,1971.842407 651.920044,1971.842407 535.000000,1971.842773 
M251.477173,402.194366 
	C293.788055,402.715240 336.097717,403.394104 378.410126,403.712555 
	C420.740692,404.031128 463.074402,403.905212 505.405914,404.129425 
	C547.389465,404.351868 589.371765,404.808533 631.355103,405.087494 
	C673.681702,405.368744 716.008606,405.656342 758.335815,405.759552 
	C800.354248,405.862030 842.379456,406.383545 884.513489,405.102814 
	C882.432861,402.813110 880.276855,401.383881 878.006714,400.167694 
	C860.092896,390.570770 842.163635,381.002533 824.227234,371.447876 
	C752.479980,333.228485 680.709778,295.052063 609.013672,256.737000 
	C603.252563,253.658203 597.503723,252.202026 590.942444,252.231140 
	C548.944275,252.417526 506.944855,252.326050 464.945862,252.326035 
	C395.947510,252.325989 326.949188,252.318329 257.950836,252.346542 
	C254.126083,252.348099 250.301453,252.646942 246.412308,252.810135 
	C246.160614,256.169891 245.884567,258.144958 245.883499,260.120148 
	C245.859314,304.452423 245.861786,348.784698 245.877502,393.116974 
	C245.878204,395.110016 245.652847,397.241394 246.280899,399.048309 
	C246.713135,400.291870 248.439560,401.085571 251.477173,402.194366 
M510.218292,2188.173340 
	C476.617249,2187.551514 443.018463,2186.712891 409.414581,2186.364014 
	C370.118896,2185.955811 330.818512,2186.020264 291.520966,2185.759766 
	C285.555664,2185.720459 279.599487,2184.845459 273.630463,2184.691406 
	C266.080261,2184.496338 258.521179,2184.644043 249.721405,2184.644043 
	C247.833618,2232.504395 246.593674,2279.498291 245.762161,2327.793213 
	C254.708588,2327.793213 262.307861,2327.366211 269.838440,2327.903320 
	C278.892670,2328.548828 286.683655,2326.279785 294.248474,2321.246094 
	C302.819824,2315.542725 312.008362,2310.765137 320.940521,2305.605713 
	C386.063782,2267.989014 451.192719,2230.381836 516.298218,2192.734131 
	C517.780640,2191.876953 519.007996,2190.578613 521.969971,2188.175293 
	C517.155518,2188.175293 514.557434,2188.175293 510.218292,2188.173340 
M376.999847,191.786972 
	C411.967346,191.218033 446.934662,190.639954 481.902435,190.087036 
	C489.899750,189.960571 497.899048,189.955475 505.896118,189.817551 
	C507.977997,189.781677 510.054901,189.456024 513.752808,189.113541 
	C511.210602,187.264496 510.245026,186.412720 509.150208,185.787186 
	C425.569458,138.031860 341.979034,90.293411 258.376892,42.575520 
	C257.826080,42.261120 257.107727,42.211746 256.456268,42.114502 
	C256.141083,42.067448 255.785904,42.155300 255.473999,42.258266 
	C255.183853,42.354046 254.927124,42.550995 254.655685,42.703403 
	C251.882751,51.177822 248.952454,183.380386 251.478333,193.258011 
	C292.554962,192.769592 333.777405,192.279449 376.999847,191.786972 
z"/>
<path fill="#D18679" opacity="1.000000" stroke="none" 
	d="
M516.000000,1108.241211 
	C1027.277100,1108.241455 1537.554321,1108.270630 2047.831299,1108.035278 
	C2058.294189,1108.030518 2066.057861,1110.800659 2073.612305,1118.008301 
	C2086.425049,1130.232910 2099.015381,1142.534302 2108.842529,1157.347534 
	C2126.458740,1183.902222 2128.741455,1202.848755 2104.671631,1231.632812 
	C2094.302002,1244.033447 2081.053223,1254.035278 2069.036377,1265.043701 
	C2064.919922,1268.814575 2060.001953,1269.893921 2054.346680,1269.882080 
	C1943.359497,1269.649902 1832.371338,1269.714111 1721.384277,1269.444702 
	C1597.086304,1269.143066 1472.789307,1268.386597 1348.491211,1268.156006 
	C1149.513916,1267.786987 950.535706,1267.811157 751.558350,1267.437134 
	C587.264709,1267.128174 422.971771,1266.483521 258.678497,1265.989502 
	C255.040268,1265.978516 251.401993,1265.988159 248.001694,1265.988159 
	C245.424576,1258.550415 244.424332,1128.955200 246.567276,1110.025757 
	C246.809616,1109.801025 247.043930,1109.566650 247.296524,1109.354004 
	C247.547546,1109.142578 247.816650,1108.778931 248.078461,1108.778320 
	C337.052246,1108.582275 426.026123,1108.411865 516.000000,1108.241211 
z"/>
<path fill="#D18578" opacity="1.000000" stroke="none" 
	d="
M1224.000000,891.887817 
	C1380.307983,891.887939 1535.616089,891.946472 1690.923706,891.733704 
	C1699.631470,891.721741 1706.965210,893.677124 1714.327515,898.229675 
	C1784.585938,941.673401 1854.984131,984.890869 1925.340942,1028.175537 
	C1937.185181,1035.462280 1949.022583,1042.760376 1960.649902,1049.921753 
	C1960.411255,1050.972778 1960.414795,1051.350342 1960.240723,1051.607422 
	C1960.086548,1051.834473 1959.740723,1052.046631 1959.468628,1052.061157 
	C1956.817139,1052.203979 1954.163452,1052.402344 1951.510376,1052.401855 
	C1383.947632,1052.290649 816.384888,1052.164795 248.822144,1052.000610 
	C248.259506,1052.000488 247.697006,1051.420532 246.502869,1050.764404 
	C246.502869,998.609497 246.502869,946.105835 246.502869,893.785950 
	C246.917374,893.367493 247.133301,893.107422 247.391754,892.900574 
	C247.640961,892.701172 247.933945,892.408997 248.207825,892.408813 
	C573.138550,892.221191 898.069275,892.054626 1224.000000,891.887817 
z"/>
<path fill="#D6A378" opacity="1.000000" stroke="none" 
	d="
M1701.249268,1486.151611 
	C1516.704590,1485.959229 1333.073486,1485.907959 1149.442871,1485.536865 
	C894.187256,1485.020996 638.932007,1484.315918 383.677002,1483.562988 
	C340.380066,1483.435303 297.084961,1482.665283 253.789307,1482.167969 
	C251.807144,1482.145142 249.827682,1481.884277 247.931747,1481.740601 
	C244.427094,1471.643921 246.898819,1350.813232 251.231384,1328.322754 
	C255.180832,1328.322754 259.407471,1328.325195 263.634125,1328.322388 
	C520.250916,1328.152466 776.867676,1327.986450 1033.484497,1327.806274 
	C1062.478516,1327.785889 1091.472412,1327.685425 1120.466431,1327.622437 
	C1398.381348,1327.019165 1676.296265,1326.415771 1954.211182,1325.813354 
	C1957.520142,1325.806274 1960.829102,1325.812256 1964.879028,1325.812256 
	C1963.494019,1330.486816 1959.640381,1331.520874 1956.839478,1333.251099 
	C1919.444946,1356.350708 1881.973022,1379.324585 1844.487915,1402.277222 
	C1800.755371,1429.055176 1757.020508,1455.829712 1713.180664,1482.431030 
	C1709.946533,1484.393311 1705.855469,1484.943481 1701.249268,1486.151611 
z"/>
<path fill="#D6A379" opacity="1.000000" stroke="none" 
	d="
M262.267700,1538.174561 
	C708.670898,1538.174683 1154.111938,1538.174683 1599.552856,1538.174683 
	C1599.757568,1538.741455 1599.962280,1539.308228 1600.166992,1539.874878 
	C1596.106201,1542.523315 1592.105225,1545.269165 1587.975830,1547.805664 
	C1521.576416,1588.589355 1455.165283,1629.354004 1388.744873,1670.103516 
	C1374.552002,1678.810669 1360.238037,1687.322754 1346.138916,1696.178101 
	C1341.998169,1698.778809 1337.870239,1699.866943 1333.005249,1699.842896 
	C1293.011475,1699.645630 1253.016479,1699.733032 1213.022705,1699.549316 
	C1107.399292,1699.064331 1001.776733,1698.358154 896.153076,1697.984985 
	C806.833008,1697.669312 717.511108,1697.848145 628.191040,1697.534302 
	C504.570190,1697.099976 380.950256,1696.408569 257.329926,1695.829712 
	C254.063766,1695.814453 250.797485,1695.827637 247.799866,1695.827637 
	C244.678268,1684.338623 247.165939,1563.495972 250.891800,1538.668213 
	C254.216736,1538.510620 257.761108,1538.342529 262.267700,1538.174561 
z"/>
<path fill="#D18679" opacity="1.000000" stroke="none" 
	d="
M1398.000000,836.114624 
	C1014.384644,836.022644 631.769287,835.930847 249.153961,835.806580 
	C248.561264,835.806396 247.968719,835.322815 247.376450,835.064209 
	C244.810852,824.357788 247.449478,701.266541 250.810913,679.136658 
	C253.190262,678.880066 255.745377,678.507202 258.313507,678.356384 
	C260.638611,678.219971 262.977936,678.325256 265.311005,678.325256 
	C621.602661,678.325134 977.894287,678.351074 1334.185791,678.182800 
	C1343.589600,678.178345 1351.409180,680.481445 1359.439575,685.396973 
	C1437.849854,733.393311 1516.476440,781.036438 1595.021606,828.812744 
	C1597.732910,830.461975 1600.235474,832.454712 1602.355469,836.114502 
	C1534.570312,836.114502 1466.785156,836.114502 1398.000000,836.114624 
z"/>
<path fill="#D6A378" opacity="1.000000" stroke="none" 
	d="
M572.000000,1912.189941 
	C463.100739,1912.190063 355.201508,1912.190063 247.571075,1912.190063 
	C244.807022,1900.682373 247.962204,1768.153320 251.067627,1753.085815 
	C261.147247,1751.007324 1233.554932,1753.831177 1242.048340,1756.335571 
	C1234.055542,1761.251709 1226.843628,1765.780029 1219.544067,1770.162720 
	C1143.603638,1815.759766 1067.627075,1861.296509 991.739502,1906.981201 
	C985.513367,1910.729248 979.229370,1912.307983 971.942932,1912.299683 
	C838.962097,1912.148560 705.981018,1912.189575 572.000000,1912.189941 
z"/>
<path fill="#D18679" opacity="1.000000" stroke="none" 
	d="
M296.000000,465.853455 
	C520.946411,465.853424 744.892822,465.890839 968.839111,465.722626 
	C978.177979,465.715607 986.090942,467.838837 994.206177,472.611847 
	C1060.809082,511.784760 1127.648438,550.555847 1194.418213,589.445068 
	C1211.110352,599.167236 1227.816406,608.865601 1244.496216,618.608887 
	C1245.889526,619.422913 1247.130859,620.497375 1248.252319,621.312378 
	C1248.103149,622.139832 1248.106812,622.474854 1247.975830,622.744385 
	C1247.852173,622.998413 1247.586548,623.372070 1247.383423,623.372131 
	C915.136902,623.452148 582.890442,623.506409 250.643921,623.519775 
	C249.398041,623.519836 248.152130,622.929138 246.431519,622.494446 
	C246.431519,570.725647 246.431519,519.197083 246.431519,467.104004 
	C254.528824,464.556366 262.850891,466.223938 271.007355,465.918732 
	C278.994507,465.619781 287.001648,465.853577 296.000000,465.853455 
z"/>
<path fill="#D6A378" opacity="1.000000" stroke="none" 
	d="
M536.000000,1971.842529 
	C651.920044,1971.842407 766.840027,1971.842407 881.760071,1971.842407 
	C881.997253,1972.413818 882.234436,1972.985352 882.471619,1973.556763 
	C875.237732,1977.877686 868.045593,1982.270386 860.763306,1986.508301 
	C812.404297,2014.650269 764.029541,2042.765503 715.652283,2070.875977 
	C681.672729,2090.620850 647.678772,2110.340820 613.698303,2130.083984 
	C609.872437,2132.306885 606.126770,2133.507324 601.396484,2132.685303 
	C596.204041,2131.782471 590.765930,2132.219238 585.434387,2132.201172 
	C540.768860,2132.049805 496.101776,2132.103027 451.437775,2131.756836 
	C385.804352,2131.248291 320.173004,2130.465088 254.541031,2129.774658 
	C252.246948,2129.750488 249.955643,2129.462891 247.798660,2129.307861 
	C245.423935,2122.190674 244.481567,1991.600586 246.567230,1973.673584 
	C246.803528,1973.438477 247.025742,1973.187134 247.277710,1972.970459 
	C247.522171,1972.760254 247.797226,1972.420410 248.059540,1972.419800 
	C343.706299,1972.211426 439.353149,1972.027222 536.000000,1971.842529 
z"/>
<path fill="#D18679" opacity="1.000000" stroke="none" 
	d="
M250.532364,402.137329 
	C248.439560,401.085571 246.713135,400.291870 246.280899,399.048309 
	C245.652847,397.241394 245.878204,395.110016 245.877502,393.116974 
	C245.861786,348.784698 245.859314,304.452423 245.883499,260.120148 
	C245.884567,258.144958 246.160614,256.169891 246.412308,252.810135 
	C250.301453,252.646942 254.126083,252.348099 257.950836,252.346542 
	C326.949188,252.318329 395.947510,252.325989 464.945862,252.326035 
	C506.944855,252.326050 548.944275,252.417526 590.942444,252.231140 
	C597.503723,252.202026 603.252563,253.658203 609.013672,256.737000 
	C680.709778,295.052063 752.479980,333.228485 824.227234,371.447876 
	C842.163635,381.002533 860.092896,390.570770 878.006714,400.167694 
	C880.276855,401.383881 882.432861,402.813110 884.513489,405.102814 
	C842.379456,406.383545 800.354248,405.862030 758.335815,405.759552 
	C716.008606,405.656342 673.681702,405.368744 631.355103,405.087494 
	C589.371765,404.808533 547.389465,404.351868 505.405914,404.129425 
	C463.074402,403.905212 420.740692,404.031128 378.410126,403.712555 
	C336.097717,403.394104 293.788055,402.715240 250.532364,402.137329 
z"/>
<path fill="#D6A479" opacity="1.000000" stroke="none" 
	d="
M511.088806,2188.174316 
	C514.557434,2188.175293 517.155518,2188.175293 521.969971,2188.175293 
	C519.007996,2190.578613 517.780640,2191.876953 516.298218,2192.734131 
	C451.192719,2230.381836 386.063782,2267.989014 320.940521,2305.605713 
	C312.008362,2310.765137 302.819824,2315.542725 294.248474,2321.246094 
	C286.683655,2326.279785 278.892670,2328.548828 269.838440,2327.903320 
	C262.307861,2327.366211 254.708588,2327.793213 245.762161,2327.793213 
	C246.593674,2279.498291 247.833618,2232.504395 249.721405,2184.644043 
	C258.521179,2184.644043 266.080261,2184.496338 273.630463,2184.691406 
	C279.599487,2184.845459 285.555664,2185.720459 291.520966,2185.759766 
	C330.818512,2186.020264 370.118896,2185.955811 409.414581,2186.364014 
	C443.018463,2186.712891 476.617249,2187.551514 511.088806,2188.174316 
z"/>
<path fill="#D18679" opacity="1.000000" stroke="none" 
	d="
M375.999817,191.788132 
	C333.777405,192.279449 292.554962,192.769592 251.478333,193.258011 
	C248.952454,183.380386 251.882751,51.177822 254.655685,42.703407 
	C254.927124,42.550995 255.183853,42.354046 255.473999,42.258266 
	C255.785904,42.155300 256.141083,42.067448 256.456268,42.114502 
	C257.107727,42.211746 257.826080,42.261120 258.376892,42.575520 
	C341.979034,90.293411 425.569458,138.031860 509.150208,185.787186 
	C510.245026,186.412720 511.210602,187.264496 513.752808,189.113541 
	C510.054901,189.456024 507.977997,189.781677 505.896118,189.817551 
	C497.899048,189.955475 489.899750,189.960571 481.902435,190.087036 
	C446.934662,190.639954 411.967346,191.218033 375.999817,191.788132 
z"/>
</svg>