<svg version="1.1" id="Layer_1" xmlns="http://www.w3.org/2000/svg" xmlns:xlink="http://www.w3.org/1999/xlink" x="0px" y="0px"
	 width="100%" viewBox="0 0 2362 2362" enable-background="new 0 0 2362 2362" xml:space="preserve">
<path fill="#F8F1DE" opacity="1.000000" stroke="none" 
	d="
M1380.000000,2364.000000 
	C920.000000,2364.000000 461.000000,2364.000000 2.000000,2364.000000 
	C2.000000,1576.666626 2.000000,789.333313 2.000000,2.000000 
	C789.333313,2.000000 1576.666626,2.000000 2364.000000,2.000000 
	C2364.000000,789.333313 2364.000000,1576.666626 2364.000000,2364.000000 
	C2036.333374,2364.000000 1708.666626,2364.000000 1380.000000,2364.000000 
M1661.879883,891.912292 
	C1632.706543,891.883972 1603.533325,891.855652 1574.065674,889.995178 
	C1574.165649,872.054871 1574.265625,854.114502 1576.175781,836.127014 
	C1584.894043,835.993896 1593.612183,835.860779 1602.330444,835.727661 
	C1602.512085,834.976196 1602.693726,834.224731 1602.875366,833.473328 
	C1593.446411,828.145996 1584.017578,822.818665 1574.177246,815.722168 
	C1574.057251,777.246155 1573.937378,738.770142 1573.817383,700.287354 
	C1515.672974,700.287354 1458.831543,700.287354 1401.789795,700.287354 
	C1401.492188,703.734070 1401.236206,706.699768 1399.615112,709.589172 
	C1395.726074,707.941101 1391.576294,706.724854 1387.996460,704.564514 
	C1376.980225,697.916504 1365.975586,691.207458 1355.375732,683.926514 
	C1348.997803,679.545532 1342.425537,678.355408 1334.860596,678.358154 
	C978.199768,678.488220 621.538940,678.471436 264.878143,678.471985 
	C262.211548,678.471985 259.532288,678.321167 256.882263,678.532776 
	C254.702805,678.706909 252.558060,679.315369 249.520462,679.900208 
	C249.520462,686.676697 249.520462,692.979614 248.035049,699.605530 
	C245.582932,699.890686 243.130814,700.175842 240.312256,700.503662 
	C243.249985,708.001526 245.952194,714.898315 248.294907,723.654358 
	C247.536392,760.671875 246.777893,797.689453 246.004425,835.437195 
	C263.708130,835.437195 280.175323,835.437195 297.617767,836.451599 
	C305.383606,854.986938 313.149475,873.522278 318.909485,892.027161 
	C294.817932,892.307678 270.695007,891.341980 246.628235,892.598083 
	C246.628235,946.249390 246.628235,998.651001 246.628235,1051.009521 
	C248.112686,1051.533569 249.019882,1052.134644 249.926590,1052.133911 
	C295.804199,1052.097534 341.681793,1052.010132 387.559326,1051.918823 
	C387.884338,1051.918213 388.209045,1051.785522 389.534058,1052.670166 
	C397.420654,1071.168579 405.307281,1089.666992 411.159241,1108.281738 
	C356.393829,1108.336304 301.628448,1108.390991 247.092529,1108.445312 
	C244.986267,1123.004395 245.644043,1258.110229 247.739594,1265.363647 
	C249.548752,1265.525146 251.497574,1265.849731 253.446594,1265.851074 
	C328.982697,1265.899414 404.518829,1265.918091 481.039276,1266.948242 
	C489.542206,1287.307007 498.045135,1307.665649 504.601196,1328.141113 
	C430.618622,1328.214355 356.635864,1328.217773 282.653748,1328.439819 
	C272.114014,1328.471558 261.577423,1329.563721 251.287567,1330.151001 
	C248.544952,1343.260986 245.690140,1459.531494 248.028351,1467.832275 
	C251.707230,1467.832275 255.646774,1467.832275 259.586304,1467.832275 
	C366.892456,1467.832275 474.198608,1467.832275 581.504761,1467.832275 
	C708.139709,1467.832153 834.774597,1467.832275 961.409546,1467.832275 
	C1104.707153,1467.832275 1248.004883,1467.832153 1391.302490,1467.832275 
	C1503.276123,1467.832275 1615.249634,1467.787720 1727.223145,1467.939941 
	C1734.189697,1467.949341 1740.155884,1466.352173 1746.034302,1462.710083 
	C1780.281006,1441.491943 1814.674927,1420.511719 1848.950562,1399.340088 
	C1858.827026,1393.239380 1868.477051,1386.772339 1880.043701,1380.140503 
	C1904.773315,1380.096069 1929.263062,1377.849365 1953.351562,1372.036865 
	C2006.291870,1359.262329 2050.990967,1333.211304 2083.805664,1289.085449 
	C2122.047363,1237.662231 2133.818604,1178.913940 2129.160889,1116.154663 
	C2127.899902,1099.165894 2123.619629,1082.706177 2116.817139,1066.960693 
	C2102.486084,1033.789429 2077.951904,1010.114990 2047.384888,992.038330 
	C2021.410034,976.677429 1993.354980,966.363770 1964.533325,957.835815 
	C1940.605347,950.755798 1916.654663,943.699829 1892.994019,935.794983 
	C1883.302979,932.557312 1874.083496,927.586304 1865.129395,922.550476 
	C1855.222778,916.979004 1850.169189,907.786072 1848.584839,896.544556 
	C1845.057251,871.511780 1857.229492,850.790771 1880.994751,842.172791 
	C1898.070435,835.980652 1915.691650,836.069275 1933.276733,839.133362 
	C1965.249023,844.704407 1992.939087,859.398438 2017.765625,879.909058 
	C2020.514160,882.179810 2023.314453,884.388367 2026.809082,887.204651 
	C2049.999512,841.382690 2072.760254,796.410400 2095.403809,751.669189 
	C2093.748779,750.106873 2093.096680,749.335632 2092.299805,748.767822 
	C2089.859619,747.029297 2087.396729,745.318420 2084.885010,743.685669 
	C2052.743408,722.791870 2017.774780,708.407776 1980.760986,698.888611 
	C1923.014038,684.037292 1865.350464,683.562927 1808.340698,702.104309 
	C1749.229858,721.329102 1705.459717,758.296936 1680.694092,816.195923 
	C1670.360596,840.354797 1665.993408,865.886169 1661.879883,891.912292 
M1171.000000,1754.276123 
	C1143.002197,1754.244873 1115.004517,1754.212036 1087.006714,1754.182861 
	C1059.342407,1754.154053 1031.678101,1754.140991 1004.013733,1754.098633 
	C976.016174,1754.055664 948.018555,1753.973877 920.020996,1753.930786 
	C892.023315,1753.887695 864.025696,1753.868530 836.028015,1753.843994 
	C808.030396,1753.819336 780.031128,1753.981812 752.035645,1753.728638 
	C724.400940,1753.478760 696.771729,1752.635376 669.137024,1752.376465 
	C641.141541,1752.114258 613.142273,1752.239746 585.144653,1752.211914 
	C557.146973,1752.183960 529.149292,1752.193237 501.151642,1752.155518 
	C473.154022,1752.117798 445.156464,1752.035889 417.158875,1751.985107 
	C389.494568,1751.934814 361.830170,1751.843262 334.165955,1751.872559 
	C306.326569,1751.901978 278.477783,1751.583984 249.622177,1752.057007 
	C248.305923,1805.939941 247.025208,1858.368042 245.726761,1911.522217 
	C250.354813,1911.786255 253.595947,1912.132568 256.837128,1912.132935 
	C495.817261,1912.158081 734.797363,1912.135376 973.777466,1912.267944 
	C980.101440,1912.271484 985.454102,1910.651001 990.719727,1907.488525 
	C1070.651733,1859.482422 1150.618530,1811.534302 1230.552734,1763.531494 
	C1233.521362,1761.748657 1236.240356,1759.549683 1240.435425,1756.583130 
	C1216.697754,1753.675415 1194.833618,1754.382202 1171.000000,1754.276123 
M555.000000,622.480896 
	C785.355774,622.480896 1015.711548,622.480896 1246.067383,622.480896 
	C1244.055786,619.062378 1241.752930,617.321716 1239.276611,615.878540 
	C1156.695557,567.749756 1074.052490,519.726685 991.587769,471.399414 
	C984.926575,467.495728 978.478760,465.876434 970.902649,465.881012 
	C768.630737,466.003174 566.358765,465.978149 364.086823,465.978180 
	C328.430969,465.978180 292.775116,465.962097 257.119324,466.004364 
	C253.614349,466.008514 250.109802,466.371643 246.686371,466.563568 
	C246.686371,518.963257 246.686371,570.128296 246.686371,622.481934 
	C349.251221,622.481934 451.125610,622.481934 555.000000,622.480896 
M642.203491,2113.195801 
	C725.500244,2066.552002 876.389343,1977.719604 881.263245,1972.594360 
	C670.087769,1972.594360 458.611877,1972.594360 246.602127,1972.594360 
	C246.602127,2025.016602 246.602127,2076.763916 246.602127,2129.764404 
	C251.201431,2129.764404 255.106918,2129.727295 259.011505,2129.769775 
	C316.628204,2130.397705 374.243530,2131.202881 431.861694,2131.625244 
	C488.843445,2132.042725 545.828003,2132.140869 602.811279,2132.143066 
	C606.923767,2132.143066 611.416382,2130.941895 615.073303,2129.035156 
	C623.918457,2124.423584 632.373779,2119.064453 642.203491,2113.195801 
M603.000000,404.237305 
	C696.657654,406.008820 790.318848,405.755157 884.157898,405.120117 
	C880.955933,402.158966 877.618774,400.119568 874.169739,398.291168 
	C857.395386,389.398499 840.562622,380.615784 823.802307,371.696960 
	C751.766602,333.364044 679.735291,295.022644 607.752075,256.591278 
	C602.292542,253.676437 596.768494,252.392273 590.573181,252.397873 
	C479.280212,252.498672 367.987152,252.466431 256.694092,252.493271 
	C253.463989,252.494049 250.233948,252.828613 246.707977,253.023941 
	C246.707977,302.988068 246.707977,352.084412 246.707977,401.738678 
	C365.270416,404.248291 483.138519,403.857025 603.000000,404.237305 
M448.670929,2231.688965 
	C472.606110,2217.829590 496.541290,2203.970459 520.476501,2190.111084 
	C520.230652,2189.566895 519.984802,2189.022949 519.738953,2188.478760 
	C430.135834,2187.313965 340.532715,2186.149170 251.064850,2184.986084 
	C247.692215,2203.645996 244.942078,2316.888184 247.734299,2327.585693 
	C258.727966,2327.585693 269.978912,2327.772949 281.214478,2327.438721 
	C283.653534,2327.366211 286.154480,2325.626709 288.428680,2324.312012 
	C341.422424,2293.684570 394.388794,2263.009521 448.670929,2231.688965 
M252.388443,65.449066 
	C252.142822,86.766479 252.474945,108.110672 251.488525,129.393753 
	C250.508514,150.539124 249.613693,171.623840 250.513290,193.795639 
	C259.901611,193.286621 268.134338,192.564301 276.376190,192.438370 
	C328.315369,191.644730 380.255951,190.931992 432.197388,190.301834 
	C455.845734,190.014923 479.497131,189.975922 503.147125,189.829681 
	C505.979004,189.812164 508.811066,189.827301 512.643005,189.827301 
	C503.378113,181.530441 261.858521,44.258881 254.205902,42.750687 
	C253.607086,49.716885 253.011719,56.643089 252.388443,65.449066 
M477.491608,1554.195679 
	C459.698517,1560.785400 448.091675,1573.421265 442.596619,1591.333496 
	C437.885345,1606.690796 438.295471,1622.237793 443.810181,1637.425415 
	C450.324829,1655.366821 462.968597,1667.078125 481.544739,1671.105957 
	C500.508392,1675.217773 518.667480,1673.046143 534.256409,1659.932373 
	C535.143494,1659.186035 536.377014,1658.851440 537.774963,1658.165283 
	C538.079895,1662.438599 538.336853,1666.039185 538.611572,1669.889160 
	C547.507629,1669.889160 556.007446,1669.889160 564.725952,1669.889160 
	C564.725952,1603.216431 564.725952,1537.110474 564.725952,1470.649780 
	C555.759949,1470.649780 547.346741,1470.649780 538.160156,1470.649780 
	C538.160156,1479.243530 538.160156,1487.176025 538.160156,1495.108521 
	C538.160156,1503.098389 538.160156,1511.088257 538.160156,1519.078125 
	C538.160156,1527.400879 538.329712,1535.728149 538.110474,1544.045044 
	C537.907898,1551.731323 539.151672,1559.547607 537.071472,1567.716309 
	C519.929626,1551.197876 500.459717,1548.259644 477.491608,1554.195679 
M1549.778076,1573.958618 
	C1567.501953,1573.783447 1573.823486,1579.581299 1575.025635,1597.212769 
	C1575.206543,1599.867676 1575.133301,1602.541626 1575.134399,1605.206787 
	C1575.142334,1624.200195 1575.113159,1643.193726 1575.169922,1662.186890 
	C1575.177490,1664.727905 1575.600830,1667.267578 1575.829468,1669.783691 
	C1584.659180,1669.783691 1592.822021,1669.783691 1601.479492,1669.783691 
	C1601.479492,1641.240356 1602.245361,1613.297363 1601.181641,1585.424194 
	C1600.579224,1569.639038 1592.170776,1557.238281 1576.007446,1552.972412 
	C1559.508789,1548.618286 1544.244873,1551.517578 1532.032959,1564.626587 
	C1530.467285,1566.307251 1528.881958,1567.969482 1527.061768,1569.898926 
	C1522.243164,1562.400635 1516.484253,1556.589722 1508.247681,1553.641602 
	C1499.796997,1550.616821 1490.919678,1549.858032 1482.758423,1552.907104 
	C1475.417358,1555.649902 1468.961426,1560.761108 1462.121460,1564.836548 
	C1461.810913,1561.312500 1461.500366,1557.788330 1461.176636,1554.114502 
	C1452.221069,1554.114502 1444.002441,1554.114502 1435.377441,1554.114502 
	C1435.377441,1592.959473 1435.377441,1631.360962 1435.377441,1669.907349 
	C1444.322876,1669.907349 1452.528198,1669.907349 1461.763306,1669.907349 
	C1461.763306,1666.167358 1461.762817,1662.927246 1461.763428,1659.687256 
	C1461.766846,1640.360596 1461.622437,1621.031982 1461.876465,1601.708618 
	C1461.940918,1596.801758 1462.534302,1591.646729 1464.174316,1587.067749 
	C1467.797974,1576.949951 1476.993286,1572.333984 1488.352417,1574.010376 
	C1497.177246,1575.312866 1502.823608,1581.711914 1503.967285,1592.127686 
	C1504.402222,1596.088135 1504.345947,1600.112915 1504.353394,1604.108521 
	C1504.389282,1623.435181 1504.347046,1642.761963 1504.399414,1662.088379 
	C1504.406372,1664.651123 1504.796753,1667.212891 1504.996582,1669.619629 
	C1514.137329,1669.619629 1522.579590,1669.619629 1531.629639,1669.619629 
	C1531.629639,1665.206177 1531.626587,1661.586426 1531.630371,1657.966675 
	C1531.651611,1637.307373 1531.479248,1616.645508 1531.768799,1595.989868 
	C1531.947632,1583.241821 1535.900391,1578.418701 1549.778076,1573.958618 
M919.717102,1470.380249 
	C919.146240,1473.850830 918.083557,1477.320557 918.077637,1480.792114 
	C917.975830,1540.429688 918.004456,1600.067505 918.004456,1659.705200 
	C918.004456,1662.943237 918.004456,1666.181274 918.004456,1669.604126 
	C927.445496,1669.604126 935.847290,1669.604126 944.596497,1669.604126 
	C944.596497,1648.505859 944.502380,1628.192505 944.663879,1607.881104 
	C944.703308,1602.923584 944.968384,1597.815430 946.190674,1593.048584 
	C949.583313,1579.818359 961.747070,1572.298584 976.139709,1573.945312 
	C988.074890,1575.310669 994.737915,1583.450562 995.581543,1597.780029 
	C995.718506,1600.105103 995.650391,1602.443115 995.651123,1604.775146 
	C995.656372,1621.100586 995.654724,1637.425903 995.655334,1653.751343 
	C995.655518,1658.994507 995.655396,1664.237549 995.655396,1669.602539 
	C1005.047424,1669.602539 1013.426270,1669.602539 1022.220642,1669.602539 
	C1022.220642,1658.846680 1022.230896,1648.876709 1022.218384,1638.906738 
	C1022.197021,1621.915283 1022.487183,1604.915405 1022.042236,1587.934814 
	C1021.574402,1570.077393 1011.386108,1556.917236 994.705994,1552.955688 
	C978.266357,1549.051392 962.896423,1551.233276 950.286438,1563.846680 
	C948.991577,1565.141846 947.525208,1566.265503 944.508789,1568.882812 
	C944.508789,1534.910522 944.508789,1502.868530 944.508789,1470.058594 
	C936.103821,1470.058594 928.842041,1470.058594 919.717102,1470.380249 
M1175.000488,1631.724487 
	C1179.845825,1648.653931 1189.408203,1661.922119 1206.157593,1668.365845 
	C1228.955322,1677.136475 1250.339966,1673.657471 1269.991211,1657.607056 
	C1270.292358,1662.319580 1270.518677,1665.863037 1270.770630,1669.807251 
	C1279.798950,1669.807251 1288.249023,1669.807251 1297.129150,1669.807251 
	C1297.129150,1631.067383 1297.129150,1592.929810 1297.129150,1554.237671 
	C1288.180908,1554.237671 1279.722656,1554.237671 1270.974243,1554.237671 
	C1270.511963,1558.720947 1270.101440,1562.702026 1269.616455,1567.405518 
	C1243.293945,1540.544312 1187.643188,1545.431274 1174.645630,1594.543335 
	C1171.518066,1606.361328 1171.754761,1618.274658 1175.000488,1631.724487 
M1054.850952,1652.098022 
	C1077.787476,1683.136353 1141.030029,1678.716919 1155.364502,1643.167114 
	C1149.370972,1639.341309 1143.289673,1635.459473 1136.622559,1631.203735 
	C1124.900635,1647.693481 1109.930908,1655.225830 1090.513550,1648.419434 
	C1077.611816,1643.897095 1071.940796,1633.347168 1069.483887,1619.009033 
	C1099.959839,1619.009033 1129.446045,1619.009033 1159.806885,1619.009033 
	C1159.049438,1611.809814 1158.755737,1605.845093 1157.750854,1600.002686 
	C1152.777466,1571.087158 1133.497070,1552.961060 1106.348755,1551.418457 
	C1076.432495,1549.718872 1052.648926,1565.854736 1045.125854,1593.651733 
	C1039.647339,1613.893677 1041.802734,1633.273926 1054.850952,1652.098022 
M601.184509,1653.749146 
	C624.930237,1683.077271 686.817627,1677.959961 700.207947,1643.021484 
	C694.239624,1639.228271 688.162354,1635.365723 681.648743,1631.226074 
	C669.788757,1647.719482 654.867371,1655.220337 635.470459,1648.396606 
	C622.570435,1643.858521 616.893433,1633.390869 614.563660,1619.060303 
	C625.536560,1619.060303 635.453613,1619.060425 645.370605,1619.060425 
	C655.025146,1619.060425 664.683899,1619.238525 674.333069,1619.010498 
	C684.133362,1618.779053 694.027832,1620.043335 705.272705,1617.904053 
	C703.580139,1608.471313 702.790771,1599.501221 700.296875,1591.033081 
	C692.887817,1565.874878 674.610168,1552.034302 649.099426,1551.323730 
	C622.437073,1550.581299 600.385071,1564.282837 592.004761,1588.153564 
	C584.068787,1610.758667 585.631958,1632.675781 601.184509,1653.749146 
M723.316833,1641.517822 
	C729.121033,1652.901611 737.808838,1661.406494 749.493042,1666.476929 
	C769.744629,1675.264893 790.267822,1675.463013 810.387573,1666.313965 
	C834.305298,1655.437622 846.655090,1631.526733 843.888733,1602.930908 
	C841.523560,1578.481934 825.126343,1559.284790 799.849915,1553.757446 
	C789.678772,1551.533203 778.613098,1551.175049 768.258484,1552.445190 
	C740.640381,1555.833374 721.320374,1575.736938 717.071533,1603.251343 
	C715.080261,1616.145508 717.516724,1628.369507 723.316833,1641.517822 
M1909.931885,1570.959106 
	C1908.069336,1573.297363 1906.046265,1575.526245 1904.368774,1577.990479 
	C1885.468750,1605.752563 1892.481689,1655.153809 1933.245361,1668.846802 
	C1950.532471,1674.653564 1968.079834,1674.798462 1984.985840,1667.808594 
	C2008.897461,1657.922241 2021.125244,1639.312378 2022.072388,1613.614624 
	C2023.046997,1587.173096 2010.950806,1567.228027 1988.956177,1557.151978 
	C1968.657593,1547.853271 1932.197510,1547.751465 1909.931885,1570.959106 
M1636.222168,1727.164917 
	C1635.619873,1728.948120 1635.017700,1730.731201 1634.221680,1733.087891 
	C1644.278198,1733.087891 1653.496216,1733.087891 1662.533325,1733.087891 
	C1672.056885,1717.505859 1743.851440,1561.025757 1744.668213,1554.151123 
	C1735.767822,1554.151123 1726.875244,1554.151123 1717.634521,1554.151123 
	C1705.400391,1581.462036 1693.276489,1608.526978 1680.145996,1637.838867 
	C1666.507324,1608.185547 1653.957764,1580.900146 1641.498657,1553.811523 
	C1631.069702,1553.813477 1621.676636,1553.230591 1611.351074,1554.214355 
	C1613.494995,1558.813477 1614.958130,1562.110107 1616.550293,1565.343018 
	C1631.684937,1596.076660 1646.669800,1626.886230 1662.135132,1657.452759 
	C1665.286743,1663.681641 1665.713379,1668.539062 1662.316040,1674.912720 
	C1653.402100,1691.635010 1645.344360,1708.813477 1636.222168,1727.164917 
M2043.860718,1597.000000 
	C2043.872559,1607.983032 2043.661621,1618.971680 2043.944946,1629.947754 
	C2044.465698,1650.120361 2055.584717,1665.031982 2075.134766,1670.011597 
	C2083.663086,1672.183838 2092.937500,1672.813110 2101.748291,1672.235718 
	C2130.612305,1670.344238 2147.332031,1652.271973 2147.577393,1623.556885 
	C2147.756348,1602.590820 2147.639893,1581.621948 2147.572754,1560.654663 
	C2147.565674,1558.478882 2146.996826,1556.304932 2146.698975,1554.203369 
	C2137.817627,1554.203369 2129.612549,1554.203369 2120.383301,1554.203369 
	C2120.383301,1557.927856 2120.383301,1561.177368 2120.383301,1564.426880 
	C2120.383301,1581.733398 2120.402100,1599.039917 2120.369141,1616.346436 
	C2120.361572,1620.337769 2120.437012,1624.355835 2120.025879,1628.315186 
	C2118.650879,1641.560181 2110.230469,1649.355957 2096.977295,1649.924194 
	C2082.442871,1650.547363 2073.530273,1643.517578 2071.111572,1629.280273 
	C2070.558594,1626.025635 2070.492920,1622.660767 2070.482422,1619.345825 
	C2070.423828,1601.041138 2070.451416,1582.735962 2070.449707,1564.431030 
	C2070.449219,1561.187744 2070.449463,1557.944458 2070.449463,1554.430908 
	C2061.133789,1554.430908 2052.759033,1554.430908 2043.860718,1554.430908 
	C2043.860718,1568.448608 2043.860718,1581.724487 2043.860718,1597.000000 
M1855.567017,1574.489990 
	C1859.178223,1576.670166 1862.789429,1578.850342 1866.822632,1581.285278 
	C1870.413940,1575.619141 1873.702637,1570.430298 1877.144043,1565.000610 
	C1861.828857,1551.272705 1845.112427,1548.472168 1827.049316,1553.507446 
	C1811.687622,1557.789795 1802.462036,1569.964233 1802.060059,1584.676025 
	C1801.642822,1599.941528 1808.871582,1610.176880 1824.566772,1616.318115 
	C1827.963135,1617.646973 1831.493652,1618.640747 1834.984375,1619.718018 
	C1838.473999,1620.795166 1842.091919,1621.528198 1845.475220,1622.864014 
	C1852.722778,1625.725464 1855.719360,1629.949585 1855.396484,1636.162720 
	C1855.057495,1642.686523 1850.953979,1647.944580 1844.187012,1649.884644 
	C1833.781982,1652.867676 1824.366089,1650.359497 1816.173096,1643.646362 
	C1812.885132,1640.952148 1810.326172,1637.367920 1807.020630,1633.732544 
	C1801.603760,1639.773071 1796.824707,1645.102417 1791.988892,1650.495117 
	C1805.346313,1673.484131 1843.343384,1679.438965 1864.340088,1665.091309 
	C1870.827393,1660.658325 1875.781982,1654.928589 1878.450439,1647.472534 
	C1884.371704,1630.927612 1882.499146,1612.121216 1860.580688,1603.031372 
	C1855.680664,1600.999268 1850.530640,1599.578003 1845.570801,1597.679443 
	C1841.550659,1596.140869 1837.444214,1594.653442 1833.737427,1592.516602 
	C1829.318848,1589.969238 1827.358643,1585.746704 1828.420532,1580.610718 
	C1829.417480,1575.789185 1833.008179,1572.797485 1837.482178,1572.555786 
	C1842.983887,1572.258301 1848.564453,1573.418457 1855.567017,1574.489990 
M1353.843140,1660.708008 
	C1353.842896,1602.093994 1353.849854,1543.479858 1353.828369,1484.865845 
	C1353.826782,1480.544189 1353.631104,1476.222168 1353.484131,1471.901733 
	C1353.475220,1471.641357 1353.108276,1471.382324 1352.885864,1471.143066 
	C1352.661377,1470.901733 1352.409424,1470.685791 1351.682617,1469.998169 
	C1348.212402,1469.998169 1344.228149,1469.998169 1340.243896,1469.998169 
	C1336.062134,1469.998169 1331.880493,1469.998169 1327.629395,1469.998169 
	C1327.629395,1537.487061 1327.629395,1603.585938 1327.629395,1669.868896 
	C1336.472046,1669.868896 1344.661255,1669.868896 1353.408691,1669.868896 
	C1353.572021,1667.152954 1353.707886,1664.894287 1353.843140,1660.708008 
M358.750549,1553.683105 
	C353.492523,1553.683105 348.234467,1553.683105 343.352051,1553.683105 
	C331.760651,1577.019409 320.676758,1599.333862 308.845276,1623.153442 
	C296.934143,1599.057495 285.673706,1576.277954 274.926178,1554.535889 
	C264.421387,1554.535889 255.393539,1554.535889 245.270554,1554.535889 
	C266.357880,1595.380371 286.850586,1635.073242 308.244781,1676.512207 
	C330.092041,1634.608887 350.876740,1594.743530 372.284454,1553.683228 
	C367.159363,1553.683228 363.855042,1553.683228 358.750549,1553.683105 
M2189.074951,1670.391724 
	C2193.304443,1670.391724 2197.533936,1670.391724 2201.565918,1670.391724 
	C2203.730957,1654.323608 2202.998535,1477.324219 2200.979492,1470.772461 
	C2192.761475,1470.772461 2184.643311,1470.772461 2176.651611,1470.772461 
	C2176.651611,1537.598633 2176.651611,1603.650269 2176.651611,1670.391846 
	C2180.563232,1670.391846 2183.846191,1670.391846 2189.074951,1670.391724 
M415.396362,1660.374268 
	C415.396362,1625.159668 415.396362,1589.945190 415.396362,1554.230347 
	C412.150391,1553.992920 409.564240,1553.675903 406.974182,1553.640137 
	C401.049774,1553.558472 395.123505,1553.614258 389.000580,1553.614258 
	C389.000580,1593.000732 389.000580,1631.392212 389.000580,1669.895508 
	C398.021759,1669.895508 406.459686,1669.895508 415.396667,1669.895508 
	C415.396667,1666.822632 415.396667,1664.515015 415.396362,1660.374268 
M385.996613,1514.366333 
	C386.454681,1515.950073 386.655975,1517.670532 387.413757,1519.094849 
	C391.413757,1526.613525 399.625580,1529.644043 407.755920,1526.750244 
	C415.683502,1523.928467 419.735565,1516.021118 417.660004,1507.423462 
	C415.791382,1499.682983 408.978577,1495.140381 400.248322,1495.813721 
	C391.216339,1496.510376 386.954041,1501.534546 385.996613,1514.366333 
z"/>
<path fill="#493628" opacity="1.000000" stroke="none" 
	d="
M1400.980225,709.665466 
	C1401.236206,706.699768 1401.492188,703.734070 1401.789795,700.287354 
	C1458.831543,700.287354 1515.672974,700.287354 1573.817383,700.287354 
	C1573.937378,738.770142 1574.057251,777.246155 1574.181152,817.535278 
	C1574.245361,824.956970 1574.305542,830.565613 1574.365601,836.174194 
	C1574.265625,854.114502 1574.165649,872.054871 1574.065674,891.847046 
	C1574.045410,943.934387 1574.017700,994.169800 1574.025391,1044.405273 
	C1574.025757,1047.055420 1574.324951,1049.705688 1574.303955,1053.252319 
	C1574.166138,1072.102417 1574.209229,1090.056030 1574.119629,1108.937866 
	C1573.993774,1154.705322 1573.980835,1199.544678 1574.025879,1244.383911 
	C1574.033813,1252.346924 1574.283081,1260.309570 1574.250488,1269.178223 
	C1574.164551,1288.697632 1574.249023,1307.311157 1574.189331,1326.856689 
	C1574.045166,1340.970947 1574.045166,1354.153198 1574.045166,1367.076660 
	C1559.807007,1369.418579 1408.726929,1368.724609 1400.854004,1366.134644 
	C1400.854004,1352.931152 1400.854004,1339.341309 1401.023926,1324.838379 
	C1401.064575,1305.442261 1400.935181,1286.959351 1401.036377,1267.537842 
	C1401.325439,1214.624756 1401.386353,1162.650269 1401.423828,1110.675903 
	C1401.424561,1109.691650 1401.145752,1108.707153 1401.108276,1106.868896 
	C1401.219238,1103.449585 1401.219238,1100.884277 1401.219238,1098.528931 
	C1389.506226,1096.146973 1167.781128,1096.667603 1160.767212,1098.953735 
	C1160.767212,1101.854736 1160.767212,1104.817261 1160.594849,1108.714722 
	C1160.409546,1156.545166 1160.381348,1203.440918 1160.402954,1250.336548 
	C1160.405762,1256.312622 1160.669922,1262.288818 1160.694092,1269.183472 
	C1160.804077,1289.229126 1161.032837,1308.356079 1160.975342,1328.411133 
	C1160.476440,1342.149292 1160.263672,1354.959351 1160.054321,1367.569092 
	C1137.861206,1369.739380 995.591370,1368.774048 987.384888,1366.216919 
	C987.384888,1353.613281 987.384888,1340.667480 987.560303,1326.817627 
	C987.687622,1306.631836 987.639587,1287.350220 987.730225,1267.136963 
	C987.864014,1255.918579 987.871765,1245.631958 987.852051,1235.345459 
	C987.770569,1192.878784 987.680786,1150.411987 987.702576,1107.008545 
	C987.657959,1088.184326 987.504944,1070.296631 987.528809,1051.461426 
	C987.757202,1013.571045 987.851379,976.628113 987.840149,939.685242 
	C987.835327,923.717285 987.612793,907.749390 987.630005,890.864685 
	C987.677490,872.042053 987.584229,854.136108 987.635742,835.289062 
	C987.780579,789.883240 987.780579,745.418579 987.780579,700.398804 
	C1045.782837,700.398804 1102.461304,700.398804 1160.395142,700.398804 
	C1160.395142,704.513550 1160.395142,708.076660 1160.395142,711.639832 
	C1160.394897,744.572510 1160.361206,777.505188 1160.417236,810.437744 
	C1160.432007,819.074646 1160.724731,827.710938 1160.749268,837.256714 
	C1160.697266,855.991516 1160.786133,873.817078 1160.691162,892.584351 
	C1160.461304,903.836243 1160.331543,914.147034 1160.392944,924.456726 
	C1160.453369,934.606506 1160.003174,944.796387 1160.697144,954.662537 
	C1177.287964,956.579285 1392.881714,955.868652 1401.460327,953.709961 
	C1401.292480,933.238342 1402.192627,912.427979 1401.017212,890.689331 
	C1401.064697,871.994568 1400.953247,854.201782 1401.064575,835.473206 
	C1401.354614,802.224365 1401.463013,769.911438 1401.462891,737.598450 
	C1401.462891,728.287476 1401.149780,718.976440 1400.980225,709.665466 
z"/>
<path fill="#493628" opacity="1.000000" stroke="none" 
	d="
M506.548096,1328.024414 
	C498.045135,1307.665649 489.542206,1287.307007 480.485596,1265.713867 
	C474.635559,1251.968018 469.376831,1239.440186 464.035858,1226.947632 
	C447.105072,1187.346436 430.143524,1147.758545 413.193909,1108.165405 
	C405.307281,1089.666992 397.420654,1071.168579 388.976196,1051.437744 
	C387.880768,1048.641479 387.436279,1047.037964 386.791931,1045.519531 
	C373.971985,1015.307983 361.197845,985.076721 348.267090,954.912598 
	C339.264435,933.911804 330.040405,913.005920 320.915344,892.057617 
	C313.149475,873.522278 305.383606,854.986938 297.048096,835.202759 
	C291.651550,822.353149 286.922607,810.710327 281.977783,799.159973 
	C270.927124,773.347168 259.768829,747.580505 248.654404,721.795044 
	C245.952194,714.898315 243.249985,708.001526 240.312256,700.503662 
	C243.130814,700.175842 245.582932,699.890686 249.733521,699.622742 
	C312.614197,699.639954 373.796417,699.639954 435.034485,699.639954 
	C436.650482,703.080261 438.050720,705.701660 439.143738,708.445435 
	C447.510956,729.448303 455.760345,750.498169 464.160492,771.487732 
	C472.803314,793.083618 481.575073,814.627869 490.341278,836.909912 
	C495.789917,851.340088 501.100922,865.090088 506.632233,878.750916 
	C508.579681,883.560608 511.066528,888.151978 513.312439,893.592896 
	C513.913940,896.237305 514.393799,898.177917 515.123291,900.019714 
	C530.750122,939.474243 546.353027,978.938477 562.087280,1018.350281 
	C566.613586,1029.687866 571.534363,1040.868164 576.251648,1052.861572 
	C579.170288,1061.294800 581.855896,1069.097900 585.126465,1076.647583 
	C588.254211,1083.867310 589.580933,1092.078369 596.466492,1099.407227 
	C602.723572,1082.766602 609.857727,1068.049194 614.481750,1051.672119 
	C629.377197,1014.377625 643.777161,977.556396 658.023682,940.675903 
	C664.238831,924.586609 670.139526,908.375793 676.675293,891.699707 
	C684.079285,872.795044 690.990906,854.410889 698.417847,835.533813 
	C715.309937,792.851135 731.680664,750.658813 748.068665,708.473267 
	C751.397400,699.904419 751.427246,699.815125 760.085999,699.810486 
	C818.037415,699.779236 875.988831,699.784607 933.940247,699.828186 
	C936.413635,699.830078 938.886719,700.324524 942.127197,700.671753 
	C940.967285,704.014099 940.246033,706.528137 939.239990,708.922485 
	C931.245728,727.947083 923.131470,746.921448 915.182312,765.964844 
	C905.447632,789.285950 895.837402,812.659058 885.777283,836.607056 
	C877.990540,854.778931 870.599854,872.353455 862.724915,890.411987 
	C860.819092,894.615356 859.498840,898.377319 857.960022,902.047668 
	C843.837585,935.733337 829.604370,969.372742 815.559448,1003.090637 
	C808.804077,1019.308105 802.383545,1035.665161 795.299805,1052.415894 
	C787.153015,1071.264526 779.517761,1089.656128 771.374146,1108.524170 
	C755.875793,1144.755615 740.820190,1180.483521 725.924927,1216.278076 
	C719.061340,1232.771851 712.511475,1249.395996 705.304077,1266.422607 
	C696.388184,1287.237549 687.987610,1307.590942 679.072998,1328.403564 
	C673.015381,1341.934692 667.471802,1355.006836 661.992737,1367.926880 
	C615.662231,1367.926880 570.246765,1367.926880 524.488037,1367.926880 
	C518.455261,1354.508667 512.501648,1341.266602 506.548096,1328.024414 
z"/>
<path fill="#4A3729" opacity="1.000000" stroke="none" 
	d="
M1663.714355,891.869690 
	C1665.993408,865.886169 1670.360596,840.354797 1680.694092,816.195923 
	C1705.459717,758.296936 1749.229858,721.329102 1808.340698,702.104309 
	C1865.350464,683.562927 1923.014038,684.037292 1980.760986,698.888611 
	C2017.774780,708.407776 2052.743408,722.791870 2084.885010,743.685669 
	C2087.396729,745.318420 2089.859619,747.029297 2092.299805,748.767822 
	C2093.096680,749.335632 2093.748779,750.106873 2095.403809,751.669189 
	C2072.760254,796.410400 2049.999512,841.382690 2026.809082,887.204651 
	C2023.314453,884.388367 2020.514160,882.179810 2017.765625,879.909058 
	C1992.939087,859.398438 1965.249023,844.704407 1933.276733,839.133362 
	C1915.691650,836.069275 1898.070435,835.980652 1880.994751,842.172791 
	C1857.229492,850.790771 1845.057251,871.511780 1848.584839,896.544556 
	C1850.169189,907.786072 1855.222778,916.979004 1865.129395,922.550476 
	C1874.083496,927.586304 1883.302979,932.557312 1892.994019,935.794983 
	C1916.654663,943.699829 1940.605347,950.755798 1964.533325,957.835815 
	C1993.354980,966.363770 2021.410034,976.677429 2047.384888,992.038330 
	C2077.951904,1010.114990 2102.486084,1033.789429 2116.817139,1066.960693 
	C2123.619629,1082.706177 2127.899902,1099.165894 2129.160889,1116.154663 
	C2133.818604,1178.913940 2122.047363,1237.662231 2083.805664,1289.085449 
	C2050.990967,1333.211304 2006.291870,1359.262329 1953.351562,1372.036865 
	C1929.263062,1377.849365 1904.773315,1380.096069 1878.220825,1380.097656 
	C1847.999146,1379.337769 1820.050537,1375.215942 1792.410767,1368.843750 
	C1750.978394,1359.291626 1711.622192,1344.231079 1673.610840,1323.696045 
	C1665.140869,1318.040771 1656.104492,1314.422241 1649.179077,1307.442017 
	C1651.572266,1303.076904 1653.716064,1299.333008 1655.703735,1295.508057 
	C1660.434448,1286.403809 1665.091431,1277.261353 1670.367432,1267.758545 
	C1690.293091,1232.511841 1709.629395,1197.640991 1729.331421,1162.110596 
	C1733.457397,1164.969971 1736.967651,1167.374023 1740.448853,1169.819458 
	C1774.685303,1193.870972 1811.654663,1211.443848 1853.578735,1216.946289 
	C1869.808838,1219.076538 1886.099121,1219.371582 1902.241699,1215.835205 
	C1926.005005,1210.629395 1941.300049,1195.244019 1945.076050,1171.560425 
	C1948.312256,1151.262817 1943.172852,1133.493896 1925.068970,1121.948608 
	C1915.367920,1115.761841 1904.491821,1111.417847 1893.410156,1106.015381 
	C1879.682007,1101.826050 1866.817017,1097.367554 1853.673218,1093.995483 
	C1815.357422,1084.165527 1777.602173,1072.974243 1743.233887,1052.647705 
	C1742.402832,1052.156250 1741.349365,1052.041260 1740.043335,1051.168701 
	C1738.054199,1049.445801 1736.436523,1048.282471 1734.786255,1047.167358 
	C1698.325073,1022.531006 1675.234375,989.180542 1667.210083,945.476868 
	C1663.937500,927.652954 1664.153320,909.782410 1663.714355,891.869690 
z"/>
<path fill="#D7AC79" opacity="1.000000" stroke="none" 
	d="
M1674.192383,1324.093506 
	C1711.622192,1344.231079 1750.978394,1359.291626 1792.410767,1368.843750 
	C1820.050537,1375.215942 1847.999146,1379.337769 1877.314453,1380.263916 
	C1868.477051,1386.772339 1858.827026,1393.239380 1848.950562,1399.340088 
	C1814.674927,1420.511719 1780.281006,1441.491943 1746.034302,1462.710083 
	C1740.155884,1466.352173 1734.189697,1467.949341 1727.223145,1467.939941 
	C1615.249634,1467.787720 1503.276123,1467.832275 1391.302490,1467.832275 
	C1248.004883,1467.832153 1104.707153,1467.832275 961.409546,1467.832275 
	C834.774597,1467.832275 708.139709,1467.832153 581.504761,1467.832275 
	C474.198608,1467.832275 366.892456,1467.832275 259.586304,1467.832275 
	C255.646774,1467.832275 251.707230,1467.832275 248.028351,1467.832275 
	C245.690140,1459.531494 248.544952,1343.260986 251.287567,1330.151001 
	C261.577423,1329.563721 272.114014,1328.471558 282.653748,1328.439819 
	C356.635864,1328.217773 430.618622,1328.214355 505.574646,1328.082764 
	C512.501648,1341.266602 518.455261,1354.508667 524.488037,1367.926880 
	C570.246765,1367.926880 615.662231,1367.926880 661.992737,1367.926880 
	C667.471802,1355.006836 673.015381,1341.934692 680.037598,1328.444336 
	C694.510742,1328.024536 707.505249,1328.033691 720.499695,1328.019653 
	C809.461426,1327.923096 898.423157,1327.821655 987.384888,1327.721802 
	C987.384888,1340.667480 987.384888,1353.613281 987.384888,1366.216919 
	C995.591370,1368.774048 1137.861206,1369.739380 1160.054321,1367.569092 
	C1160.263672,1354.959351 1160.476440,1342.149292 1161.820190,1328.436768 
	C1180.512939,1327.143066 1198.073730,1326.470093 1215.636475,1326.412231 
	C1273.399658,1326.221924 1331.163452,1326.263306 1388.927002,1326.182861 
	C1392.902832,1326.177246 1396.878296,1325.901611 1400.854004,1325.751587 
	C1400.854004,1339.341309 1400.854004,1352.931152 1400.854004,1366.134644 
	C1408.726929,1368.724609 1559.807007,1369.418579 1574.045166,1367.076660 
	C1574.045166,1354.153198 1574.045166,1340.970947 1575.102783,1326.890381 
	C1606.042236,1325.995972 1635.924316,1326.050537 1665.805664,1325.920532 
	C1668.603760,1325.908325 1671.396973,1324.730347 1674.192383,1324.093506 
z"/>
<path fill="#D7AC79" opacity="1.000000" stroke="none" 
	d="
M1172.000000,1754.279053 
	C1194.833618,1754.382202 1216.697754,1753.675415 1240.435425,1756.583130 
	C1236.240356,1759.549683 1233.521362,1761.748657 1230.552734,1763.531494 
	C1150.618530,1811.534302 1070.651733,1859.482422 990.719727,1907.488525 
	C985.454102,1910.651001 980.101440,1912.271484 973.777466,1912.267944 
	C734.797363,1912.135376 495.817261,1912.158081 256.837128,1912.132935 
	C253.595947,1912.132568 250.354813,1911.786255 245.726761,1911.522217 
	C247.025208,1858.368042 248.305923,1805.939941 249.622177,1752.057007 
	C278.477783,1751.583984 306.326569,1751.901978 334.165955,1751.872559 
	C361.830170,1751.843262 389.494568,1751.934814 417.158875,1751.985107 
	C445.156464,1752.035889 473.154022,1752.117798 501.151642,1752.155518 
	C529.149292,1752.193237 557.146973,1752.183960 585.144653,1752.211914 
	C613.142273,1752.239746 641.141541,1752.114258 669.137024,1752.376465 
	C696.771729,1752.635376 724.400940,1753.478760 752.035645,1753.728638 
	C780.031128,1753.981812 808.030396,1753.819336 836.028015,1753.843994 
	C864.025696,1753.868530 892.023315,1753.887695 920.020996,1753.930786 
	C948.018555,1753.973877 976.016174,1754.055664 1004.013733,1754.098633 
	C1031.678101,1754.140991 1059.342407,1754.154053 1087.006714,1754.182861 
	C1115.004517,1754.212036 1143.002197,1754.244873 1172.000000,1754.279053 
z"/>
<path fill="#D18578" opacity="1.000000" stroke="none" 
	d="
M554.000000,622.481445 
	C451.125610,622.481934 349.251221,622.481934 246.686371,622.481934 
	C246.686371,570.128296 246.686371,518.963257 246.686371,466.563568 
	C250.109802,466.371643 253.614349,466.008514 257.119324,466.004364 
	C292.775116,465.962097 328.430969,465.978180 364.086823,465.978180 
	C566.358765,465.978149 768.630737,466.003174 970.902649,465.881012 
	C978.478760,465.876434 984.926575,467.495728 991.587769,471.399414 
	C1074.052490,519.726685 1156.695557,567.749756 1239.276611,615.878540 
	C1241.752930,617.321716 1244.055786,619.062378 1246.067383,622.480896 
	C1015.711548,622.480896 785.355774,622.480896 554.000000,622.481445 
z"/>
<path fill="#D18679" opacity="1.000000" stroke="none" 
	d="
M490.290405,836.194702 
	C481.575073,814.627869 472.803314,793.083618 464.160492,771.487732 
	C455.760345,750.498169 447.510956,729.448303 439.143738,708.445435 
	C438.050720,705.701660 436.650482,703.080261 435.034485,699.639954 
	C373.796417,699.639954 312.614197,699.639954 250.476227,699.461304 
	C249.520462,692.979614 249.520462,686.676697 249.520462,679.900208 
	C252.558060,679.315369 254.702805,678.706909 256.882263,678.532776 
	C259.532288,678.321167 262.211548,678.471985 264.878143,678.471985 
	C621.538940,678.471436 978.199768,678.488220 1334.860596,678.358154 
	C1342.425537,678.355408 1348.997803,679.545532 1355.375732,683.926514 
	C1365.975586,691.207458 1376.980225,697.916504 1387.996460,704.564514 
	C1391.576294,706.724854 1395.726074,707.941101 1400.297607,709.627319 
	C1401.149780,718.976440 1401.462891,728.287476 1401.462891,737.598450 
	C1401.463013,769.911438 1401.354614,802.224365 1400.216187,835.365295 
	C1397.818115,836.127075 1396.491211,836.003296 1395.164429,836.003052 
	C1319.726807,835.991821 1244.289307,835.987061 1168.851685,836.003845 
	C1166.197754,836.004456 1163.543701,836.227966 1160.889893,836.347534 
	C1160.724731,827.710938 1160.432007,819.074646 1160.417236,810.437744 
	C1160.361206,777.505188 1160.394897,744.572510 1160.395142,711.639832 
	C1160.395142,708.076660 1160.395142,704.513550 1160.395142,700.398804 
	C1102.461304,700.398804 1045.782837,700.398804 987.780579,700.398804 
	C987.780579,745.418579 987.780579,789.883240 986.734192,835.252197 
	C952.516357,836.107605 919.344849,836.058655 886.173340,836.009705 
	C895.837402,812.659058 905.447632,789.285950 915.182312,765.964844 
	C923.131470,746.921448 931.245728,727.947083 939.239990,708.922485 
	C940.246033,706.528137 940.967285,704.014099 942.127197,700.671753 
	C938.886719,700.324524 936.413635,699.830078 933.940247,699.828186 
	C875.988831,699.784607 818.037415,699.779236 760.085999,699.810486 
	C751.427246,699.815125 751.397400,699.904419 748.068665,708.473267 
	C731.680664,750.658813 715.309937,792.851135 697.486694,835.533508 
	C679.726562,836.010803 663.412720,835.967712 647.098999,835.985657 
	C594.829468,836.043152 542.559937,836.123291 490.290405,836.194702 
z"/>
<path fill="#D7AC79" opacity="1.000000" stroke="none" 
	d="
M641.594849,2113.601318 
	C632.373779,2119.064453 623.918457,2124.423584 615.073303,2129.035156 
	C611.416382,2130.941895 606.923767,2132.143066 602.811279,2132.143066 
	C545.828003,2132.140869 488.843445,2132.042725 431.861694,2131.625244 
	C374.243530,2131.202881 316.628204,2130.397705 259.011505,2129.769775 
	C255.106918,2129.727295 251.201431,2129.764404 246.602127,2129.764404 
	C246.602127,2076.763916 246.602127,2025.016602 246.602127,1972.594360 
	C458.611877,1972.594360 670.087769,1972.594360 881.263245,1972.594360 
	C876.389343,1977.719604 725.500244,2066.552002 641.594849,2113.601318 
z"/>
<path fill="#D18679" opacity="1.000000" stroke="none" 
	d="
M602.000000,404.234436 
	C483.138519,403.857025 365.270416,404.248291 246.707977,401.738678 
	C246.707977,352.084412 246.707977,302.988068 246.707977,253.023941 
	C250.233948,252.828613 253.463989,252.494049 256.694092,252.493271 
	C367.987152,252.466431 479.280212,252.498672 590.573181,252.397873 
	C596.768494,252.392273 602.292542,253.676437 607.752075,256.591278 
	C679.735291,295.022644 751.766602,333.364044 823.802307,371.696960 
	C840.562622,380.615784 857.395386,389.398499 874.169739,398.291168 
	C877.618774,400.119568 880.955933,402.158966 884.157898,405.120117 
	C790.318848,405.755157 696.657654,406.008820 602.000000,404.234436 
z"/>
<path fill="#D18679" opacity="1.000000" stroke="none" 
	d="
M412.176575,1108.223633 
	C430.143524,1147.758545 447.105072,1187.346436 464.035858,1226.947632 
	C469.376831,1239.440186 474.635559,1251.968018 479.993439,1265.210205 
	C404.518829,1265.918091 328.982697,1265.899414 253.446594,1265.851074 
	C251.497574,1265.849731 249.548752,1265.525146 247.739594,1265.363647 
	C245.644043,1258.110229 244.986267,1123.004395 247.092529,1108.445312 
	C301.628448,1108.390991 356.393829,1108.336304 412.176575,1108.223633 
z"/>
<path fill="#D7AD7A" opacity="1.000000" stroke="none" 
	d="
M448.015564,2232.016113 
	C394.388794,2263.009521 341.422424,2293.684570 288.428680,2324.312012 
	C286.154480,2325.626709 283.653534,2327.366211 281.214478,2327.438721 
	C269.978912,2327.772949 258.727966,2327.585693 247.734299,2327.585693 
	C244.942078,2316.888184 247.692215,2203.645996 251.064850,2184.986084 
	C340.532715,2186.149170 430.135834,2187.313965 519.738953,2188.478760 
	C519.984802,2189.022949 520.230652,2189.566895 520.476501,2190.111084 
	C496.541290,2203.970459 472.606110,2217.829590 448.015564,2232.016113 
z"/>
<path fill="#D18679" opacity="1.000000" stroke="none" 
	d="
M252.402405,64.509178 
	C253.011719,56.643089 253.607086,49.716885 254.205902,42.750687 
	C261.858521,44.258881 503.378113,181.530441 512.643005,189.827301 
	C508.811066,189.827301 505.979004,189.812164 503.147125,189.829681 
	C479.497131,189.975922 455.845734,190.014923 432.197388,190.301834 
	C380.255951,190.931992 328.315369,191.644730 276.376190,192.438370 
	C268.134338,192.564301 259.901611,193.286621 250.513290,193.795639 
	C249.613693,171.623840 250.508514,150.539124 251.488525,129.393753 
	C252.474945,108.110672 252.142822,86.766479 252.402405,64.509178 
z"/>
<path fill="#D18578" opacity="1.000000" stroke="none" 
	d="
M319.912415,892.042358 
	C330.040405,913.005920 339.264435,933.911804 348.267090,954.912598 
	C361.197845,985.076721 373.971985,1015.307983 386.791931,1045.519531 
	C387.436279,1047.037964 387.880768,1048.641479 388.476105,1050.959961 
	C388.209045,1051.785522 387.884338,1051.918213 387.559326,1051.918823 
	C341.681793,1052.010132 295.804199,1052.097534 249.926590,1052.133911 
	C249.019882,1052.134644 248.112686,1051.533569 246.628235,1051.009521 
	C246.628235,998.651001 246.628235,946.249390 246.628235,892.598083 
	C270.695007,891.341980 294.817932,892.307678 319.912415,892.042358 
z"/>
<path fill="#D08578" opacity="1.000000" stroke="none" 
	d="
M1662.797119,891.890991 
	C1664.153320,909.782410 1663.937500,927.652954 1667.210083,945.476868 
	C1675.234375,989.180542 1698.325073,1022.531006 1734.786255,1047.167358 
	C1736.436523,1048.282471 1738.054199,1049.445801 1739.090698,1051.378662 
	C1683.824585,1052.232300 1629.154785,1052.294067 1574.484985,1052.355835 
	C1574.324951,1049.705688 1574.025757,1047.055420 1574.025391,1044.405273 
	C1574.017700,994.169800 1574.045410,943.934387 1574.212891,892.763123 
	C1603.533325,891.855652 1632.706543,891.883972 1662.797119,891.890991 
z"/>
<path fill="#4F3C2E" opacity="1.000000" stroke="none" 
	d="
M478.261597,1553.998413 
	C500.459717,1548.259644 519.929626,1551.197876 537.071472,1567.716309 
	C539.151672,1559.547607 537.907898,1551.731323 538.110474,1544.045044 
	C538.329712,1535.728149 538.160156,1527.400879 538.160156,1519.078125 
	C538.160156,1511.088257 538.160156,1503.098389 538.160156,1495.108521 
	C538.160156,1487.176025 538.160156,1479.243530 538.160156,1470.649780 
	C547.346741,1470.649780 555.759949,1470.649780 564.725952,1470.649780 
	C564.725952,1537.110474 564.725952,1603.216431 564.725952,1669.889160 
	C556.007446,1669.889160 547.507629,1669.889160 538.611572,1669.889160 
	C538.336853,1666.039185 538.079895,1662.438599 537.774963,1658.165283 
	C536.377014,1658.851440 535.143494,1659.186035 534.256409,1659.932373 
	C518.667480,1673.046143 500.508392,1675.217773 481.544739,1671.105957 
	C462.968597,1667.078125 450.324829,1655.366821 443.810181,1637.425415 
	C438.295471,1622.237793 437.885345,1606.690796 442.596619,1591.333496 
	C448.091675,1573.421265 459.698517,1560.785400 478.261597,1553.998413 
M523.041077,1579.548584 
	C495.773560,1565.466919 468.801514,1580.001465 466.909149,1609.956665 
	C466.640656,1614.207153 467.253754,1618.612305 468.101379,1622.816406 
	C471.207001,1638.220093 483.108032,1648.707153 498.517975,1649.977905 
	C516.791565,1651.484741 531.179504,1643.206299 536.968506,1627.854370 
	C543.637146,1610.169800 538.993164,1592.717896 523.041077,1579.548584 
z"/>
<path fill="#4F3C2E" opacity="1.000000" stroke="none" 
	d="
M1548.960938,1574.056641 
	C1535.900391,1578.418701 1531.947632,1583.241821 1531.768799,1595.989868 
	C1531.479248,1616.645508 1531.651611,1637.307373 1531.630371,1657.966675 
	C1531.626587,1661.586426 1531.629639,1665.206177 1531.629639,1669.619629 
	C1522.579590,1669.619629 1514.137329,1669.619629 1504.996582,1669.619629 
	C1504.796753,1667.212891 1504.406372,1664.651123 1504.399414,1662.088379 
	C1504.347046,1642.761963 1504.389282,1623.435181 1504.353394,1604.108521 
	C1504.345947,1600.112915 1504.402222,1596.088135 1503.967285,1592.127686 
	C1502.823608,1581.711914 1497.177246,1575.312866 1488.352417,1574.010376 
	C1476.993286,1572.333984 1467.797974,1576.949951 1464.174316,1587.067749 
	C1462.534302,1591.646729 1461.940918,1596.801758 1461.876465,1601.708618 
	C1461.622437,1621.031982 1461.766846,1640.360596 1461.763428,1659.687256 
	C1461.762817,1662.927246 1461.763306,1666.167358 1461.763306,1669.907349 
	C1452.528198,1669.907349 1444.322876,1669.907349 1435.377441,1669.907349 
	C1435.377441,1631.360962 1435.377441,1592.959473 1435.377441,1554.114502 
	C1444.002441,1554.114502 1452.221069,1554.114502 1461.176636,1554.114502 
	C1461.500366,1557.788330 1461.810913,1561.312500 1462.118164,1564.832031 
	C1468.961426,1560.761108 1475.417358,1555.649902 1482.758423,1552.907104 
	C1490.919678,1549.858032 1499.796997,1550.616821 1508.247681,1553.641602 
	C1516.484253,1556.589722 1522.243164,1562.400635 1527.061768,1569.898926 
	C1528.881958,1567.969482 1530.467285,1566.307251 1532.032959,1564.626587 
	C1544.244873,1551.517578 1559.508789,1548.618286 1576.007446,1552.972412 
	C1592.170776,1557.238281 1600.579224,1569.639038 1601.181641,1585.424194 
	C1602.245361,1613.297363 1601.479492,1641.240356 1601.479492,1669.783691 
	C1592.822021,1669.783691 1584.659180,1669.783691 1575.829468,1669.783691 
	C1575.600830,1667.267578 1575.177490,1664.727905 1575.169922,1662.186890 
	C1575.113159,1643.193726 1575.142334,1624.200195 1575.134399,1605.206787 
	C1575.133301,1602.541626 1575.206543,1599.867676 1575.025635,1597.212769 
	C1573.823486,1579.581299 1567.501953,1573.783447 1548.960938,1574.056641 
z"/>
<path fill="#4B382A" opacity="1.000000" stroke="none" 
	d="
M920.648682,1470.219482 
	C928.842041,1470.058594 936.103821,1470.058594 944.508789,1470.058594 
	C944.508789,1502.868530 944.508789,1534.910522 944.508789,1568.882812 
	C947.525208,1566.265503 948.991577,1565.141846 950.286438,1563.846680 
	C962.896423,1551.233276 978.266357,1549.051392 994.705994,1552.955688 
	C1011.386108,1556.917236 1021.574402,1570.077393 1022.042236,1587.934814 
	C1022.487183,1604.915405 1022.197021,1621.915283 1022.218384,1638.906738 
	C1022.230896,1648.876709 1022.220642,1658.846680 1022.220642,1669.602539 
	C1013.426270,1669.602539 1005.047424,1669.602539 995.655396,1669.602539 
	C995.655396,1664.237549 995.655518,1658.994507 995.655334,1653.751343 
	C995.654724,1637.425903 995.656372,1621.100586 995.651123,1604.775146 
	C995.650391,1602.443115 995.718506,1600.105103 995.581543,1597.780029 
	C994.737915,1583.450562 988.074890,1575.310669 976.139709,1573.945312 
	C961.747070,1572.298584 949.583313,1579.818359 946.190674,1593.048584 
	C944.968384,1597.815430 944.703308,1602.923584 944.663879,1607.881104 
	C944.502380,1628.192505 944.596497,1648.505859 944.596497,1669.604126 
	C935.847290,1669.604126 927.445496,1669.604126 918.004456,1669.604126 
	C918.004456,1666.181274 918.004456,1662.943237 918.004456,1659.705200 
	C918.004456,1600.067505 917.975830,1540.429688 918.077637,1480.792114 
	C918.083557,1477.320557 919.146240,1473.850830 920.648682,1470.219482 
z"/>
<path fill="#4D3B2D" opacity="1.000000" stroke="none" 
	d="
M1174.745972,1630.941650 
	C1171.754761,1618.274658 1171.518066,1606.361328 1174.645630,1594.543335 
	C1187.643188,1545.431274 1243.293945,1540.544312 1269.616455,1567.405518 
	C1270.101440,1562.702026 1270.511963,1558.720947 1270.974243,1554.237671 
	C1279.722656,1554.237671 1288.180908,1554.237671 1297.129150,1554.237671 
	C1297.129150,1592.929810 1297.129150,1631.067383 1297.129150,1669.807251 
	C1288.249023,1669.807251 1279.798950,1669.807251 1270.770630,1669.807251 
	C1270.518677,1665.863037 1270.292358,1662.319580 1269.991211,1657.607056 
	C1250.339966,1673.657471 1228.955322,1677.136475 1206.157593,1668.365845 
	C1189.408203,1661.922119 1179.845825,1648.653931 1174.745972,1630.941650 
M1267.009399,1590.476929 
	C1257.617798,1576.326782 1244.053589,1571.714966 1228.041382,1574.739380 
	C1212.716553,1577.633789 1203.549072,1587.802979 1200.798462,1602.902466 
	C1199.639282,1609.266113 1199.883057,1616.253662 1201.162720,1622.621216 
	C1204.477539,1639.116821 1216.310913,1649.106323 1232.173340,1650.051758 
	C1249.777466,1651.100830 1264.337769,1642.251343 1269.820068,1626.579834 
	C1273.931274,1614.827637 1273.516357,1603.094971 1267.009399,1590.476929 
z"/>
<path fill="#4D3B2C" opacity="1.000000" stroke="none" 
	d="
M1054.413086,1651.522461 
	C1041.802734,1633.273926 1039.647339,1613.893677 1045.125854,1593.651733 
	C1052.648926,1565.854736 1076.432495,1549.718872 1106.348755,1551.418457 
	C1133.497070,1552.961060 1152.777466,1571.087158 1157.750854,1600.002686 
	C1158.755737,1605.845093 1159.049438,1611.809814 1159.806885,1619.009033 
	C1129.446045,1619.009033 1099.959839,1619.009033 1069.483887,1619.009033 
	C1071.940796,1633.347168 1077.611816,1643.897095 1090.513550,1648.419434 
	C1109.930908,1655.225830 1124.900635,1647.693481 1136.622559,1631.203735 
	C1143.289673,1635.459473 1149.370972,1639.341309 1155.364502,1643.167114 
	C1141.030029,1678.716919 1077.787476,1683.136353 1054.413086,1651.522461 
M1077.334229,1582.412720 
	C1073.923828,1586.902710 1071.042236,1591.606689 1070.806152,1597.817505 
	C1091.042236,1597.817505 1110.871094,1597.817505 1131.551025,1597.817505 
	C1129.271606,1585.983643 1123.436523,1577.678833 1112.432007,1574.024170 
	C1099.851440,1569.846069 1088.225952,1572.038574 1077.334229,1582.412720 
z"/>
<path fill="#4D3A2C" opacity="1.000000" stroke="none" 
	d="
M600.723511,1653.200928 
	C585.631958,1632.675781 584.068787,1610.758667 592.004761,1588.153564 
	C600.385071,1564.282837 622.437073,1550.581299 649.099426,1551.323730 
	C674.610168,1552.034302 692.887817,1565.874878 700.296875,1591.033081 
	C702.790771,1599.501221 703.580139,1608.471313 705.272705,1617.904053 
	C694.027832,1620.043335 684.133362,1618.779053 674.333069,1619.010498 
	C664.683899,1619.238525 655.025146,1619.060425 645.370605,1619.060425 
	C635.453613,1619.060425 625.536560,1619.060303 614.563660,1619.060303 
	C616.893433,1633.390869 622.570435,1643.858521 635.470459,1648.396606 
	C654.867371,1655.220337 669.788757,1647.719482 681.648743,1631.226074 
	C688.162354,1635.365723 694.239624,1639.228271 700.207947,1643.021484 
	C686.817627,1677.959961 624.930237,1683.077271 600.723511,1653.200928 
M625.449829,1598.209839 
	C642.193787,1598.209839 658.937805,1598.209839 675.853577,1598.209839 
	C673.165833,1580.722900 660.790710,1571.047729 644.115784,1572.209473 
	C628.140259,1573.322510 617.137268,1583.517944 616.696655,1597.892944 
	C618.988525,1597.998291 621.287781,1598.104004 625.449829,1598.209839 
z"/>
<path fill="#4D3A2C" opacity="1.000000" stroke="none" 
	d="
M722.945496,1640.863281 
	C717.516724,1628.369507 715.080261,1616.145508 717.071533,1603.251343 
	C721.320374,1575.736938 740.640381,1555.833374 768.258484,1552.445190 
	C778.613098,1551.175049 789.678772,1551.533203 799.849915,1553.757446 
	C825.126343,1559.284790 841.523560,1578.481934 843.888733,1602.930908 
	C846.655090,1631.526733 834.305298,1655.437622 810.387573,1666.313965 
	C790.267822,1675.463013 769.744629,1675.264893 749.493042,1666.476929 
	C737.808838,1661.406494 729.121033,1652.901611 722.945496,1640.863281 
M808.511414,1586.634033 
	C798.582092,1574.458374 778.437988,1571.425903 763.546204,1578.543213 
	C748.478210,1585.744629 743.366760,1598.843018 743.935669,1614.736816 
	C744.638428,1634.369995 758.517883,1648.744629 777.804871,1649.908813 
	C797.516785,1651.098633 812.759705,1639.185547 816.392883,1619.899292 
	C818.600586,1608.180298 816.548950,1597.453125 808.511414,1586.634033 
z"/>
<path fill="#4D3A2C" opacity="1.000000" stroke="none" 
	d="
M1910.429932,1570.453247 
	C1932.197510,1547.751465 1968.657593,1547.853271 1988.956177,1557.151978 
	C2010.950806,1567.228027 2023.046997,1587.173096 2022.072388,1613.614624 
	C2021.125244,1639.312378 2008.897461,1657.922241 1984.985840,1667.808594 
	C1968.079834,1674.798462 1950.532471,1674.653564 1933.245361,1668.846802 
	C1892.481689,1655.153809 1885.468750,1605.752563 1904.368774,1577.990479 
	C1906.046265,1575.526245 1908.069336,1573.297363 1910.429932,1570.453247 
M1983.502197,1640.558350 
	C1985.421387,1638.270508 1987.635010,1636.168213 1989.213257,1633.665283 
	C2001.675781,1613.901611 1996.269043,1577.598755 1961.304443,1574.859497 
	C1941.352783,1573.296265 1925.010620,1586.038940 1922.249268,1605.417114 
	C1919.129883,1627.306763 1930.495605,1645.138794 1950.528687,1649.190796 
	C1962.206299,1651.552856 1972.996582,1649.137207 1983.502197,1640.558350 
z"/>
<path fill="#4D3B2C" opacity="1.000000" stroke="none" 
	d="
M1636.583740,1726.487549 
	C1645.344360,1708.813477 1653.402100,1691.635010 1662.316040,1674.912720 
	C1665.713379,1668.539062 1665.286743,1663.681641 1662.135132,1657.452759 
	C1646.669800,1626.886230 1631.684937,1596.076660 1616.550293,1565.343018 
	C1614.958130,1562.110107 1613.494995,1558.813477 1611.351074,1554.214355 
	C1621.676636,1553.230591 1631.069702,1553.813477 1641.498657,1553.811523 
	C1653.957764,1580.900146 1666.507324,1608.185547 1680.145996,1637.838867 
	C1693.276489,1608.526978 1705.400391,1581.462036 1717.634521,1554.151123 
	C1726.875244,1554.151123 1735.767822,1554.151123 1744.668213,1554.151123 
	C1743.851440,1561.025757 1672.056885,1717.505859 1662.533325,1733.087891 
	C1653.496216,1733.087891 1644.278198,1733.087891 1634.221680,1733.087891 
	C1635.017700,1730.731201 1635.619873,1728.948120 1636.583740,1726.487549 
z"/>
<path fill="#4D3B2C" opacity="1.000000" stroke="none" 
	d="
M2043.860718,1596.000122 
	C2043.860718,1581.724487 2043.860718,1568.448608 2043.860718,1554.430908 
	C2052.759033,1554.430908 2061.133789,1554.430908 2070.449463,1554.430908 
	C2070.449463,1557.944458 2070.449219,1561.187744 2070.449707,1564.431030 
	C2070.451416,1582.735962 2070.423828,1601.041138 2070.482422,1619.345825 
	C2070.492920,1622.660767 2070.558594,1626.025635 2071.111572,1629.280273 
	C2073.530273,1643.517578 2082.442871,1650.547363 2096.977295,1649.924194 
	C2110.230469,1649.355957 2118.650879,1641.560181 2120.025879,1628.315186 
	C2120.437012,1624.355835 2120.361572,1620.337769 2120.369141,1616.346436 
	C2120.402100,1599.039917 2120.383301,1581.733398 2120.383301,1564.426880 
	C2120.383301,1561.177368 2120.383301,1557.927856 2120.383301,1554.203369 
	C2129.612549,1554.203369 2137.817627,1554.203369 2146.698975,1554.203369 
	C2146.996826,1556.304932 2147.565674,1558.478882 2147.572754,1560.654663 
	C2147.639893,1581.621948 2147.756348,1602.590820 2147.577393,1623.556885 
	C2147.332031,1652.271973 2130.612305,1670.344238 2101.748291,1672.235718 
	C2092.937500,1672.813110 2083.663086,1672.183838 2075.134766,1670.011597 
	C2055.584717,1665.031982 2044.465698,1650.120361 2043.944946,1629.947754 
	C2043.661621,1618.971680 2043.872559,1607.983032 2043.860718,1596.000122 
z"/>
<path fill="#4D3B2D" opacity="1.000000" stroke="none" 
	d="
M1854.838989,1574.219238 
	C1848.564453,1573.418457 1842.983887,1572.258301 1837.482178,1572.555786 
	C1833.008179,1572.797485 1829.417480,1575.789185 1828.420532,1580.610718 
	C1827.358643,1585.746704 1829.318848,1589.969238 1833.737427,1592.516602 
	C1837.444214,1594.653442 1841.550659,1596.140869 1845.570801,1597.679443 
	C1850.530640,1599.578003 1855.680664,1600.999268 1860.580688,1603.031372 
	C1882.499146,1612.121216 1884.371704,1630.927612 1878.450439,1647.472534 
	C1875.781982,1654.928589 1870.827393,1660.658325 1864.340088,1665.091309 
	C1843.343384,1679.438965 1805.346313,1673.484131 1791.988892,1650.495117 
	C1796.824707,1645.102417 1801.603760,1639.773071 1807.020630,1633.732544 
	C1810.326172,1637.367920 1812.885132,1640.952148 1816.173096,1643.646362 
	C1824.366089,1650.359497 1833.781982,1652.867676 1844.187012,1649.884644 
	C1850.953979,1647.944580 1855.057495,1642.686523 1855.396484,1636.162720 
	C1855.719360,1629.949585 1852.722778,1625.725464 1845.475220,1622.864014 
	C1842.091919,1621.528198 1838.473999,1620.795166 1834.984375,1619.718018 
	C1831.493652,1618.640747 1827.963135,1617.646973 1824.566772,1616.318115 
	C1808.871582,1610.176880 1801.642822,1599.941528 1802.060059,1584.676025 
	C1802.462036,1569.964233 1811.687622,1557.789795 1827.049316,1553.507446 
	C1845.112427,1548.472168 1861.828857,1551.272705 1877.144043,1565.000610 
	C1873.702637,1570.430298 1870.413940,1575.619141 1866.822632,1581.285278 
	C1862.789429,1578.850342 1859.178223,1576.670166 1854.838989,1574.219238 
z"/>
<path fill="#4B382A" opacity="1.000000" stroke="none" 
	d="
M1353.843506,1661.671875 
	C1353.707886,1664.894287 1353.572021,1667.152954 1353.408691,1669.868896 
	C1344.661255,1669.868896 1336.472046,1669.868896 1327.629395,1669.868896 
	C1327.629395,1603.585938 1327.629395,1537.487061 1327.629395,1469.998169 
	C1331.880493,1469.998169 1336.062134,1469.998169 1340.243896,1469.998169 
	C1344.228149,1469.998169 1348.212402,1469.998169 1351.682617,1469.998169 
	C1352.409424,1470.685791 1352.661377,1470.901733 1352.885864,1471.143066 
	C1353.108276,1471.382324 1353.475220,1471.641357 1353.484131,1471.901733 
	C1353.631104,1476.222168 1353.826782,1480.544189 1353.828369,1484.865845 
	C1353.849854,1543.479858 1353.842896,1602.093994 1353.843506,1661.671875 
z"/>
<path fill="#4D3B2D" opacity="1.000000" stroke="none" 
	d="
M359.650635,1553.683105 
	C363.855042,1553.683228 367.159363,1553.683228 372.284454,1553.683228 
	C350.876740,1594.743530 330.092041,1634.608887 308.244781,1676.512207 
	C286.850586,1635.073242 266.357880,1595.380371 245.270554,1554.535889 
	C255.393539,1554.535889 264.421387,1554.535889 274.926178,1554.535889 
	C285.673706,1576.277954 296.934143,1599.057495 308.845276,1623.153442 
	C320.676758,1599.333862 331.760651,1577.019409 343.352051,1553.683105 
	C348.234467,1553.683105 353.492523,1553.683105 359.650635,1553.683105 
z"/>
<path fill="#4B382A" opacity="1.000000" stroke="none" 
	d="
M2188.102051,1670.391846 
	C2183.846191,1670.391846 2180.563232,1670.391846 2176.651611,1670.391846 
	C2176.651611,1603.650269 2176.651611,1537.598633 2176.651611,1470.772461 
	C2184.643311,1470.772461 2192.761475,1470.772461 2200.979492,1470.772461 
	C2202.998535,1477.324219 2203.730957,1654.323608 2201.565918,1670.391724 
	C2197.533936,1670.391724 2193.304443,1670.391724 2188.102051,1670.391846 
z"/>
<path fill="#524032" opacity="1.000000" stroke="none" 
	d="
M415.396515,1661.290894 
	C415.396667,1664.515015 415.396667,1666.822632 415.396667,1669.895508 
	C406.459686,1669.895508 398.021759,1669.895508 389.000580,1669.895508 
	C389.000580,1631.392212 389.000580,1593.000732 389.000580,1553.614258 
	C395.123505,1553.614258 401.049774,1553.558472 406.974182,1553.640137 
	C409.564240,1553.675903 412.150391,1553.992920 415.396362,1554.230347 
	C415.396362,1589.945190 415.396362,1625.159668 415.396515,1661.290894 
z"/>
<path fill="#CF8578" opacity="1.000000" stroke="none" 
	d="
M248.474655,722.724731 
	C259.768829,747.580505 270.927124,773.347168 281.977783,799.159973 
	C286.922607,810.710327 291.651550,822.353149 296.560486,834.695557 
	C280.175323,835.437195 263.708130,835.437195 246.004425,835.437195 
	C246.777893,797.689453 247.536392,760.671875 248.474655,722.724731 
z"/>
<path fill="#4F3C2E" opacity="1.000000" stroke="none" 
	d="
M385.942200,1513.553711 
	C386.954041,1501.534546 391.216339,1496.510376 400.248322,1495.813721 
	C408.978577,1495.140381 415.791382,1499.682983 417.660004,1507.423462 
	C419.735565,1516.021118 415.683502,1523.928467 407.755920,1526.750244 
	C399.625580,1529.644043 391.413757,1526.613525 387.413757,1519.094849 
	C386.655975,1517.670532 386.454681,1515.950073 385.942200,1513.553711 
z"/>
<path fill="#D18679" opacity="1.000000" stroke="none" 
	d="
M1575.270752,836.150635 
	C1574.305542,830.565613 1574.245361,824.956970 1574.386963,818.419861 
	C1584.017578,822.818665 1593.446411,828.145996 1602.875366,833.473328 
	C1602.693726,834.224731 1602.512085,834.976196 1602.330444,835.727661 
	C1593.612183,835.860779 1584.894043,835.993896 1575.270752,836.150635 
z"/>
<path fill="#D18578" opacity="1.000000" stroke="none" 
	d="
M1894.145874,1106.242432 
	C1904.491821,1111.417847 1915.367920,1115.761841 1925.068970,1121.948608 
	C1943.172852,1133.493896 1948.312256,1151.262817 1945.076050,1171.560425 
	C1941.300049,1195.244019 1926.005005,1210.629395 1902.241699,1215.835205 
	C1886.099121,1219.371582 1869.808838,1219.076538 1853.578735,1216.946289 
	C1811.654663,1211.443848 1774.685303,1193.870972 1740.448853,1169.819458 
	C1736.967651,1167.374023 1733.457397,1164.969971 1729.331421,1162.110596 
	C1709.629395,1197.640991 1690.293091,1232.511841 1669.446289,1267.821777 
	C1636.764160,1268.264893 1605.592529,1268.268677 1574.421021,1268.272461 
	C1574.283081,1260.309570 1574.033813,1252.346924 1574.025879,1244.383911 
	C1573.980835,1199.544678 1573.993774,1154.705322 1575.035034,1109.020020 
	C1679.669067,1108.237427 1783.255127,1108.315308 1886.841064,1108.275269 
	C1889.276245,1108.274414 1891.710938,1106.949707 1894.145874,1106.242432 
z"/>
<path fill="#D18678" opacity="1.000000" stroke="none" 
	d="
M705.819336,1265.961060 
	C712.511475,1249.395996 719.061340,1232.771851 725.924927,1216.278076 
	C740.820190,1180.483521 755.875793,1144.755615 772.315186,1108.621582 
	C843.048584,1108.280640 912.332642,1108.322021 981.616638,1108.339111 
	C983.609131,1108.339600 985.601624,1108.082397 987.594116,1107.945312 
	C987.680786,1150.411987 987.770569,1192.878784 987.852051,1235.345459 
	C987.871765,1245.631958 987.864014,1255.918579 986.825806,1267.046387 
	C954.247131,1267.429321 922.712769,1266.833618 891.175537,1266.554688 
	C864.600464,1266.319702 838.022034,1266.495605 811.445312,1266.411987 
	C776.236511,1266.301147 741.027954,1266.114990 705.819336,1265.961060 
z"/>
<path fill="#CF8578" opacity="1.000000" stroke="none" 
	d="
M1400.997314,1107.722778 
	C1401.145752,1108.707153 1401.424561,1109.691650 1401.423828,1110.675903 
	C1401.386353,1162.650269 1401.325439,1214.624756 1400.190674,1267.422607 
	C1397.454834,1268.179077 1395.795288,1268.055298 1394.135498,1268.053467 
	C1319.345825,1267.969849 1244.556274,1267.891602 1169.766602,1267.841797 
	C1166.782227,1267.839844 1163.797607,1268.117554 1160.813110,1268.264893 
	C1160.669922,1262.288818 1160.405762,1256.312622 1160.402954,1250.336548 
	C1160.381348,1203.440918 1160.409546,1156.545166 1161.471069,1108.838867 
	C1164.509644,1108.137939 1166.499634,1108.343018 1168.489624,1108.343384 
	C1243.013550,1108.360229 1317.537598,1108.365723 1392.061523,1108.331909 
	C1395.040283,1108.330566 1398.018677,1107.934692 1400.997314,1107.722778 
z"/>
<path fill="#D08578" opacity="1.000000" stroke="none" 
	d="
M795.811340,1051.958984 
	C802.383545,1035.665161 808.804077,1019.308105 815.559448,1003.090637 
	C829.604370,969.372742 843.837585,935.733337 857.960022,902.047668 
	C859.498840,898.377319 860.819092,894.615356 863.383911,891.016602 
	C866.138062,891.427429 867.749146,891.971680 869.359924,891.970520 
	C908.736328,891.942688 948.112793,891.856873 987.489197,891.781433 
	C987.612793,907.749390 987.835327,923.717285 987.840149,939.685242 
	C987.851379,976.628113 987.757202,1013.571045 986.634644,1051.472656 
	C930.963074,1052.388184 876.362671,1052.358887 821.762268,1052.287231 
	C813.111816,1052.275879 804.461670,1052.073242 795.811340,1051.958984 
z"/>
<path fill="#F7EFDC" opacity="1.000000" stroke="none" 
	d="
M705.304077,1266.422607 
	C741.027954,1266.114990 776.236511,1266.301147 811.445312,1266.411987 
	C838.022034,1266.495605 864.600464,1266.319702 891.175537,1266.554688 
	C922.712769,1266.833618 954.247131,1267.429321 986.687134,1267.978271 
	C987.639587,1287.350220 987.687622,1306.631836 987.560303,1326.817627 
	C898.423157,1327.821655 809.461426,1327.923096 720.499695,1328.019653 
	C707.505249,1328.033691 694.510742,1328.024536 680.551636,1327.985107 
	C687.987610,1307.590942 696.388184,1287.237549 705.304077,1266.422607 
z"/>
<path fill="#CE8477" opacity="1.000000" stroke="none" 
	d="
M1400.858154,891.591431 
	C1402.192627,912.427979 1401.292480,933.238342 1401.460327,953.709961 
	C1392.881714,955.868652 1177.287964,956.579285 1160.697144,954.662537 
	C1160.003174,944.796387 1160.453369,934.606506 1160.392944,924.456726 
	C1160.331543,914.147034 1160.461304,903.836243 1161.564941,892.658875 
	C1164.281128,891.868530 1165.939453,892.012146 1167.597900,892.012451 
	C1242.700439,892.024780 1317.802856,892.028992 1392.905396,892.007446 
	C1395.556274,892.006714 1398.207275,891.736206 1400.858154,891.591431 
z"/>
<path fill="#F8F1DD" opacity="1.000000" stroke="none" 
	d="
M1160.694092,1269.183472 
	C1163.797607,1268.117554 1166.782227,1267.839844 1169.766602,1267.841797 
	C1244.556274,1267.891602 1319.345825,1267.969849 1394.135498,1268.053467 
	C1395.795288,1268.055298 1397.454834,1268.179077 1399.960205,1268.361328 
	C1400.935181,1286.959351 1401.064575,1305.442261 1401.023926,1324.838379 
	C1396.878296,1325.901611 1392.902832,1326.177246 1388.927002,1326.182861 
	C1331.163452,1326.263306 1273.399658,1326.221924 1215.636475,1326.412231 
	C1198.073730,1326.470093 1180.512939,1327.143066 1162.106445,1327.508789 
	C1161.032837,1308.356079 1160.804077,1289.229126 1160.694092,1269.183472 
z"/>
<path fill="#F8F0DD" opacity="1.000000" stroke="none" 
	d="
M1401.017212,890.689331 
	C1398.207275,891.736206 1395.556274,892.006714 1392.905396,892.007446 
	C1317.802856,892.028992 1242.700439,892.024780 1167.597900,892.012451 
	C1165.939453,892.012146 1164.281128,891.868530 1161.748779,891.717285 
	C1160.786133,873.817078 1160.697266,855.991516 1160.749146,837.256714 
	C1163.543701,836.227966 1166.197754,836.004456 1168.851685,836.003845 
	C1244.289307,835.987061 1319.726807,835.991821 1395.164429,836.003052 
	C1396.491211,836.003296 1397.818115,836.127075 1399.993286,836.301147 
	C1400.953247,854.201782 1401.064697,871.994568 1401.017212,890.689331 
z"/>
<path fill="#F7EFDC" opacity="1.000000" stroke="none" 
	d="
M1893.410156,1106.015381 
	C1891.710938,1106.949707 1889.276245,1108.274414 1886.841064,1108.275269 
	C1783.255127,1108.315308 1679.669067,1108.237427 1575.167725,1108.091797 
	C1574.209229,1090.056030 1574.166138,1072.102417 1574.303955,1053.252319 
	C1629.154785,1052.294067 1683.824585,1052.232300 1739.447021,1051.960571 
	C1741.349365,1052.041260 1742.402832,1052.156250 1743.233887,1052.647705 
	C1777.602173,1072.974243 1815.357422,1084.165527 1853.673218,1093.995483 
	C1866.817017,1097.367554 1879.682007,1101.826050 1893.410156,1106.015381 
z"/>
<path fill="#F7EFDC" opacity="1.000000" stroke="none" 
	d="
M795.299805,1052.415894 
	C804.461670,1052.073242 813.111816,1052.275879 821.762268,1052.287231 
	C876.362671,1052.358887 930.963074,1052.388184 986.457642,1052.420166 
	C987.504944,1070.296631 987.657959,1088.184326 987.702576,1107.008667 
	C985.601624,1108.082397 983.609131,1108.339600 981.616638,1108.339111 
	C912.332642,1108.322021 843.048584,1108.280640 772.823608,1108.145264 
	C779.517761,1089.656128 787.153015,1071.264526 795.299805,1052.415894 
z"/>
<path fill="#F7EFDC" opacity="1.000000" stroke="none" 
	d="
M987.630005,890.864685 
	C948.112793,891.856873 908.736328,891.942688 869.359924,891.970520 
	C867.749146,891.971680 866.138062,891.427429 863.868164,890.532654 
	C870.599854,872.353455 877.990540,854.778931 885.777344,836.607056 
	C919.344849,836.058655 952.516357,836.107605 986.589355,836.193359 
	C987.584229,854.136108 987.677490,872.042053 987.630005,890.864685 
z"/>
<path fill="#F5EEDB" opacity="1.000000" stroke="none" 
	d="
M1574.250488,1269.178223 
	C1605.592529,1268.268677 1636.764160,1268.264893 1668.856934,1268.197754 
	C1665.091431,1277.261353 1660.434448,1286.403809 1655.703735,1295.508057 
	C1653.716064,1299.333008 1651.572266,1303.076904 1649.179077,1307.442017 
	C1656.104492,1314.422241 1665.140869,1318.040771 1673.610840,1323.696045 
	C1671.396973,1324.730347 1668.603760,1325.908325 1665.805664,1325.920532 
	C1635.924316,1326.050537 1606.042236,1325.995972 1575.246826,1325.958374 
	C1574.249023,1307.311157 1574.164551,1288.697632 1574.250488,1269.178223 
z"/>
<path fill="#F8F1DE" opacity="1.000000" stroke="none" 
	d="
M1401.108276,1106.868896 
	C1398.018677,1107.934692 1395.040283,1108.330566 1392.061523,1108.331909 
	C1317.537598,1108.365723 1243.013550,1108.360229 1168.489624,1108.343384 
	C1166.499634,1108.343018 1164.509644,1108.137939 1161.643433,1107.904053 
	C1160.767212,1104.817261 1160.767212,1101.854736 1160.767212,1098.953735 
	C1167.781128,1096.667603 1389.506226,1096.146973 1401.219238,1098.528931 
	C1401.219238,1100.884277 1401.219238,1103.449585 1401.108276,1106.868896 
z"/>
<path fill="#D08578" opacity="1.000000" stroke="none" 
	d="
M676.182983,892.220093 
	C670.139526,908.375793 664.238831,924.586609 658.023682,940.675903 
	C643.777161,977.556396 629.377197,1014.377625 613.550659,1051.727783 
	C600.132690,1052.195312 588.203430,1052.157959 576.274231,1052.120605 
	C571.534363,1040.868164 566.613586,1029.687866 562.087280,1018.350281 
	C546.353027,978.938477 530.750122,939.474243 515.123291,900.019714 
	C514.393799,898.177917 513.913940,896.237305 514.276672,893.319214 
	C568.884705,892.270508 622.533875,892.245300 676.182983,892.220093 
z"/>
<path fill="#F7EFDC" opacity="1.000000" stroke="none" 
	d="
M676.675293,891.699707 
	C622.533875,892.245300 568.884705,892.270508 514.271301,892.569336 
	C511.066528,888.151978 508.579681,883.560608 506.632233,878.750916 
	C501.100922,865.090088 495.789917,851.340088 490.341278,836.909912 
	C542.559937,836.123291 594.829468,836.043152 647.098999,835.985657 
	C663.412720,835.967712 679.726562,836.010803 696.971436,836.026367 
	C690.990906,854.410889 684.079285,872.795044 676.675293,891.699707 
z"/>
<path fill="#F2EBD8" opacity="1.000000" stroke="none" 
	d="
M576.251648,1052.861572 
	C588.203430,1052.157959 600.132690,1052.195312 612.992920,1052.177002 
	C609.857727,1068.049194 602.723572,1082.766602 596.466492,1099.407227 
	C589.580933,1092.078369 588.254211,1083.867310 585.126465,1076.647583 
	C581.855896,1069.097900 579.170288,1061.294800 576.251648,1052.861572 
z"/>
<path fill="#F5EEDB" opacity="1.000000" stroke="none" 
	d="
M523.681274,1579.938232 
	C538.993164,1592.717896 543.637146,1610.169800 536.968506,1627.854370 
	C531.179504,1643.206299 516.791565,1651.484741 498.517975,1649.977905 
	C483.108032,1648.707153 471.207001,1638.220093 468.101379,1622.816406 
	C467.253754,1618.612305 466.640656,1614.207153 466.909149,1609.956665 
	C468.801514,1580.001465 495.773560,1565.466919 523.681274,1579.938232 
z"/>
<path fill="#F5EEDB" opacity="1.000000" stroke="none" 
	d="
M1267.385986,1591.139893 
	C1273.516357,1603.094971 1273.931274,1614.827637 1269.820068,1626.579834 
	C1264.337769,1642.251343 1249.777466,1651.100830 1232.173340,1650.051758 
	C1216.310913,1649.106323 1204.477539,1639.116821 1201.162720,1622.621216 
	C1199.883057,1616.253662 1199.639282,1609.266113 1200.798462,1602.902466 
	C1203.549072,1587.802979 1212.716553,1577.633789 1228.041382,1574.739380 
	C1244.053589,1571.714966 1257.617798,1576.326782 1267.385986,1591.139893 
z"/>
<path fill="#F2EBD8" opacity="1.000000" stroke="none" 
	d="
M1077.821045,1581.854492 
	C1088.225952,1572.038574 1099.851440,1569.846069 1112.432007,1574.024170 
	C1123.436523,1577.678833 1129.271606,1585.983643 1131.551025,1597.817505 
	C1110.871094,1597.817505 1091.042236,1597.817505 1070.806152,1597.817505 
	C1071.042236,1591.606689 1073.923828,1586.902710 1077.821045,1581.854492 
z"/>
<path fill="#F2EBD8" opacity="1.000000" stroke="none" 
	d="
M624.518433,1598.209839 
	C621.287781,1598.104004 618.988525,1597.998291 616.696655,1597.892944 
	C617.137268,1583.517944 628.140259,1573.322510 644.115784,1572.209473 
	C660.790710,1571.047729 673.165833,1580.722900 675.853577,1598.209839 
	C658.937805,1598.209839 642.193787,1598.209839 624.518433,1598.209839 
z"/>
<path fill="#F5EEDB" opacity="1.000000" stroke="none" 
	d="
M808.996460,1587.200439 
	C816.548950,1597.453125 818.600586,1608.180298 816.392883,1619.899292 
	C812.759705,1639.185547 797.516785,1651.098633 777.804871,1649.908813 
	C758.517883,1648.744629 744.638428,1634.369995 743.935669,1614.736816 
	C743.366760,1598.843018 748.478210,1585.744629 763.546204,1578.543213 
	C778.437988,1571.425903 798.582092,1574.458374 808.996460,1587.200439 
z"/>
<path fill="#F5EEDB" opacity="1.000000" stroke="none" 
	d="
M1982.959229,1641.051636 
	C1972.996582,1649.137207 1962.206299,1651.552856 1950.528687,1649.190796 
	C1930.495605,1645.138794 1919.129883,1627.306763 1922.249268,1605.417114 
	C1925.010620,1586.038940 1941.352783,1573.296265 1961.304443,1574.859497 
	C1996.269043,1577.598755 2001.675781,1613.901611 1989.213257,1633.665283 
	C1987.635010,1636.168213 1985.421387,1638.270508 1982.959229,1641.051636 
z"/>
</svg>