<svg version="1.1" id="Layer_1" xmlns="http://www.w3.org/2000/svg" xmlns:xlink="http://www.w3.org/1999/xlink" x="0px" y="0px"
	 width="100%" viewBox="0 0 2362 2362" enable-background="new 0 0 2362 2362" xml:space="preserve">
<path fill="#F8F1DE" opacity="1.000000" stroke="none" 
	d="
M1378.000000,2364.000000 
	C918.666687,2364.000000 460.333344,2364.000000 2.000000,2364.000000 
	C2.000000,1576.666626 2.000000,789.333313 2.000000,2.000000 
	C789.333313,2.000000 1576.666626,2.000000 2364.000000,2.000000 
	C2364.000000,789.333313 2364.000000,1576.666626 2364.000000,2364.000000 
	C2035.666626,2364.000000 1707.333374,2364.000000 1378.000000,2364.000000 
M1661.879883,891.912109 
	C1632.706665,891.883850 1603.533325,891.855591 1574.065796,889.995178 
	C1574.165771,872.054871 1574.265747,854.114502 1576.176025,836.127014 
	C1584.894287,835.993896 1593.612671,835.860779 1602.330933,835.727661 
	C1602.512573,834.976318 1602.694092,834.224976 1602.875732,833.473572 
	C1593.446777,828.146118 1584.017822,822.818665 1574.177368,815.722046 
	C1574.057373,777.246033 1573.937500,738.769958 1573.817505,700.287231 
	C1515.672852,700.287231 1458.831543,700.287231 1401.789429,700.287231 
	C1401.491943,703.734009 1401.235962,706.699707 1399.614990,709.589111 
	C1395.725830,707.940979 1391.576172,706.724792 1387.996216,704.564270 
	C1376.979858,697.916077 1365.975342,691.206665 1355.375366,683.925537 
	C1348.997314,679.544312 1342.424438,678.355347 1334.859741,678.358093 
	C978.199097,678.487976 621.538452,678.471191 264.877808,678.471741 
	C262.211212,678.471741 259.531952,678.321167 256.881927,678.532776 
	C254.702515,678.706848 252.557755,679.315125 249.520325,679.899841 
	C249.520325,686.679626 249.520325,692.981079 248.033310,699.605591 
	C245.580154,699.891174 243.126999,700.176758 240.313110,700.504272 
	C243.250076,708.000854 245.952209,714.897949 248.294708,723.654480 
	C247.536209,760.672058 246.777710,797.689697 246.004257,835.437317 
	C263.708008,835.437317 280.175201,835.437317 297.617584,836.451660 
	C305.383423,854.986938 313.149261,873.522278 318.909271,892.027039 
	C294.817688,892.307861 270.694702,891.340942 246.628098,892.598633 
	C246.628098,946.249207 246.628098,998.650879 246.628098,1051.009399 
	C248.115692,1051.534790 249.021286,1052.135010 249.926376,1052.134399 
	C295.804016,1052.097900 341.681641,1052.010498 387.559204,1051.919067 
	C387.884216,1051.918335 388.208954,1051.785645 389.533936,1052.670288 
	C397.420532,1071.168701 405.307159,1089.666992 411.159119,1108.281860 
	C356.393677,1108.336426 301.628204,1108.390991 247.092194,1108.445312 
	C244.986069,1123.005249 245.643906,1258.110474 247.739395,1265.363770 
	C249.544678,1265.524902 251.495392,1265.849976 253.446304,1265.851196 
	C328.982483,1265.899536 404.518707,1265.918213 481.039185,1266.948364 
	C489.542114,1287.307129 498.045044,1307.665771 504.601044,1328.140869 
	C429.952271,1328.214111 355.303284,1328.222778 280.654907,1328.438354 
	C270.780457,1328.466797 260.909027,1329.549683 251.289001,1330.128906 
	C248.554382,1343.234497 245.695221,1459.531860 248.023422,1467.832764 
	C251.035583,1467.832764 254.307297,1467.832642 257.579010,1467.832642 
	C747.460754,1467.832520 1237.342529,1467.822266 1727.224243,1467.936768 
	C1734.189941,1467.938354 1740.156860,1466.351929 1746.035156,1462.709961 
	C1780.281494,1441.491699 1814.675049,1420.511475 1848.950684,1399.339966 
	C1858.827148,1393.239624 1868.477173,1386.772705 1880.043701,1380.140503 
	C1904.773682,1380.096558 1929.263916,1377.850098 1953.352417,1372.036743 
	C2006.291626,1359.260864 2050.992432,1333.213013 2083.806641,1289.085449 
	C2122.046631,1237.661377 2133.819336,1178.913818 2129.160889,1116.154663 
	C2127.899902,1099.166016 2123.619873,1082.706299 2116.817139,1066.960693 
	C2102.486084,1033.789429 2077.950684,1010.117310 2047.385620,992.037659 
	C2021.411377,976.673523 1993.353638,966.366394 1964.533081,957.836304 
	C1940.605713,950.754456 1916.654541,943.699768 1892.994019,935.795044 
	C1883.302979,932.557312 1874.083496,927.586304 1865.129395,922.550476 
	C1855.222900,916.979004 1850.169556,907.785889 1848.584717,896.544617 
	C1845.055908,871.514404 1857.230835,850.790344 1880.996460,842.172424 
	C1898.072266,835.980469 1915.693115,836.069702 1933.278198,839.133850 
	C1965.250610,844.704834 1992.940186,859.399719 2017.766724,879.910217 
	C2020.515137,882.180969 2023.314941,884.389771 2026.808960,887.206055 
	C2050.001465,841.379700 2072.762207,796.406799 2095.658447,751.165833 
	C2091.407959,748.210388 2088.206299,745.855225 2084.879883,743.691284 
	C2052.745850,722.786011 2017.773315,708.409729 1980.760376,698.887634 
	C1923.012817,684.031372 1865.349243,683.565063 1808.340210,702.104736 
	C1749.229126,721.327942 1705.458496,758.295593 1680.693970,816.195862 
	C1670.360962,840.354919 1665.993286,865.886108 1661.879883,891.912109 
M321.000000,1751.853027 
	C297.509186,1752.093140 273.991486,1751.281128 250.715622,1752.304321 
	C247.162827,1782.203125 244.744766,1899.230469 247.568405,1912.156372 
	C250.844376,1912.156372 254.424042,1912.156494 258.003693,1912.156494 
	C496.317413,1912.156494 734.631104,1912.138428 972.944763,1912.249512 
	C979.536377,1912.252686 985.250916,1910.811035 990.877930,1907.427368 
	C1070.785156,1859.380005 1150.758545,1811.442749 1230.697876,1763.448608 
	C1233.641602,1761.681152 1236.401123,1759.606445 1239.246460,1757.674927 
	C1229.229858,1755.501953 1220.031860,1754.464111 1210.829834,1754.424683 
	C1032.876953,1753.663574 854.923828,1752.918213 676.970154,1752.386230 
	C558.980591,1752.033447 440.990082,1752.020386 321.000000,1751.853027 
M683.000000,622.481079 
	C870.691162,622.481079 1058.382324,622.481079 1246.073486,622.481079 
	C1244.037109,619.043457 1241.724731,617.306396 1239.242920,615.859985 
	C1156.661499,567.731628 1074.017822,519.709290 991.554626,471.379395 
	C984.887512,467.471954 978.433777,465.879150 970.863953,465.882874 
	C733.935730,465.999023 497.007416,465.978058 260.079132,465.978516 
	C257.746521,465.978516 255.400604,465.832458 253.085098,466.033478 
	C250.886703,466.224335 248.720123,466.781891 246.698761,467.149231 
	C246.698761,518.991699 246.698761,570.157593 246.698761,622.482117 
	C391.935516,622.482117 536.467773,622.482117 683.000000,622.481079 
M245.895279,2114.822510 
	C245.895279,2119.376465 245.895279,2123.930176 245.895279,2129.764160 
	C251.121429,2129.764160 255.018372,2129.727051 258.914429,2129.769531 
	C316.512115,2130.397217 374.108459,2131.203613 431.707611,2131.624512 
	C489.003693,2132.043457 546.302551,2132.135254 603.600220,2132.151123 
	C607.388000,2132.152344 611.611877,2131.049072 614.896179,2129.171143 
	C643.788330,2112.651123 672.515930,2095.842773 701.286987,2079.111084 
	C757.677856,2046.316772 814.075928,2013.534790 870.431580,1980.680176 
	C874.406006,1978.362915 878.912231,1976.589233 882.125366,1972.596924 
	C669.944885,1972.596924 458.537628,1972.596924 245.895111,1972.596924 
	C245.895111,2019.798828 245.895111,2066.335449 245.895279,2114.822510 
M371.000000,252.470474 
	C350.340485,252.470352 329.680389,252.376343 309.021576,252.496429 
	C288.223022,252.617325 267.395508,251.965363 246.589661,252.899063 
	C246.589661,303.231049 246.589661,352.079651 246.589661,401.471008 
	C249.349274,401.756561 251.593170,402.159027 253.843063,402.195709 
	C282.477844,402.662445 311.112152,403.280273 339.749146,403.468475 
	C454.685669,404.223938 569.622803,404.904541 684.560303,405.486389 
	C747.869812,405.806854 811.180542,405.876526 874.490723,406.057495 
	C877.655701,406.066528 880.820618,406.058655 883.985596,406.058655 
	C881.660950,402.739838 879.032104,400.915283 876.230225,399.413544 
	C868.890198,395.479523 861.445190,391.741913 854.093811,387.828613 
	C772.067932,344.164276 690.036499,300.510254 608.065857,256.742371 
	C602.283630,253.654968 596.442261,252.385345 589.921509,252.396072 
	C517.614502,252.515076 445.307220,252.471298 371.000000,252.470474 
M249.708847,2198.592041 
	C249.245392,2202.220215 248.453918,2205.840576 248.369110,2209.477539 
	C247.507431,2246.426514 246.741425,2283.377686 246.031555,2320.330078 
	C245.989578,2322.515625 246.658951,2324.714844 247.111511,2327.647461 
	C258.562500,2327.647461 269.505280,2327.819336 280.434875,2327.516113 
	C282.913208,2327.447510 285.518280,2326.028564 287.774353,2324.727051 
	C359.873383,2283.134766 431.940796,2241.487793 503.996857,2199.821045 
	C509.539917,2196.615723 514.964844,2193.206055 520.444641,2189.891357 
	C520.209900,2189.419678 519.975159,2188.948242 519.740356,2188.476562 
	C430.079712,2187.313721 340.419067,2186.150879 249.761169,2184.974854 
	C249.761169,2189.543701 249.761169,2193.152100 249.708847,2198.592041 
M509.999847,189.787613 
	C510.329590,189.739319 510.695068,189.762238 510.977936,189.620453 
	C511.210388,189.503891 511.344849,189.191788 511.522736,188.966354 
	C508.740662,186.845490 506.155487,184.381500 503.147003,182.655243 
	C458.073883,156.792404 412.947174,131.022964 367.828430,105.239700 
	C333.699951,85.736870 299.573334,66.230789 265.419250,46.772881 
	C262.110840,44.888039 258.614349,43.333263 253.409210,40.725510 
	C252.132614,92.654160 250.908722,142.439209 249.661591,193.169952 
	C256.267090,193.169952 261.493652,193.257507 266.715302,193.136124 
	C269.702301,193.066666 272.678680,192.471848 275.664398,192.428513 
	C326.300873,191.693512 376.937256,190.941086 427.575409,190.338669 
	C454.569977,190.017563 481.567902,189.974625 509.999847,189.787613 
M1473.688599,1613.042480 
	C1473.759155,1606.379761 1473.415649,1599.680908 1473.992188,1593.062256 
	C1474.982056,1581.700073 1482.317383,1575.355347 1494.024170,1574.996704 
	C1505.463745,1574.646240 1512.225586,1579.939941 1514.312012,1591.282471 
	C1515.029785,1595.183960 1515.266357,1599.218994 1515.288940,1603.195435 
	C1515.390869,1621.190186 1515.337524,1639.185791 1515.339844,1657.181152 
	C1515.340332,1660.447021 1515.339966,1663.712769 1515.339966,1667.049316 
	C1524.208618,1667.049316 1532.021729,1667.049316 1540.489990,1667.049316 
	C1540.489990,1652.089966 1540.523193,1637.791748 1540.479736,1623.493774 
	C1540.442139,1611.165771 1540.783936,1598.812622 1540.114258,1586.516479 
	C1539.254028,1570.719116 1530.498901,1559.190308 1516.392456,1555.344116 
	C1500.904419,1551.121216 1486.675171,1553.698242 1474.896973,1565.484741 
	C1473.098267,1567.284912 1471.266724,1569.052368 1469.276489,1571.005615 
	C1464.128418,1563.821411 1458.805542,1557.361084 1450.542114,1555.844116 
	C1443.172607,1554.491089 1435.087158,1553.364624 1428.018921,1555.060669 
	C1420.745361,1556.805908 1414.320190,1562.086060 1407.225098,1565.983398 
	C1406.810913,1562.958740 1406.371094,1559.746216 1405.911499,1556.389526 
	C1397.710083,1556.389526 1389.869263,1556.389526 1382.107544,1556.389526 
	C1380.252319,1569.763672 1380.825928,1660.281494 1382.780518,1667.386353 
	C1390.343140,1667.386353 1397.950806,1667.386353 1406.601318,1667.386353 
	C1406.601318,1663.788330 1406.601074,1660.520874 1406.601318,1657.253418 
	C1406.602661,1639.591309 1406.406616,1621.925781 1406.721558,1604.269287 
	C1406.821045,1598.695435 1407.528320,1592.889282 1409.299438,1587.642578 
	C1412.282349,1578.806152 1420.163208,1574.459961 1429.817261,1575.058960 
	C1439.304688,1575.647583 1444.679810,1580.240845 1446.854736,1590.288208 
	C1447.690430,1594.148682 1447.842163,1598.211792 1447.863403,1602.184814 
	C1447.964844,1621.179321 1447.895996,1640.174683 1447.940918,1659.169678 
	C1447.947021,1661.731934 1448.255005,1664.293335 1448.422852,1666.849365 
	C1457.168335,1666.849365 1465.222290,1666.849365 1473.688599,1666.849365 
	C1473.688599,1648.997437 1473.688599,1632.013184 1473.688599,1613.042480 
M550.138550,1483.363525 
	C549.941345,1481.139526 549.744141,1478.915405 549.528625,1476.485596 
	C541.065430,1476.485596 533.244202,1476.485596 524.380432,1476.485596 
	C524.380432,1487.240234 524.380432,1497.486084 524.380432,1507.731812 
	C524.380432,1517.727783 524.569092,1527.728149 524.327637,1537.718384 
	C524.084229,1547.789673 525.383789,1557.957275 523.396851,1568.872314 
	C521.536621,1567.414307 520.532471,1566.656616 519.559570,1565.860596 
	C488.587311,1540.524414 442.754456,1555.052612 432.668396,1593.777100 
	C430.608490,1601.685669 429.859924,1610.338135 430.522064,1618.484009 
	C433.496887,1655.082520 462.758881,1676.485840 498.483368,1668.018555 
	C507.220184,1665.947754 515.258484,1660.929810 523.969482,1657.112793 
	C524.237244,1659.855957 524.574524,1663.311157 524.929749,1666.950073 
	C533.504150,1666.950073 541.588623,1666.950073 550.139465,1666.950073 
	C550.139465,1605.877808 550.139465,1545.584839 550.138550,1483.363525 
M988.018799,1652.817017 
	C988.000732,1631.837036 988.224854,1610.853394 987.892639,1589.878296 
	C987.593994,1571.019287 976.593506,1557.568726 958.931519,1554.441162 
	C943.711121,1551.745972 929.739014,1554.404297 918.556152,1566.171509 
	C917.548340,1567.231934 916.344421,1568.105835 913.804749,1570.297974 
	C913.804749,1537.932617 913.804749,1507.476074 913.804749,1476.692871 
	C904.888733,1476.692871 896.841492,1476.692871 888.757935,1476.692871 
	C888.757935,1540.560913 888.757935,1603.672119 888.757935,1666.890625 
	C897.422729,1666.890625 905.478699,1666.890625 913.943726,1666.890625 
	C913.943726,1645.745850 913.826416,1625.442871 914.033142,1605.143188 
	C914.079773,1600.561890 914.556091,1595.749146 916.044067,1591.462891 
	C920.226807,1579.415161 931.690979,1573.334106 944.793701,1575.533936 
	C956.235718,1577.455078 961.782593,1584.766479 962.194092,1598.546997 
	C962.283508,1601.541748 962.237366,1604.540894 962.237976,1607.537964 
	C962.241455,1624.854858 962.210144,1642.171753 962.273804,1659.488403 
	C962.283142,1662.028442 962.736023,1664.566895 962.985840,1667.128906 
	C971.497986,1667.128906 979.321106,1667.128906 988.018799,1667.128906 
	C988.018799,1662.606934 988.018799,1658.683838 988.018799,1652.817017 
M1152.087402,1564.986694 
	C1135.080322,1579.398071 1129.670410,1598.223755 1131.756958,1619.641235 
	C1133.768677,1640.290649 1142.987183,1656.794312 1162.586304,1665.141113 
	C1182.287964,1673.531860 1201.579102,1671.573364 1219.302979,1658.801147 
	C1220.702637,1657.792358 1222.292358,1657.047485 1224.117065,1655.993286 
	C1224.769897,1660.328247 1225.297363,1663.830933 1225.773560,1666.993408 
	C1234.267090,1666.993408 1242.075562,1666.993408 1249.885864,1666.993408 
	C1249.885864,1629.776245 1249.885864,1593.296875 1249.885864,1556.339111 
	C1241.566406,1556.339111 1233.764648,1556.339111 1225.557251,1556.339111 
	C1225.014282,1560.392334 1224.521973,1564.066772 1223.972046,1568.171021 
	C1199.166382,1549.656982 1176.725708,1548.559937 1152.087402,1564.986694 
M682.937561,1604.143921 
	C681.719910,1598.973755 680.938354,1593.651611 679.198303,1588.663574 
	C674.900024,1576.341919 667.528564,1566.321899 655.859741,1559.879639 
	C624.254517,1542.430298 583.246826,1559.823853 574.528442,1594.756226 
	C572.703796,1602.067383 571.965210,1609.952759 572.422974,1617.470093 
	C573.527832,1635.609131 580.166016,1651.616577 596.603638,1660.959961 
	C619.255005,1673.834961 642.373718,1673.262573 664.747009,1659.678223 
	C671.563293,1655.539673 676.758728,1649.572510 680.781311,1641.742676 
	C674.297058,1637.668823 668.498047,1634.025513 662.210388,1630.075073 
	C650.837158,1645.595825 636.574524,1652.944092 617.854858,1646.329224 
	C606.120056,1642.182617 599.251892,1631.437866 599.094482,1617.755615 
	C627.228271,1617.755615 655.362488,1617.755615 684.024170,1617.755615 
	C683.739624,1613.103516 683.518311,1609.484863 682.937561,1604.143921 
M1110.640625,1580.511597 
	C1104.858643,1569.424927 1096.267944,1561.418457 1084.532349,1556.969116 
	C1059.149292,1547.345825 1029.656006,1556.963745 1015.985840,1579.259399 
	C1001.313965,1603.188965 1005.241943,1638.287109 1024.593384,1655.840942 
	C1026.314819,1657.402588 1028.157959,1658.861450 1030.083740,1660.161865 
	C1050.359863,1673.852173 1082.139160,1673.048462 1101.694946,1658.329224 
	C1107.512085,1653.950928 1112.333252,1648.735107 1115.684082,1641.710083 
	C1109.048340,1637.526733 1103.229736,1633.858521 1097.554565,1630.280640 
	C1081.253540,1647.767578 1068.512939,1652.356689 1053.343018,1646.622681 
	C1041.644897,1642.201050 1034.485840,1631.904175 1034.223145,1618.250732 
	C1043.467163,1618.250732 1052.721558,1618.250732 1061.975830,1618.250732 
	C1071.641479,1618.250732 1081.311401,1618.433472 1090.971313,1618.197876 
	C1100.113892,1617.975098 1109.359253,1619.248535 1118.540039,1617.294556 
	C1118.958008,1604.443970 1116.567627,1592.844360 1110.640625,1580.511597 
M1555.560303,1567.277588 
	C1569.965942,1596.561401 1584.217407,1625.922852 1598.906128,1655.063965 
	C1601.882568,1660.969238 1602.369141,1665.642334 1599.134277,1671.719971 
	C1590.689453,1687.586060 1583.011108,1703.861206 1575.099731,1720.008789 
	C1573.997681,1722.258057 1573.304688,1724.707886 1572.246216,1727.535645 
	C1581.828613,1727.535645 1590.470947,1727.535645 1599.958984,1727.535645 
	C1626.275635,1670.820557 1653.045288,1614.120605 1679.453857,1556.150391 
	C1669.405151,1556.150391 1661.113037,1556.150391 1652.146362,1556.150391 
	C1640.004639,1581.901733 1629.226562,1608.473145 1615.977905,1636.017822 
	C1603.120972,1608.002441 1591.223877,1582.078735 1579.366211,1556.240723 
	C1569.824463,1556.240723 1560.919800,1556.240723 1552.080322,1556.240723 
	C1551.881714,1557.263916 1551.483521,1558.007446 1551.680176,1558.524536 
	C1552.624023,1561.004517 1553.728882,1563.423340 1555.560303,1567.277588 
M1836.648560,1571.643921 
	C1820.768677,1588.664795 1818.215698,1608.741821 1824.008789,1630.261597 
	C1828.326050,1646.299316 1838.704102,1657.656982 1853.972534,1664.259155 
	C1868.511230,1670.546265 1883.584229,1671.425659 1898.949707,1667.861450 
	C1924.817993,1661.860962 1941.782104,1640.966064 1943.379150,1613.197998 
	C1944.875366,1587.183228 1930.307617,1564.571777 1905.721802,1557.136108 
	C1880.966919,1549.649414 1857.639038,1552.539062 1836.648560,1571.643921 
M813.197876,1635.948242 
	C814.481018,1631.826660 816.202332,1627.785889 816.977783,1623.570801 
	C823.115784,1590.207031 806.766968,1561.601196 772.552429,1554.881226 
	C757.217102,1551.869385 742.035583,1553.161743 727.706238,1560.087402 
	C686.178772,1580.158203 688.784485,1635.636719 716.916260,1657.259155 
	C743.955200,1678.041504 795.394836,1674.189575 813.197876,1635.948242 
M2000.757446,1644.883057 
	C1992.321289,1639.859131 1989.897705,1631.858398 1989.877808,1622.725098 
	C1989.835449,1603.398804 1989.869629,1584.072266 1989.807007,1564.746216 
	C1989.797729,1561.906616 1989.430420,1559.068237 1989.252930,1556.568359 
	C1980.356567,1556.568359 1972.528442,1556.568359 1964.283325,1556.568359 
	C1964.283325,1582.224609 1963.495850,1607.197021 1964.544800,1632.091919 
	C1965.315552,1650.383789 1977.804565,1663.684692 1995.820190,1667.709961 
	C2002.882812,1669.288086 2010.373291,1669.995972 2017.594727,1669.631348 
	C2044.466064,1668.274780 2062.096191,1652.166016 2062.973389,1627.208740 
	C2063.780029,1604.253296 2063.052246,1581.243530 2062.947754,1558.257935 
	C2062.945068,1557.687378 2062.322510,1557.119629 2061.913574,1556.421631 
	C2054.135742,1556.421631 2046.293091,1556.421631 2037.631592,1556.421631 
	C2037.631592,1560.247192 2037.631592,1563.507080 2037.631470,1566.766968 
	C2037.630859,1583.760864 2037.677246,1600.755005 2037.591919,1617.748413 
	C2037.573608,1621.392822 2037.427612,1625.101807 2036.742065,1628.665894 
	C2034.234009,1641.702637 2026.078857,1648.270752 2012.832886,1647.770386 
	C2009.248047,1647.635010 2005.706055,1646.364868 2000.757446,1644.883057 
M1799.291992,1609.766479 
	C1791.251587,1605.908569 1783.234985,1602.000244 1775.161743,1598.212280 
	C1770.669556,1596.104492 1765.869995,1594.565430 1761.602661,1592.091187 
	C1757.705322,1589.831299 1757.211792,1585.615479 1757.875732,1581.448730 
	C1758.532349,1577.328125 1761.427612,1575.104248 1765.199585,1574.155762 
	C1771.899292,1572.471191 1778.468018,1573.114990 1784.605103,1576.352173 
	C1787.746704,1578.009277 1790.657471,1580.103882 1794.269287,1582.376221 
	C1797.693604,1576.998169 1800.837402,1572.060791 1803.831909,1567.357666 
	C1793.217163,1552.854370 1763.439087,1549.128296 1747.340942,1559.581909 
	C1734.441772,1567.958008 1728.881470,1583.748047 1734.356201,1598.046021 
	C1737.970093,1607.484375 1745.500610,1612.776367 1754.618896,1615.994019 
	C1760.884521,1618.205078 1767.413696,1619.679199 1773.649170,1621.963135 
	C1781.004883,1624.657349 1783.958740,1629.048340 1783.387817,1635.223877 
	C1782.789429,1641.696899 1778.389526,1646.563477 1771.327515,1648.126709 
	C1761.125366,1650.385254 1752.175171,1647.542847 1744.538696,1640.676270 
	C1741.912476,1638.314941 1739.861938,1635.313354 1737.277222,1632.286743 
	C1731.645264,1638.224243 1727.128052,1642.986328 1722.578735,1647.782471 
	C1736.769287,1670.160156 1771.536377,1677.109741 1792.918213,1661.691895 
	C1809.711914,1649.582397 1813.034546,1626.840820 1799.291992,1609.766479 
M299.491455,1661.599976 
	C301.286682,1664.922607 303.081940,1668.245117 305.641296,1672.982056 
	C326.310822,1633.342529 346.195648,1595.208008 366.541626,1556.188965 
	C356.463379,1556.188965 347.904877,1556.188965 339.011688,1556.188965 
	C327.871460,1577.518188 318.007324,1599.380249 305.910187,1621.949219 
	C294.413849,1598.678955 283.863556,1577.323608 273.633911,1556.617188 
	C263.901825,1556.617188 255.194931,1556.617188 245.345184,1556.617188 
	C263.522491,1591.914062 281.141815,1626.127563 299.491455,1661.599976 
M2099.238037,1475.937744 
	C2096.391602,1476.156616 2093.545410,1476.375488 2090.708984,1476.593628 
	C2090.708984,1540.551880 2090.708984,1603.621460 2090.708984,1666.951416 
	C2099.321289,1666.951416 2107.372559,1666.951416 2115.385986,1666.951416 
	C2115.385986,1603.080811 2115.385986,1539.997314 2115.385986,1475.937500 
	C2110.289795,1475.937500 2105.709717,1475.937500 2099.238037,1475.937744 
M1304.724243,1597.000244 
	C1304.724243,1583.670410 1304.724121,1570.340698 1304.724121,1557.010864 
	C1304.724121,1543.347778 1304.753784,1529.684692 1304.715698,1516.021729 
	C1304.678955,1502.859253 1304.887939,1489.684448 1304.587036,1476.459717 
	C1295.603149,1476.459717 1288.075195,1476.459717 1280.642456,1476.459717 
	C1278.666870,1487.943726 1279.090454,1659.832642 1281.065796,1667.189209 
	C1288.559937,1667.189209 1296.083984,1667.189209 1304.724487,1667.189209 
	C1304.724487,1644.130371 1304.724487,1621.565308 1304.724243,1597.000244 
M381.928986,1638.989258 
	C382.136414,1648.484985 381.466492,1658.033081 382.350189,1667.359497 
	C391.189819,1667.359497 398.748993,1667.359497 406.790222,1667.359497 
	C406.790222,1630.079346 406.790222,1593.302124 406.790222,1556.503174 
	C398.287262,1556.503174 390.465973,1556.503174 381.928986,1556.503174 
	C381.928986,1583.775513 381.928986,1610.383789 381.928986,1638.989258 
M379.596802,1512.256592 
	C379.545776,1514.233154 379.219543,1516.248413 379.491577,1518.179443 
	C380.648834,1526.395264 386.050964,1530.938965 394.442657,1530.980347 
	C402.725891,1531.021240 408.655457,1526.206177 409.849182,1518.469727 
	C411.143250,1510.083008 406.828979,1503.193359 398.861816,1500.923096 
	C390.964264,1498.672607 384.702271,1501.927002 379.596802,1512.256592 
z"/>
<path fill="#493628" opacity="1.000000" stroke="none" 
	d="
M1400.979980,709.665405 
	C1401.235962,706.699707 1401.491943,703.734009 1401.789429,700.287231 
	C1458.831543,700.287231 1515.672852,700.287231 1573.817505,700.287231 
	C1573.937500,738.769958 1574.057373,777.246033 1574.181396,817.535156 
	C1574.245483,824.956909 1574.305542,830.565552 1574.365723,836.174194 
	C1574.265747,854.114502 1574.165771,872.054871 1574.065674,891.847046 
	C1574.045410,943.934326 1574.017700,994.169800 1574.025391,1044.405273 
	C1574.025757,1047.055420 1574.324951,1049.705688 1574.303955,1053.252319 
	C1574.166138,1072.102417 1574.209229,1090.056030 1574.119629,1108.937866 
	C1573.993774,1155.369507 1573.982422,1200.872803 1574.026001,1246.376221 
	C1574.032959,1253.674683 1574.285522,1260.973022 1574.254150,1269.177246 
	C1574.167847,1288.697144 1574.251953,1307.310913 1574.191040,1326.856567 
	C1574.045898,1340.970703 1574.045898,1354.153076 1574.045898,1367.076294 
	C1559.810547,1369.418213 1408.727661,1368.724487 1400.854004,1366.134766 
	C1400.854004,1352.931274 1400.854004,1339.341431 1401.023926,1324.838379 
	C1401.064575,1305.442261 1400.935181,1286.959351 1401.036377,1267.537842 
	C1401.325439,1214.624634 1401.386475,1162.650146 1401.423950,1110.675659 
	C1401.424683,1109.691406 1401.145630,1108.707031 1401.108154,1106.868774 
	C1401.219116,1103.449707 1401.219116,1100.884399 1401.219116,1098.529175 
	C1389.506348,1096.147095 1167.782471,1096.667480 1160.767334,1098.953857 
	C1160.767334,1101.854614 1160.767334,1104.817139 1160.594971,1108.714600 
	C1160.409546,1156.545166 1160.381348,1203.440796 1160.402954,1250.336548 
	C1160.405762,1256.312622 1160.669922,1262.288818 1160.694092,1269.183472 
	C1160.803955,1289.229126 1161.032837,1308.356201 1160.975220,1328.411377 
	C1160.476196,1342.149292 1160.263550,1354.959229 1160.054199,1367.569336 
	C1137.855469,1369.739502 995.591248,1368.774048 987.384888,1366.216919 
	C987.384888,1353.613281 987.384888,1340.667480 987.560303,1326.817627 
	C987.687622,1306.631836 987.639587,1287.350220 987.730225,1267.136963 
	C987.864014,1255.918579 987.871765,1245.631958 987.852051,1235.345459 
	C987.770569,1192.878662 987.680786,1150.411987 987.702576,1107.008545 
	C987.658020,1088.184204 987.504944,1070.296631 987.528809,1051.461426 
	C987.757202,1013.571045 987.851379,976.628174 987.840149,939.685303 
	C987.835327,923.717346 987.612793,907.749451 987.629944,890.864746 
	C987.677429,872.042053 987.584229,854.136169 987.635742,835.289062 
	C987.780579,789.883240 987.780579,745.418640 987.780579,700.398804 
	C1045.782837,700.398804 1102.461304,700.398804 1160.395142,700.398804 
	C1160.395142,704.529114 1160.395142,708.084534 1160.395142,711.639893 
	C1160.394897,744.572510 1160.361206,777.505249 1160.417236,810.437744 
	C1160.432007,819.074646 1160.724731,827.710938 1160.749268,837.256714 
	C1160.697266,855.991455 1160.786133,873.817078 1160.691162,892.584229 
	C1160.461304,903.836182 1160.331543,914.146973 1160.392822,924.456665 
	C1160.453125,934.606506 1160.003296,944.796448 1160.706543,954.797241 
	C1241.473511,954.797241 1320.800171,954.797241 1401.469482,954.797241 
	C1401.292236,933.238342 1402.192749,912.427917 1401.017090,890.689331 
	C1401.064697,871.994568 1400.953247,854.201904 1401.064697,835.473389 
	C1401.354614,802.224487 1401.463135,769.911438 1401.462891,737.598389 
	C1401.462769,728.287415 1401.149536,718.976379 1400.979980,709.665405 
z"/>
<path fill="#493628" opacity="1.000000" stroke="none" 
	d="
M413.193726,1108.165405 
	C405.307159,1089.666992 397.420532,1071.168701 388.976074,1051.437988 
	C387.880768,1048.641724 387.436401,1047.038208 386.792023,1045.519775 
	C373.972046,1015.308105 361.197784,985.076721 348.266968,954.912598 
	C339.264343,933.911743 330.040253,913.005859 320.915070,892.057556 
	C313.149261,873.522278 305.383423,854.986938 297.048004,835.202881 
	C291.651520,822.353271 286.922638,810.710510 281.977783,799.160095 
	C270.927124,773.347290 259.768799,747.580566 248.654327,721.795105 
	C245.952209,714.897949 243.250076,708.000854 240.313110,700.504272 
	C243.126999,700.176758 245.580154,699.891174 249.732574,699.622803 
	C312.614105,699.639954 373.796356,699.639954 435.034393,699.639954 
	C436.649963,703.079285 438.050476,705.701172 439.143738,708.445435 
	C447.510925,729.448303 455.760315,750.498169 464.160492,771.487732 
	C472.803345,793.083618 481.575073,814.627930 490.341278,836.910034 
	C495.789886,851.340088 501.100922,865.090088 506.632233,878.750916 
	C508.579712,883.560608 511.066528,888.151978 513.312439,893.592896 
	C513.913818,896.237061 514.393494,898.177490 515.122864,900.019043 
	C530.747986,939.468628 546.349915,978.927673 562.080811,1018.335083 
	C566.606689,1029.672852 571.520081,1040.855835 576.231873,1052.852295 
	C579.149963,1061.293457 581.832581,1069.104736 585.108582,1076.658447 
	C588.241028,1083.881348 589.556824,1092.105957 595.486938,1098.382812 
	C600.195740,1091.181885 612.039917,1061.181763 614.498169,1051.659668 
	C629.385803,1014.365540 643.782104,977.547485 658.025635,940.670410 
	C664.239441,924.582642 670.140137,908.373901 676.675293,891.699707 
	C684.079285,872.795044 690.990906,854.410889 698.417786,835.533813 
	C715.309875,792.851135 731.680847,750.658936 748.068787,708.473389 
	C751.397644,699.904480 751.427368,699.815186 760.085815,699.810547 
	C818.037292,699.779297 875.988770,699.784607 933.940247,699.828186 
	C936.413635,699.830078 938.886658,700.324524 942.127441,700.671814 
	C940.967407,704.014160 940.246033,706.528198 939.239929,708.922546 
	C931.245667,727.947144 923.131531,746.921570 915.182495,765.964905 
	C905.447815,789.286072 895.837524,812.659119 885.777344,836.607056 
	C877.990540,854.778931 870.599854,872.353455 862.724854,890.411865 
	C860.819031,894.615295 859.498779,898.377258 857.960083,902.047607 
	C843.837585,935.733215 829.604309,969.372681 815.559387,1003.090576 
	C808.804077,1019.308167 802.383484,1035.665161 795.299805,1052.415894 
	C787.153015,1071.264526 779.517761,1089.656128 771.374146,1108.524048 
	C755.875732,1144.755615 740.820129,1180.483398 725.924927,1216.278076 
	C719.061401,1232.771851 712.511536,1249.395996 705.304077,1266.422607 
	C696.388184,1287.237549 687.987610,1307.590942 679.072998,1328.403564 
	C673.015686,1341.935059 667.472473,1355.007202 661.994019,1367.926880 
	C615.662109,1367.926880 570.246643,1367.926880 524.488525,1367.926880 
	C518.455505,1354.508545 512.501709,1341.266602 506.547974,1328.024536 
	C498.045044,1307.665771 489.542114,1287.307129 480.485596,1265.713989 
	C474.635590,1251.968018 469.376740,1239.440186 464.035797,1226.947632 
	C447.104919,1187.346558 430.143402,1147.758545 413.193726,1108.165405 
z"/>
<path fill="#4A3729" opacity="1.000000" stroke="none" 
	d="
M1663.714355,891.869629 
	C1665.993286,865.886108 1670.360962,840.354919 1680.693970,816.195862 
	C1705.458496,758.295593 1749.229126,721.327942 1808.340210,702.104736 
	C1865.349243,683.565063 1923.012817,684.031372 1980.760376,698.887634 
	C2017.773315,708.409729 2052.745850,722.786011 2084.879883,743.691284 
	C2088.206299,745.855225 2091.407959,748.210388 2095.658447,751.165833 
	C2072.762207,796.406799 2050.001465,841.379700 2026.808960,887.206055 
	C2023.314941,884.389771 2020.515137,882.180969 2017.766724,879.910217 
	C1992.940186,859.399719 1965.250610,844.704834 1933.278198,839.133850 
	C1915.693115,836.069702 1898.072266,835.980469 1880.996460,842.172424 
	C1857.230835,850.790344 1845.055908,871.514404 1848.584717,896.544617 
	C1850.169556,907.785889 1855.222900,916.979004 1865.129395,922.550476 
	C1874.083496,927.586304 1883.302979,932.557312 1892.994019,935.795044 
	C1916.654541,943.699768 1940.605713,950.754456 1964.533081,957.836304 
	C1993.353638,966.366394 2021.411377,976.673523 2047.385620,992.037659 
	C2077.950684,1010.117310 2102.486084,1033.789429 2116.817139,1066.960693 
	C2123.619873,1082.706299 2127.899902,1099.166016 2129.160889,1116.154663 
	C2133.819336,1178.913818 2122.046631,1237.661377 2083.806641,1289.085449 
	C2050.992432,1333.213013 2006.291626,1359.260864 1953.352417,1372.036743 
	C1929.263916,1377.850098 1904.773682,1380.096558 1878.220947,1380.097656 
	C1847.999268,1379.337769 1820.050781,1375.215454 1792.410645,1368.843994 
	C1750.977905,1359.292847 1711.623779,1344.227661 1673.609741,1323.698975 
	C1665.138794,1318.043091 1656.100708,1314.424927 1649.174438,1307.442383 
	C1651.567627,1303.077637 1653.712036,1299.333618 1655.699707,1295.508179 
	C1660.430542,1286.402832 1665.087402,1277.259155 1670.364624,1267.756836 
	C1690.292114,1232.512207 1709.629150,1197.641479 1728.750000,1163.160645 
	C1729.923706,1163.106323 1730.352173,1162.947998 1730.574707,1163.097168 
	C1733.882690,1165.312866 1737.188477,1167.533325 1740.446411,1169.821533 
	C1774.685669,1193.869629 1811.654175,1211.443481 1853.578369,1216.946289 
	C1869.808472,1219.076538 1886.098633,1219.371338 1902.241455,1215.835327 
	C1926.003662,1210.630127 1941.300415,1195.243164 1945.076416,1171.560547 
	C1948.312622,1151.262817 1943.172241,1133.494141 1925.069092,1121.948608 
	C1915.368286,1115.761597 1904.491699,1111.417847 1893.410034,1106.015137 
	C1879.681885,1101.825928 1866.816772,1097.367920 1853.672974,1093.995728 
	C1815.357300,1084.165405 1777.602295,1072.973999 1743.234009,1052.647705 
	C1742.402954,1052.156372 1741.349365,1052.041260 1740.043335,1051.168701 
	C1738.054199,1049.445801 1736.436523,1048.282349 1734.786255,1047.167236 
	C1698.324707,1022.531189 1675.234497,989.180237 1667.210083,945.476868 
	C1663.937378,927.653015 1664.153076,909.782410 1663.714355,891.869629 
z"/>
<path fill="#D7AC79" opacity="1.000000" stroke="none" 
	d="
M1674.191528,1324.096191 
	C1711.623779,1344.227661 1750.977905,1359.292847 1792.410645,1368.843994 
	C1820.050781,1375.215454 1847.999268,1379.337769 1877.314575,1380.264160 
	C1868.477173,1386.772705 1858.827148,1393.239624 1848.950684,1399.339966 
	C1814.675049,1420.511475 1780.281494,1441.491699 1746.035156,1462.709961 
	C1740.156860,1466.351929 1734.189941,1467.938354 1727.224243,1467.936768 
	C1237.342529,1467.822266 747.460754,1467.832520 257.579010,1467.832642 
	C254.307297,1467.832642 251.035583,1467.832764 248.023422,1467.832764 
	C245.695221,1459.531860 248.554382,1343.234497 251.289001,1330.128906 
	C260.909027,1329.549683 270.780457,1328.466797 280.654907,1328.438354 
	C355.303284,1328.222778 429.952271,1328.214111 505.574493,1328.082764 
	C512.501709,1341.266602 518.455505,1354.508545 524.488525,1367.926880 
	C570.246643,1367.926880 615.662109,1367.926880 661.994019,1367.926880 
	C667.472473,1355.007202 673.015686,1341.935059 680.037598,1328.444336 
	C694.510742,1328.024536 707.505249,1328.033691 720.499695,1328.019653 
	C809.461426,1327.923096 898.423157,1327.821655 987.384888,1327.721802 
	C987.384888,1340.667480 987.384888,1353.613281 987.384888,1366.216919 
	C995.591248,1368.774048 1137.855469,1369.739502 1160.054199,1367.569336 
	C1160.263550,1354.959229 1160.476196,1342.149292 1161.820068,1328.436768 
	C1180.512939,1327.143066 1198.073730,1326.470093 1215.636475,1326.412231 
	C1273.399658,1326.221924 1331.163452,1326.263306 1388.927002,1326.182861 
	C1392.902832,1326.177246 1396.878296,1325.901733 1400.854004,1325.751709 
	C1400.854004,1339.341431 1400.854004,1352.931274 1400.854004,1366.134766 
	C1408.727661,1368.724487 1559.810547,1369.418213 1574.045898,1367.076294 
	C1574.045898,1354.153076 1574.045898,1340.970703 1575.104248,1326.889038 
	C1606.042725,1325.993164 1635.922974,1326.047119 1665.802490,1325.917114 
	C1668.601440,1325.904907 1671.395264,1324.730835 1674.191528,1324.096191 
z"/>
<path fill="#D7AC79" opacity="1.000000" stroke="none" 
	d="
M322.000000,1751.854248 
	C440.990082,1752.020386 558.980591,1752.033447 676.970154,1752.386230 
	C854.923828,1752.918213 1032.876953,1753.663574 1210.829834,1754.424683 
	C1220.031860,1754.464111 1229.229858,1755.501953 1239.246460,1757.674927 
	C1236.401123,1759.606445 1233.641602,1761.681152 1230.697876,1763.448608 
	C1150.758545,1811.442749 1070.785156,1859.380005 990.877930,1907.427368 
	C985.250916,1910.811035 979.536377,1912.252686 972.944763,1912.249512 
	C734.631104,1912.138428 496.317413,1912.156494 258.003693,1912.156494 
	C254.424042,1912.156494 250.844376,1912.156372 247.568405,1912.156372 
	C244.744766,1899.230469 247.162827,1782.203125 250.715622,1752.304321 
	C273.991486,1751.281128 297.509186,1752.093140 322.000000,1751.854248 
z"/>
<path fill="#D18578" opacity="1.000000" stroke="none" 
	d="
M682.000000,622.481567 
	C536.467773,622.482117 391.935516,622.482117 246.698761,622.482117 
	C246.698761,570.157593 246.698761,518.991699 246.698761,467.149231 
	C248.720123,466.781891 250.886703,466.224335 253.085098,466.033478 
	C255.400604,465.832458 257.746521,465.978516 260.079132,465.978516 
	C497.007416,465.978058 733.935730,465.999023 970.863953,465.882874 
	C978.433777,465.879150 984.887512,467.471954 991.554626,471.379395 
	C1074.017822,519.709290 1156.661499,567.731628 1239.242920,615.859985 
	C1241.724731,617.306396 1244.037109,619.043457 1246.073486,622.481079 
	C1058.382324,622.481079 870.691162,622.481079 682.000000,622.481567 
z"/>
<path fill="#D18679" opacity="1.000000" stroke="none" 
	d="
M490.290405,836.194702 
	C481.575073,814.627930 472.803345,793.083618 464.160492,771.487732 
	C455.760315,750.498169 447.510925,729.448303 439.143738,708.445435 
	C438.050476,705.701172 436.649963,703.079285 435.034393,699.639954 
	C373.796356,699.639954 312.614105,699.639954 250.476089,699.461243 
	C249.520325,692.981079 249.520325,686.679626 249.520325,679.899841 
	C252.557755,679.315125 254.702515,678.706848 256.881927,678.532776 
	C259.531952,678.321167 262.211212,678.471741 264.877808,678.471741 
	C621.538452,678.471191 978.199097,678.487976 1334.859741,678.358093 
	C1342.424438,678.355347 1348.997314,679.544312 1355.375366,683.925537 
	C1365.975342,691.206665 1376.979858,697.916077 1387.996216,704.564270 
	C1391.576172,706.724792 1395.725830,707.940979 1400.297485,709.627258 
	C1401.149536,718.976379 1401.462769,728.287415 1401.462891,737.598389 
	C1401.463135,769.911438 1401.354614,802.224487 1400.216309,835.365479 
	C1397.818359,836.127258 1396.491455,836.003235 1395.164673,836.003052 
	C1319.727051,835.991760 1244.289307,835.987061 1168.851685,836.003845 
	C1166.197754,836.004456 1163.543701,836.227966 1160.889893,836.347534 
	C1160.724731,827.710938 1160.432007,819.074646 1160.417236,810.437744 
	C1160.361206,777.505249 1160.394897,744.572510 1160.395142,711.639893 
	C1160.395142,708.084534 1160.395142,704.529114 1160.395142,700.398804 
	C1102.461304,700.398804 1045.782837,700.398804 987.780579,700.398804 
	C987.780579,745.418640 987.780579,789.883240 986.734192,835.252197 
	C952.516357,836.107605 919.344849,836.058655 886.173462,836.009705 
	C895.837524,812.659119 905.447815,789.286072 915.182495,765.964905 
	C923.131531,746.921570 931.245667,727.947144 939.239929,708.922546 
	C940.246033,706.528198 940.967407,704.014160 942.127441,700.671814 
	C938.886658,700.324524 936.413635,699.830078 933.940247,699.828186 
	C875.988770,699.784607 818.037292,699.779297 760.085815,699.810547 
	C751.427368,699.815186 751.397644,699.904480 748.068787,708.473389 
	C731.680847,750.658936 715.309875,792.851135 697.486694,835.533508 
	C679.060669,836.010864 662.080994,835.967102 645.101379,835.985779 
	C593.497742,836.042480 541.894043,836.123291 490.290405,836.194702 
z"/>
<path fill="#D7AC79" opacity="1.000000" stroke="none" 
	d="
M245.895203,2113.847168 
	C245.895111,2066.335449 245.895111,2019.798828 245.895111,1972.596924 
	C458.537628,1972.596924 669.944885,1972.596924 882.125366,1972.596924 
	C878.912231,1976.589233 874.406006,1978.362915 870.431580,1980.680176 
	C814.075928,2013.534790 757.677856,2046.316772 701.286987,2079.111084 
	C672.515930,2095.842773 643.788330,2112.651123 614.896179,2129.171143 
	C611.611877,2131.049072 607.388000,2132.152344 603.600220,2132.151123 
	C546.302551,2132.135254 489.003693,2132.043457 431.707611,2131.624512 
	C374.108459,2131.203613 316.512115,2130.397217 258.914429,2129.769531 
	C255.018372,2129.727051 251.121429,2129.764160 245.895279,2129.764160 
	C245.895279,2123.930176 245.895279,2119.376465 245.895203,2113.847168 
z"/>
<path fill="#D18679" opacity="1.000000" stroke="none" 
	d="
M372.000000,252.470993 
	C445.307220,252.471298 517.614502,252.515076 589.921509,252.396072 
	C596.442261,252.385345 602.283630,253.654968 608.065857,256.742371 
	C690.036499,300.510254 772.067932,344.164276 854.093811,387.828613 
	C861.445190,391.741913 868.890198,395.479523 876.230225,399.413544 
	C879.032104,400.915283 881.660950,402.739838 883.985596,406.058655 
	C880.820618,406.058655 877.655701,406.066528 874.490723,406.057495 
	C811.180542,405.876526 747.869812,405.806854 684.560303,405.486389 
	C569.622803,404.904541 454.685669,404.223938 339.749146,403.468475 
	C311.112152,403.280273 282.477844,402.662445 253.843063,402.195709 
	C251.593170,402.159027 249.349274,401.756561 246.589661,401.471008 
	C246.589661,352.079651 246.589661,303.231049 246.589661,252.899063 
	C267.395508,251.965363 288.223022,252.617325 309.021576,252.496429 
	C329.680389,252.376343 350.340485,252.470352 372.000000,252.470993 
z"/>
<path fill="#D18679" opacity="1.000000" stroke="none" 
	d="
M412.176422,1108.223633 
	C430.143402,1147.758545 447.104919,1187.346558 464.035797,1226.947632 
	C469.376740,1239.440186 474.635590,1251.968018 479.993439,1265.210205 
	C404.518707,1265.918213 328.982483,1265.899536 253.446304,1265.851196 
	C251.495392,1265.849976 249.544678,1265.524902 247.739395,1265.363770 
	C245.643906,1258.110474 244.986069,1123.005249 247.092194,1108.445312 
	C301.628204,1108.390991 356.393677,1108.336426 412.176422,1108.223633 
z"/>
<path fill="#D7AD7A" opacity="1.000000" stroke="none" 
	d="
M249.735016,2197.676270 
	C249.761169,2193.152100 249.761169,2189.543701 249.761169,2184.974854 
	C340.419067,2186.150879 430.079712,2187.313721 519.740356,2188.476562 
	C519.975159,2188.948242 520.209900,2189.419678 520.444641,2189.891357 
	C514.964844,2193.206055 509.539917,2196.615723 503.996857,2199.821045 
	C431.940796,2241.487793 359.873383,2283.134766 287.774353,2324.727051 
	C285.518280,2326.028564 282.913208,2327.447510 280.434875,2327.516113 
	C269.505280,2327.819336 258.562500,2327.647461 247.111511,2327.647461 
	C246.658951,2324.714844 245.989578,2322.515625 246.031555,2320.330078 
	C246.741425,2283.377686 247.507431,2246.426514 248.369110,2209.477539 
	C248.453918,2205.840576 249.245392,2202.220215 249.735016,2197.676270 
z"/>
<path fill="#D18679" opacity="1.000000" stroke="none" 
	d="
M509.282074,189.796875 
	C481.567902,189.974625 454.569977,190.017563 427.575409,190.338669 
	C376.937256,190.941086 326.300873,191.693512 275.664398,192.428513 
	C272.678680,192.471848 269.702301,193.066666 266.715302,193.136124 
	C261.493652,193.257507 256.267090,193.169952 249.661591,193.169952 
	C250.908722,142.439209 252.132614,92.654160 253.409210,40.725510 
	C258.614349,43.333263 262.110840,44.888039 265.419250,46.772881 
	C299.573334,66.230789 333.699951,85.736870 367.828430,105.239700 
	C412.947174,131.022964 458.073883,156.792404 503.147003,182.655243 
	C506.155487,184.381500 508.740662,186.845490 511.522705,188.966339 
	C511.344849,189.191788 511.210388,189.503891 510.977936,189.620453 
	C510.695068,189.762238 510.329590,189.739319 509.282074,189.796875 
z"/>
<path fill="#D18578" opacity="1.000000" stroke="none" 
	d="
M319.912170,892.042297 
	C330.040253,913.005859 339.264343,933.911743 348.266968,954.912598 
	C361.197784,985.076721 373.972046,1015.308105 386.792023,1045.519775 
	C387.436401,1047.038208 387.880768,1048.641724 388.476013,1050.960083 
	C388.208954,1051.785645 387.884216,1051.918335 387.559204,1051.919067 
	C341.681641,1052.010498 295.804016,1052.097900 249.926376,1052.134399 
	C249.021286,1052.135010 248.115692,1051.534790 246.628098,1051.009399 
	C246.628098,998.650879 246.628098,946.249207 246.628098,892.598633 
	C270.694702,891.340942 294.817688,892.307861 319.912170,892.042297 
z"/>
<path fill="#D08578" opacity="1.000000" stroke="none" 
	d="
M1662.797119,891.890869 
	C1664.153076,909.782410 1663.937378,927.653015 1667.210083,945.476868 
	C1675.234497,989.180237 1698.324707,1022.531189 1734.786255,1047.167236 
	C1736.436523,1048.282349 1738.054199,1049.445801 1739.090698,1051.378662 
	C1683.824585,1052.232300 1629.154785,1052.294067 1574.484985,1052.355835 
	C1574.324951,1049.705688 1574.025757,1047.055420 1574.025391,1044.405273 
	C1574.017700,994.169800 1574.045410,943.934326 1574.212891,892.763062 
	C1603.533325,891.855591 1632.706665,891.883850 1662.797119,891.890869 
z"/>
<path fill="#4C392B" opacity="1.000000" stroke="none" 
	d="
M1473.688599,1614.035645 
	C1473.688599,1632.013184 1473.688599,1648.997437 1473.688599,1666.849365 
	C1465.222290,1666.849365 1457.168335,1666.849365 1448.422852,1666.849365 
	C1448.255005,1664.293335 1447.947021,1661.731934 1447.940918,1659.169678 
	C1447.895996,1640.174683 1447.964844,1621.179321 1447.863403,1602.184814 
	C1447.842163,1598.211792 1447.690430,1594.148682 1446.854736,1590.288208 
	C1444.679810,1580.240845 1439.304688,1575.647583 1429.817261,1575.058960 
	C1420.163208,1574.459961 1412.282349,1578.806152 1409.299438,1587.642578 
	C1407.528320,1592.889282 1406.821045,1598.695435 1406.721558,1604.269287 
	C1406.406616,1621.925781 1406.602661,1639.591309 1406.601318,1657.253418 
	C1406.601074,1660.520874 1406.601318,1663.788330 1406.601318,1667.386353 
	C1397.950806,1667.386353 1390.343140,1667.386353 1382.780518,1667.386353 
	C1380.825928,1660.281494 1380.252319,1569.763672 1382.107544,1556.389526 
	C1389.869263,1556.389526 1397.710083,1556.389526 1405.911499,1556.389526 
	C1406.371094,1559.746216 1406.810913,1562.958740 1407.225098,1565.983398 
	C1414.320190,1562.086060 1420.745361,1556.805908 1428.018921,1555.060669 
	C1435.087158,1553.364624 1443.172607,1554.491089 1450.542114,1555.844116 
	C1458.805542,1557.361084 1464.128418,1563.821411 1469.276489,1571.005615 
	C1471.266724,1569.052368 1473.098267,1567.284912 1474.896973,1565.484741 
	C1486.675171,1553.698242 1500.904419,1551.121216 1516.392456,1555.344116 
	C1530.498901,1559.190308 1539.254028,1570.719116 1540.114258,1586.516479 
	C1540.783936,1598.812622 1540.442139,1611.165771 1540.479736,1623.493774 
	C1540.523193,1637.791748 1540.489990,1652.089966 1540.489990,1667.049316 
	C1532.021729,1667.049316 1524.208618,1667.049316 1515.339966,1667.049316 
	C1515.339966,1663.712769 1515.340332,1660.447021 1515.339844,1657.181152 
	C1515.337524,1639.185791 1515.390869,1621.190186 1515.288940,1603.195435 
	C1515.266357,1599.218994 1515.029785,1595.183960 1514.312012,1591.282471 
	C1512.225586,1579.939941 1505.463745,1574.646240 1494.024170,1574.996704 
	C1482.317383,1575.355347 1474.982056,1581.700073 1473.992188,1593.062256 
	C1473.415649,1599.680908 1473.759155,1606.379761 1473.688599,1614.035645 
z"/>
<path fill="#4D3B2D" opacity="1.000000" stroke="none" 
	d="
M550.139038,1484.327637 
	C550.139465,1545.584839 550.139465,1605.877808 550.139465,1666.950073 
	C541.588623,1666.950073 533.504150,1666.950073 524.929749,1666.950073 
	C524.574524,1663.311157 524.237244,1659.855957 523.969482,1657.112793 
	C515.258484,1660.929810 507.220184,1665.947754 498.483368,1668.018555 
	C462.758881,1676.485840 433.496887,1655.082520 430.522064,1618.484009 
	C429.859924,1610.338135 430.608490,1601.685669 432.668396,1593.777100 
	C442.754456,1555.052612 488.587311,1540.524414 519.559570,1565.860596 
	C520.532471,1566.656616 521.536621,1567.414307 523.396851,1568.872314 
	C525.383789,1557.957275 524.084229,1547.789673 524.327637,1537.718384 
	C524.569092,1527.728149 524.380432,1517.727783 524.380432,1507.731812 
	C524.380432,1497.486084 524.380432,1487.240234 524.380432,1476.485596 
	C533.244202,1476.485596 541.065430,1476.485596 549.528625,1476.485596 
	C549.744141,1478.915405 549.941345,1481.139526 550.139038,1484.327637 
M523.117615,1627.406250 
	C524.012573,1620.529175 526.042908,1613.574951 525.581665,1606.790039 
	C524.379639,1589.109131 511.105164,1576.612793 493.719940,1575.474365 
	C475.673920,1574.292480 462.065826,1584.275024 457.543823,1601.717163 
	C455.279999,1610.449219 455.978577,1618.930420 459.069122,1627.220093 
	C463.406616,1638.854614 472.049194,1645.724976 484.155792,1647.595093 
	C502.804077,1650.475586 517.574707,1641.493408 523.117615,1627.406250 
z"/>
<path fill="#4E3C2E" opacity="1.000000" stroke="none" 
	d="
M988.018799,1653.788818 
	C988.018799,1658.683838 988.018799,1662.606934 988.018799,1667.128906 
	C979.321106,1667.128906 971.497986,1667.128906 962.985840,1667.128906 
	C962.736023,1664.566895 962.283142,1662.028442 962.273804,1659.488403 
	C962.210144,1642.171753 962.241455,1624.854858 962.237976,1607.537964 
	C962.237366,1604.540894 962.283508,1601.541748 962.194092,1598.546997 
	C961.782593,1584.766479 956.235718,1577.455078 944.793701,1575.533936 
	C931.690979,1573.334106 920.226807,1579.415161 916.044067,1591.462891 
	C914.556091,1595.749146 914.079773,1600.561890 914.033142,1605.143188 
	C913.826416,1625.442871 913.943726,1645.745850 913.943726,1666.890625 
	C905.478699,1666.890625 897.422729,1666.890625 888.757935,1666.890625 
	C888.757935,1603.672119 888.757935,1540.560913 888.757935,1476.692871 
	C896.841492,1476.692871 904.888733,1476.692871 913.804749,1476.692871 
	C913.804749,1507.476074 913.804749,1537.932617 913.804749,1570.297974 
	C916.344421,1568.105835 917.548340,1567.231934 918.556152,1566.171509 
	C929.739014,1554.404297 943.711121,1551.745972 958.931519,1554.441162 
	C976.593506,1557.568726 987.593994,1571.019287 987.892639,1589.878296 
	C988.224854,1610.853394 988.000732,1631.837036 988.018799,1653.788818 
z"/>
<path fill="#4D3B2C" opacity="1.000000" stroke="none" 
	d="
M1152.651611,1564.541016 
	C1176.725708,1548.559937 1199.166382,1549.656982 1223.972046,1568.171021 
	C1224.521973,1564.066772 1225.014282,1560.392334 1225.557251,1556.339111 
	C1233.764648,1556.339111 1241.566406,1556.339111 1249.885864,1556.339111 
	C1249.885864,1593.296875 1249.885864,1629.776245 1249.885864,1666.993408 
	C1242.075562,1666.993408 1234.267090,1666.993408 1225.773560,1666.993408 
	C1225.297363,1663.830933 1224.769897,1660.328247 1224.117065,1655.993286 
	C1222.292358,1657.047485 1220.702637,1657.792358 1219.302979,1658.801147 
	C1201.579102,1671.573364 1182.287964,1673.531860 1162.586304,1665.141113 
	C1142.987183,1656.794312 1133.768677,1640.290649 1131.756958,1619.641235 
	C1129.670410,1598.223755 1135.080322,1579.398071 1152.651611,1564.541016 
M1225.047363,1599.039673 
	C1224.148193,1596.900757 1223.421875,1594.668091 1222.321533,1592.638306 
	C1215.315674,1579.713501 1202.179932,1573.657715 1185.966919,1575.774414 
	C1172.334229,1577.554077 1161.469116,1587.298706 1158.567139,1601.115601 
	C1157.557739,1605.921021 1157.487549,1611.045532 1157.772217,1615.979004 
	C1158.808228,1633.931641 1170.627686,1646.512939 1187.380615,1647.942993 
	C1205.887817,1649.522827 1221.856079,1638.836182 1225.357056,1621.409180 
	C1226.696167,1614.742920 1225.549805,1607.577515 1225.047363,1599.039673 
z"/>
<path fill="#4D3B2D" opacity="1.000000" stroke="none" 
	d="
M683.117249,1605.005005 
	C683.518311,1609.484863 683.739624,1613.103516 684.024170,1617.755615 
	C655.362488,1617.755615 627.228271,1617.755615 599.094482,1617.755615 
	C599.251892,1631.437866 606.120056,1642.182617 617.854858,1646.329224 
	C636.574524,1652.944092 650.837158,1645.595825 662.210388,1630.075073 
	C668.498047,1634.025513 674.297058,1637.668823 680.781311,1641.742676 
	C676.758728,1649.572510 671.563293,1655.539673 664.747009,1659.678223 
	C642.373718,1673.262573 619.255005,1673.834961 596.603638,1660.959961 
	C580.166016,1651.616577 573.527832,1635.609131 572.422974,1617.470093 
	C571.965210,1609.952759 572.703796,1602.067383 574.528442,1594.756226 
	C583.246826,1559.823853 624.254517,1542.430298 655.859741,1559.879639 
	C667.528564,1566.321899 674.900024,1576.341919 679.198303,1588.663574 
	C680.938354,1593.651611 681.719910,1598.973755 683.117249,1605.005005 
M621.039307,1598.291382 
	C632.775452,1597.842529 644.593506,1599.211304 656.378357,1597.527588 
	C653.542969,1581.028809 642.476501,1572.746216 625.655090,1573.816528 
	C611.005920,1574.748657 600.993958,1584.110596 600.161926,1598.291382 
	C606.476135,1598.291382 612.769104,1598.291382 621.039307,1598.291382 
z"/>
<path fill="#4D3B2D" opacity="1.000000" stroke="none" 
	d="
M1111.018921,1581.156372 
	C1116.567627,1592.844360 1118.958008,1604.443970 1118.540039,1617.294556 
	C1109.359253,1619.248535 1100.113892,1617.975098 1090.971313,1618.197876 
	C1081.311401,1618.433472 1071.641479,1618.250732 1061.975830,1618.250732 
	C1052.721558,1618.250732 1043.467163,1618.250732 1034.223145,1618.250732 
	C1034.485840,1631.904175 1041.644897,1642.201050 1053.343018,1646.622681 
	C1068.512939,1652.356689 1081.253540,1647.767578 1097.554565,1630.280640 
	C1103.229736,1633.858521 1109.048340,1637.526733 1115.684082,1641.710083 
	C1112.333252,1648.735107 1107.512085,1653.950928 1101.694946,1658.329224 
	C1082.139160,1673.048462 1050.359863,1673.852173 1030.083740,1660.161865 
	C1028.157959,1658.861450 1026.314819,1657.402588 1024.593384,1655.840942 
	C1005.241943,1638.287109 1001.313965,1603.188965 1015.985840,1579.259399 
	C1029.656006,1556.963745 1059.149292,1547.345825 1084.532349,1556.969116 
	C1096.267944,1561.418457 1104.858643,1569.424927 1111.018921,1581.156372 
M1068.197510,1573.884155 
	C1064.543579,1573.966553 1060.831909,1573.663696 1057.245972,1574.200439 
	C1044.324829,1576.134277 1035.509521,1585.733398 1035.244995,1597.599609 
	C1054.003418,1597.599609 1072.758545,1597.599609 1092.101074,1597.599609 
	C1089.396484,1584.457642 1082.086670,1576.943604 1068.197510,1573.884155 
z"/>
<path fill="#4D3B2D" opacity="1.000000" stroke="none" 
	d="
M1555.168457,1566.570801 
	C1553.728882,1563.423340 1552.624023,1561.004517 1551.680176,1558.524536 
	C1551.483521,1558.007446 1551.881714,1557.263916 1552.080322,1556.240723 
	C1560.919800,1556.240723 1569.824463,1556.240723 1579.366211,1556.240723 
	C1591.223877,1582.078735 1603.120972,1608.002441 1615.977905,1636.017822 
	C1629.226562,1608.473145 1640.004639,1581.901733 1652.146362,1556.150391 
	C1661.113037,1556.150391 1669.405151,1556.150391 1679.453857,1556.150391 
	C1653.045288,1614.120605 1626.275635,1670.820557 1599.958984,1727.535645 
	C1590.470947,1727.535645 1581.828613,1727.535645 1572.246216,1727.535645 
	C1573.304688,1724.707886 1573.997681,1722.258057 1575.099731,1720.008789 
	C1583.011108,1703.861206 1590.689453,1687.586060 1599.134277,1671.719971 
	C1602.369141,1665.642334 1601.882568,1660.969238 1598.906128,1655.063965 
	C1584.217407,1625.922852 1569.965942,1596.561401 1555.168457,1566.570801 
z"/>
<path fill="#4D3B2C" opacity="1.000000" stroke="none" 
	d="
M1837.148438,1571.140991 
	C1857.639038,1552.539062 1880.966919,1549.649414 1905.721802,1557.136108 
	C1930.307617,1564.571777 1944.875366,1587.183228 1943.379150,1613.197998 
	C1941.782104,1640.966064 1924.817993,1661.860962 1898.949707,1667.861450 
	C1883.584229,1671.425659 1868.511230,1670.546265 1853.972534,1664.259155 
	C1838.704102,1657.656982 1828.326050,1646.299316 1824.008789,1630.261597 
	C1818.215698,1608.741821 1820.768677,1588.664795 1837.148438,1571.140991 
M1887.847046,1647.566284 
	C1890.723389,1646.748291 1893.702393,1646.184204 1896.458740,1645.069580 
	C1910.265625,1639.484863 1918.760498,1624.663574 1917.485718,1608.669678 
	C1916.172485,1592.193726 1906.933105,1580.669800 1891.574219,1577.177612 
	C1878.410034,1574.184448 1866.139282,1576.476196 1856.618530,1586.546997 
	C1846.190186,1597.577759 1845.363037,1611.127075 1849.509277,1624.884644 
	C1854.220825,1640.518311 1866.817505,1647.976318 1887.847046,1647.566284 
z"/>
<path fill="#4D3B2C" opacity="1.000000" stroke="none" 
	d="
M812.842163,1636.621338 
	C795.394836,1674.189575 743.955200,1678.041504 716.916260,1657.259155 
	C688.784485,1635.636719 686.178772,1580.158203 727.706238,1560.087402 
	C742.035583,1553.161743 757.217102,1551.869385 772.552429,1554.881226 
	C806.766968,1561.601196 823.115784,1590.207031 816.977783,1623.570801 
	C816.202332,1627.785889 814.481018,1631.826660 812.842163,1636.621338 
M783.967529,1587.138428 
	C770.572754,1574.832886 752.619385,1572.463623 738.209412,1581.100098 
	C725.443359,1588.751221 719.501465,1604.879395 723.425110,1621.228882 
	C727.630493,1638.752563 742.015564,1649.156616 760.194275,1647.822754 
	C777.804443,1646.530640 790.901428,1633.257080 792.165039,1615.486206 
	C792.869934,1605.573242 791.253113,1596.304443 783.967529,1587.138428 
z"/>
<path fill="#4E3C2E" opacity="1.000000" stroke="none" 
	d="
M2001.450928,1645.249268 
	C2005.706055,1646.364868 2009.248047,1647.635010 2012.832886,1647.770386 
	C2026.078857,1648.270752 2034.234009,1641.702637 2036.742065,1628.665894 
	C2037.427612,1625.101807 2037.573608,1621.392822 2037.591919,1617.748413 
	C2037.677246,1600.755005 2037.630859,1583.760864 2037.631470,1566.766968 
	C2037.631592,1563.507080 2037.631592,1560.247192 2037.631592,1556.421631 
	C2046.293091,1556.421631 2054.135742,1556.421631 2061.913574,1556.421631 
	C2062.322510,1557.119629 2062.945068,1557.687378 2062.947754,1558.257935 
	C2063.052246,1581.243530 2063.780029,1604.253296 2062.973389,1627.208740 
	C2062.096191,1652.166016 2044.466064,1668.274780 2017.594727,1669.631348 
	C2010.373291,1669.995972 2002.882812,1669.288086 1995.820190,1667.709961 
	C1977.804565,1663.684692 1965.315552,1650.383789 1964.544800,1632.091919 
	C1963.495850,1607.197021 1964.283325,1582.224609 1964.283325,1556.568359 
	C1972.528442,1556.568359 1980.356567,1556.568359 1989.252930,1556.568359 
	C1989.430420,1559.068237 1989.797729,1561.906616 1989.807007,1564.746216 
	C1989.869629,1584.072266 1989.835449,1603.398804 1989.877808,1622.725098 
	C1989.897705,1631.858398 1992.321289,1639.859131 2001.450928,1645.249268 
z"/>
<path fill="#4E3C2E" opacity="1.000000" stroke="none" 
	d="
M1799.825195,1610.266602 
	C1813.034546,1626.840820 1809.711914,1649.582397 1792.918213,1661.691895 
	C1771.536377,1677.109741 1736.769287,1670.160156 1722.578735,1647.782471 
	C1727.128052,1642.986328 1731.645264,1638.224243 1737.277222,1632.286743 
	C1739.861938,1635.313354 1741.912476,1638.314941 1744.538696,1640.676270 
	C1752.175171,1647.542847 1761.125366,1650.385254 1771.327515,1648.126709 
	C1778.389526,1646.563477 1782.789429,1641.696899 1783.387817,1635.223877 
	C1783.958740,1629.048340 1781.004883,1624.657349 1773.649170,1621.963135 
	C1767.413696,1619.679199 1760.884521,1618.205078 1754.618896,1615.994019 
	C1745.500610,1612.776367 1737.970093,1607.484375 1734.356201,1598.046021 
	C1728.881470,1583.748047 1734.441772,1567.958008 1747.340942,1559.581909 
	C1763.439087,1549.128296 1793.217163,1552.854370 1803.831909,1567.357666 
	C1800.837402,1572.060791 1797.693604,1576.998169 1794.269287,1582.376221 
	C1790.657471,1580.103882 1787.746704,1578.009277 1784.605103,1576.352173 
	C1778.468018,1573.114990 1771.899292,1572.471191 1765.199585,1574.155762 
	C1761.427612,1575.104248 1758.532349,1577.328125 1757.875732,1581.448730 
	C1757.211792,1585.615479 1757.705322,1589.831299 1761.602661,1592.091187 
	C1765.869995,1594.565430 1770.669556,1596.104492 1775.161743,1598.212280 
	C1783.234985,1602.000244 1791.251587,1605.908569 1799.825195,1610.266602 
z"/>
<path fill="#4D3B2D" opacity="1.000000" stroke="none" 
	d="
M299.126282,1660.970459 
	C281.141815,1626.127563 263.522491,1591.914062 245.345184,1556.617188 
	C255.194931,1556.617188 263.901825,1556.617188 273.633911,1556.617188 
	C283.863556,1577.323608 294.413849,1598.678955 305.910187,1621.949219 
	C318.007324,1599.380249 327.871460,1577.518188 339.011688,1556.188965 
	C347.904877,1556.188965 356.463379,1556.188965 366.541626,1556.188965 
	C346.195648,1595.208008 326.310822,1633.342529 305.641296,1672.982056 
	C303.081940,1668.245117 301.286682,1664.922607 299.126282,1660.970459 
z"/>
<path fill="#4E3C2E" opacity="1.000000" stroke="none" 
	d="
M2100.183838,1475.937622 
	C2105.709717,1475.937500 2110.289795,1475.937500 2115.385986,1475.937500 
	C2115.385986,1539.997314 2115.385986,1603.080811 2115.385986,1666.951416 
	C2107.372559,1666.951416 2099.321289,1666.951416 2090.708984,1666.951416 
	C2090.708984,1603.621460 2090.708984,1540.551880 2090.708984,1476.593628 
	C2093.545410,1476.375488 2096.391602,1476.156616 2100.183838,1475.937622 
z"/>
<path fill="#4A3729" opacity="1.000000" stroke="none" 
	d="
M1304.724365,1598.000244 
	C1304.724487,1621.565308 1304.724487,1644.130371 1304.724487,1667.189209 
	C1296.083984,1667.189209 1288.559937,1667.189209 1281.065796,1667.189209 
	C1279.090454,1659.832642 1278.666870,1487.943726 1280.642456,1476.459717 
	C1288.075195,1476.459717 1295.603149,1476.459717 1304.587036,1476.459717 
	C1304.887939,1489.684448 1304.678955,1502.859253 1304.715698,1516.021729 
	C1304.753784,1529.684692 1304.724121,1543.347778 1304.724121,1557.010864 
	C1304.724121,1570.340698 1304.724243,1583.670410 1304.724365,1598.000244 
z"/>
<path fill="#CF8578" opacity="1.000000" stroke="none" 
	d="
M248.474518,722.724792 
	C259.768799,747.580566 270.927124,773.347290 281.977783,799.160095 
	C286.922638,810.710510 291.651520,822.353271 296.560425,834.695740 
	C280.175201,835.437317 263.708008,835.437317 246.004257,835.437317 
	C246.777710,797.689697 247.536209,760.672058 248.474518,722.724792 
z"/>
<path fill="#503E30" opacity="1.000000" stroke="none" 
	d="
M381.928986,1637.990723 
	C381.928986,1610.383789 381.928986,1583.775513 381.928986,1556.503174 
	C390.465973,1556.503174 398.287262,1556.503174 406.790222,1556.503174 
	C406.790222,1593.302124 406.790222,1630.079346 406.790222,1667.359497 
	C398.748993,1667.359497 391.189819,1667.359497 382.350189,1667.359497 
	C381.466492,1658.033081 382.136414,1648.484985 381.928986,1637.990723 
z"/>
<path fill="#4E3C2E" opacity="1.000000" stroke="none" 
	d="
M379.734009,1511.524536 
	C384.702271,1501.927002 390.964264,1498.672607 398.861816,1500.923096 
	C406.828979,1503.193359 411.143250,1510.083008 409.849182,1518.469727 
	C408.655457,1526.206177 402.725891,1531.021240 394.442657,1530.980347 
	C386.050964,1530.938965 380.648834,1526.395264 379.491577,1518.179443 
	C379.219543,1516.248413 379.545776,1514.233154 379.734009,1511.524536 
z"/>
<path fill="#D18679" opacity="1.000000" stroke="none" 
	d="
M1575.270874,836.150635 
	C1574.305542,830.565552 1574.245483,824.956909 1574.387085,818.419739 
	C1584.017822,822.818665 1593.446777,828.146118 1602.875732,833.473572 
	C1602.694092,834.224976 1602.512573,834.976318 1602.330933,835.727661 
	C1593.612671,835.860779 1584.894287,835.993896 1575.270874,836.150635 
z"/>
<path fill="#D18578" opacity="1.000000" stroke="none" 
	d="
M1894.145752,1106.242432 
	C1904.491699,1111.417847 1915.368286,1115.761597 1925.069092,1121.948608 
	C1943.172241,1133.494141 1948.312622,1151.262817 1945.076416,1171.560547 
	C1941.300415,1195.243164 1926.003662,1210.630127 1902.241455,1215.835327 
	C1886.098633,1219.371338 1869.808472,1219.076538 1853.578369,1216.946289 
	C1811.654175,1211.443481 1774.685669,1193.869629 1740.446411,1169.821533 
	C1737.188477,1167.533325 1733.882690,1165.312866 1730.574707,1163.097168 
	C1730.352173,1162.947998 1729.923706,1163.106323 1728.750000,1163.160645 
	C1709.629150,1197.641479 1690.292114,1232.512207 1669.443726,1267.822998 
	C1636.763062,1268.265869 1605.593872,1268.268677 1574.424561,1268.271362 
	C1574.285522,1260.973022 1574.032959,1253.674683 1574.026001,1246.376221 
	C1573.982422,1200.872803 1573.993774,1155.369507 1575.035034,1109.020020 
	C1679.669067,1108.237427 1783.255127,1108.315308 1886.841064,1108.275269 
	C1889.276245,1108.274414 1891.710815,1106.949585 1894.145752,1106.242432 
z"/>
<path fill="#D18678" opacity="1.000000" stroke="none" 
	d="
M705.819336,1265.961060 
	C712.511536,1249.395996 719.061401,1232.771851 725.924927,1216.278076 
	C740.820129,1180.483398 755.875732,1144.755615 772.315186,1108.621582 
	C843.048645,1108.280640 912.332642,1108.322021 981.616699,1108.338867 
	C983.609192,1108.339355 985.601624,1108.082153 987.594116,1107.945190 
	C987.680786,1150.411987 987.770569,1192.878662 987.852051,1235.345459 
	C987.871765,1245.631958 987.864014,1255.918579 986.825806,1267.046387 
	C953.914978,1267.429199 922.048340,1266.835327 890.178955,1266.554199 
	C863.603821,1266.319580 837.025391,1266.494263 810.448669,1266.410278 
	C775.572083,1266.300171 740.695740,1266.114380 705.819336,1265.961060 
z"/>
<path fill="#CF8578" opacity="1.000000" stroke="none" 
	d="
M1160.813110,1268.264893 
	C1160.669922,1262.288818 1160.405762,1256.312622 1160.402954,1250.336548 
	C1160.381348,1203.440796 1160.409546,1156.545166 1161.471069,1108.838867 
	C1164.509644,1108.137817 1166.499512,1108.342896 1168.489502,1108.343384 
	C1243.013550,1108.360229 1317.537476,1108.365601 1392.061523,1108.331787 
	C1395.040161,1108.330444 1398.018677,1107.934570 1400.997192,1107.722656 
	C1401.145630,1108.707031 1401.424683,1109.691406 1401.423950,1110.675659 
	C1401.386475,1162.650146 1401.325439,1214.624634 1400.190674,1267.422363 
	C1397.454834,1268.178833 1395.795288,1268.055176 1394.135498,1268.053345 
	C1319.345825,1267.969849 1244.556274,1267.891602 1169.766602,1267.841797 
	C1166.782227,1267.839844 1163.797607,1268.117554 1160.813110,1268.264893 
z"/>
<path fill="#D08578" opacity="1.000000" stroke="none" 
	d="
M795.811340,1051.958984 
	C802.383484,1035.665161 808.804077,1019.308167 815.559387,1003.090576 
	C829.604309,969.372681 843.837585,935.733215 857.960083,902.047607 
	C859.498779,898.377258 860.819031,894.615295 863.383850,891.016479 
	C866.138062,891.427307 867.749207,891.971680 869.359924,891.970520 
	C908.736328,891.942749 948.112793,891.856934 987.489197,891.781494 
	C987.612793,907.749451 987.835327,923.717346 987.840149,939.685303 
	C987.851379,976.628174 987.757202,1013.571045 986.634644,1051.472656 
	C930.963074,1052.388062 876.362671,1052.358765 821.762268,1052.287231 
	C813.111816,1052.276001 804.461670,1052.073242 795.811340,1051.958984 
z"/>
<path fill="#F7EFDC" opacity="1.000000" stroke="none" 
	d="
M705.304077,1266.422607 
	C740.695740,1266.114380 775.572083,1266.300171 810.448669,1266.410278 
	C837.025391,1266.494263 863.603821,1266.319580 890.178955,1266.554199 
	C922.048340,1266.835327 953.914978,1267.429199 986.687134,1267.978271 
	C987.639587,1287.350220 987.687622,1306.631836 987.560303,1326.817627 
	C898.423157,1327.821655 809.461426,1327.923096 720.499695,1328.019653 
	C707.505249,1328.033691 694.510742,1328.024536 680.551636,1327.985107 
	C687.987610,1307.590942 696.388184,1287.237549 705.304077,1266.422607 
z"/>
<path fill="#CE8477" opacity="1.000000" stroke="none" 
	d="
M1400.858154,891.591370 
	C1402.192749,912.427917 1401.292236,933.238342 1401.469482,954.797241 
	C1320.800171,954.797241 1241.473511,954.797241 1160.706543,954.797241 
	C1160.003296,944.796448 1160.453125,934.606506 1160.392822,924.456665 
	C1160.331543,914.146973 1160.461304,903.836182 1161.565063,892.658813 
	C1164.281128,891.868469 1165.939575,892.012146 1167.598022,892.012451 
	C1242.700439,892.024780 1317.802979,892.028992 1392.905396,892.007446 
	C1395.556274,892.006714 1398.207275,891.736145 1400.858154,891.591370 
z"/>
<path fill="#F8F1DD" opacity="1.000000" stroke="none" 
	d="
M1160.694092,1269.183472 
	C1163.797607,1268.117554 1166.782227,1267.839844 1169.766602,1267.841797 
	C1244.556274,1267.891602 1319.345825,1267.969849 1394.135498,1268.053345 
	C1395.795288,1268.055176 1397.454834,1268.178833 1399.960205,1268.361084 
	C1400.935181,1286.959351 1401.064575,1305.442261 1401.023926,1324.838379 
	C1396.878296,1325.901733 1392.902832,1326.177246 1388.927002,1326.182861 
	C1331.163452,1326.263306 1273.399658,1326.221924 1215.636475,1326.412231 
	C1198.073730,1326.470093 1180.512939,1327.143066 1162.106445,1327.508789 
	C1161.032837,1308.356201 1160.803955,1289.229126 1160.694092,1269.183472 
z"/>
<path fill="#F8F0DD" opacity="1.000000" stroke="none" 
	d="
M1401.017090,890.689331 
	C1398.207275,891.736145 1395.556274,892.006714 1392.905396,892.007446 
	C1317.802979,892.028992 1242.700439,892.024780 1167.598022,892.012451 
	C1165.939575,892.012146 1164.281128,891.868469 1161.748779,891.717163 
	C1160.786133,873.817078 1160.697266,855.991455 1160.749146,837.256714 
	C1163.543701,836.227966 1166.197754,836.004456 1168.851685,836.003845 
	C1244.289307,835.987061 1319.727051,835.991760 1395.164673,836.003052 
	C1396.491455,836.003235 1397.818359,836.127258 1399.993408,836.301331 
	C1400.953247,854.201904 1401.064697,871.994568 1401.017090,890.689331 
z"/>
<path fill="#F7EFDC" opacity="1.000000" stroke="none" 
	d="
M1893.410034,1106.015137 
	C1891.710815,1106.949585 1889.276245,1108.274414 1886.841064,1108.275269 
	C1783.255127,1108.315308 1679.669067,1108.237427 1575.167725,1108.091797 
	C1574.209229,1090.056030 1574.166138,1072.102417 1574.303955,1053.252319 
	C1629.154785,1052.294067 1683.824585,1052.232300 1739.447021,1051.960571 
	C1741.349365,1052.041260 1742.402954,1052.156372 1743.234009,1052.647705 
	C1777.602295,1072.973999 1815.357300,1084.165405 1853.672974,1093.995728 
	C1866.816772,1097.367920 1879.681885,1101.825928 1893.410034,1106.015137 
z"/>
<path fill="#F7EFDC" opacity="1.000000" stroke="none" 
	d="
M795.299805,1052.416016 
	C804.461670,1052.073242 813.111816,1052.276001 821.762268,1052.287231 
	C876.362671,1052.358765 930.963074,1052.388062 986.457642,1052.420166 
	C987.504944,1070.296631 987.658020,1088.184204 987.702576,1107.008545 
	C985.601624,1108.082153 983.609192,1108.339355 981.616699,1108.338867 
	C912.332642,1108.322021 843.048645,1108.280640 772.823608,1108.145264 
	C779.517761,1089.656128 787.153015,1071.264526 795.299805,1052.416016 
z"/>
<path fill="#F7EFDC" opacity="1.000000" stroke="none" 
	d="
M987.629944,890.864746 
	C948.112793,891.856934 908.736328,891.942749 869.359924,891.970520 
	C867.749207,891.971680 866.138062,891.427307 863.868164,890.532593 
	C870.599854,872.353455 877.990540,854.778931 885.777283,836.607056 
	C919.344849,836.058655 952.516357,836.107605 986.589355,836.193359 
	C987.584229,854.136169 987.677429,872.042053 987.629944,890.864746 
z"/>
<path fill="#F6EEDB" opacity="1.000000" stroke="none" 
	d="
M1574.254150,1269.177246 
	C1605.593872,1268.268677 1636.763062,1268.265869 1668.853271,1268.197021 
	C1665.087402,1277.259155 1660.430542,1286.402832 1655.699707,1295.508179 
	C1653.712036,1299.333618 1651.567627,1303.077637 1649.174438,1307.442383 
	C1656.100708,1314.424927 1665.138794,1318.043091 1673.609741,1323.698975 
	C1671.395264,1324.730835 1668.601440,1325.904907 1665.802490,1325.917114 
	C1635.922974,1326.047119 1606.042725,1325.993164 1575.249390,1325.957275 
	C1574.251953,1307.310913 1574.167847,1288.697144 1574.254150,1269.177246 
z"/>
<path fill="#F8F1DE" opacity="1.000000" stroke="none" 
	d="
M1401.108154,1106.868774 
	C1398.018677,1107.934570 1395.040161,1108.330444 1392.061523,1108.331787 
	C1317.537476,1108.365601 1243.013550,1108.360229 1168.489502,1108.343384 
	C1166.499512,1108.342896 1164.509644,1108.137817 1161.643555,1107.903931 
	C1160.767334,1104.817139 1160.767334,1101.854614 1160.767334,1098.953857 
	C1167.782471,1096.667480 1389.506348,1096.147095 1401.219116,1098.529175 
	C1401.219116,1100.884399 1401.219116,1103.449707 1401.108154,1106.868774 
z"/>
<path fill="#D08578" opacity="1.000000" stroke="none" 
	d="
M676.182983,892.220154 
	C670.140137,908.373901 664.239441,924.582642 658.025635,940.670410 
	C643.782104,977.547485 629.385803,1014.365540 613.565369,1051.707275 
	C600.138062,1052.174683 588.196960,1052.142334 576.255798,1052.109863 
	C571.520081,1040.855835 566.606689,1029.672852 562.080811,1018.335083 
	C546.349915,978.927673 530.747986,939.468628 515.122864,900.019043 
	C514.393494,898.177490 513.913818,896.237061 514.276672,893.319214 
	C568.884705,892.270508 622.533875,892.245300 676.182983,892.220154 
z"/>
<path fill="#F7EFDC" opacity="1.000000" stroke="none" 
	d="
M676.675293,891.699707 
	C622.533875,892.245300 568.884705,892.270508 514.271301,892.569336 
	C511.066528,888.151978 508.579712,883.560608 506.632233,878.750916 
	C501.100922,865.090088 495.789886,851.340088 490.341248,836.909973 
	C541.894043,836.123291 593.497742,836.042480 645.101379,835.985779 
	C662.080994,835.967102 679.060669,836.010864 696.971436,836.026367 
	C690.990906,854.410889 684.079285,872.795044 676.675293,891.699707 
z"/>
<path fill="#F1E8D5" opacity="1.000000" stroke="none" 
	d="
M576.231873,1052.852417 
	C588.196960,1052.142334 600.138062,1052.174683 613.011963,1052.159424 
	C612.039917,1061.181763 600.195740,1091.181885 595.486938,1098.382812 
	C589.556824,1092.105957 588.241028,1083.881348 585.108582,1076.658447 
	C581.832581,1069.104736 579.149963,1061.293457 576.231873,1052.852417 
z"/>
<path fill="#F5EEDB" opacity="1.000000" stroke="none" 
	d="
M522.762695,1628.107666 
	C517.574707,1641.493408 502.804077,1650.475586 484.155792,1647.595093 
	C472.049194,1645.724976 463.406616,1638.854614 459.069122,1627.220093 
	C455.978577,1618.930420 455.279999,1610.449219 457.543823,1601.717163 
	C462.065826,1584.275024 475.673920,1574.292480 493.719940,1575.474365 
	C511.105164,1576.612793 524.379639,1589.109131 525.581665,1606.790039 
	C526.042908,1613.574951 524.012573,1620.529175 522.762695,1628.107666 
z"/>
<path fill="#F6EEDB" opacity="1.000000" stroke="none" 
	d="
M1225.291748,1599.839600 
	C1225.549805,1607.577515 1226.696167,1614.742920 1225.357056,1621.409180 
	C1221.856079,1638.836182 1205.887817,1649.522827 1187.380615,1647.942993 
	C1170.627686,1646.512939 1158.808228,1633.931641 1157.772217,1615.979004 
	C1157.487549,1611.045532 1157.557739,1605.921021 1158.567139,1601.115601 
	C1161.469116,1587.298706 1172.334229,1577.554077 1185.966919,1575.774414 
	C1202.179932,1573.657715 1215.315674,1579.713501 1222.321533,1592.638306 
	C1223.421875,1594.668091 1224.148193,1596.900757 1225.291748,1599.839600 
z"/>
<path fill="#F5EEDB" opacity="1.000000" stroke="none" 
	d="
M620.050659,1598.291382 
	C612.769104,1598.291382 606.476135,1598.291382 600.161926,1598.291382 
	C600.993958,1584.110596 611.005920,1574.748657 625.655090,1573.816528 
	C642.476501,1572.746216 653.542969,1581.028809 656.378357,1597.527588 
	C644.593506,1599.211304 632.775452,1597.842529 620.050659,1598.291382 
z"/>
<path fill="#F5EEDB" opacity="1.000000" stroke="none" 
	d="
M1069.034790,1573.978882 
	C1082.086670,1576.943604 1089.396484,1584.457642 1092.101074,1597.599609 
	C1072.758545,1597.599609 1054.003418,1597.599609 1035.244995,1597.599609 
	C1035.509521,1585.733398 1044.324829,1576.134277 1057.245972,1574.200439 
	C1060.831909,1573.663696 1064.543579,1573.966553 1069.034790,1573.978882 
z"/>
<path fill="#F5EEDB" opacity="1.000000" stroke="none" 
	d="
M1887.015259,1647.658691 
	C1866.817505,1647.976318 1854.220825,1640.518311 1849.509277,1624.884644 
	C1845.363037,1611.127075 1846.190186,1597.577759 1856.618530,1586.546997 
	C1866.139282,1576.476196 1878.410034,1574.184448 1891.574219,1577.177612 
	C1906.933105,1580.669800 1916.172485,1592.193726 1917.485718,1608.669678 
	C1918.760498,1624.663574 1910.265625,1639.484863 1896.458740,1645.069580 
	C1893.702393,1646.184204 1890.723389,1646.748291 1887.015259,1647.658691 
z"/>
<path fill="#F5EEDB" opacity="1.000000" stroke="none" 
	d="
M784.452637,1587.703857 
	C791.253113,1596.304443 792.869934,1605.573242 792.165039,1615.486206 
	C790.901428,1633.257080 777.804443,1646.530640 760.194275,1647.822754 
	C742.015564,1649.156616 727.630493,1638.752563 723.425110,1621.228882 
	C719.501465,1604.879395 725.443359,1588.751221 738.209412,1581.100098 
	C752.619385,1572.463623 770.572754,1574.832886 784.452637,1587.703857 
z"/>
</svg>